<svg width="219" height="157" viewBox="0 0 219 157" fill="none" xmlns="http://www.w3.org/2000/svg">
<g clip-path="url(#clip0_291:8123)">
<path d="M213.478 127.399C212.81 127.399 212.275 127.399 211.607 127.265C211.741 126.863 211.741 126.595 211.607 126.193C212.275 126.059 212.81 126.059 213.478 126.059C213.344 126.595 213.344 126.997 213.478 127.399Z" fill="white"/>
<path d="M17.0996 34.0409C17.5004 32.8354 17.2332 31.7638 16.4316 30.6923C17.3668 30.5584 18.1683 30.4244 18.8363 29.8886C20.0386 31.2281 19.6378 33.1033 18.1683 34.3087C18.1683 33.9069 17.634 33.9069 17.0996 34.0409Z" fill="white"/>
<path d="M212.811 24.7988C212.811 23.8612 212.811 22.9236 212.811 22.12C213.345 21.8521 213.746 21.7181 214.146 21.4503C214.547 22.6557 215.082 23.8612 215.482 25.0667C214.681 24.9328 213.746 24.9328 212.811 24.7988Z" fill="white"/>
<path d="M120.9 154.723C121.301 153.919 120.366 153.116 120.9 152.312C121.167 152.58 121.435 152.58 121.702 152.58C121.435 153.25 122.102 153.919 121.702 154.589C121.435 154.321 121.167 154.455 120.9 154.723Z" fill="white"/>
<path d="M6.4117 31.362C6.54529 32.5675 6.27811 33.1033 5.47656 32.8354C6.27811 34.1748 7.07966 35.5142 7.8812 36.9876C9.35071 37.7912 10.1523 37.6573 10.2858 36.4518C8.94993 34.7106 7.74761 32.9693 6.4117 31.362Z" fill="white"/>
<path d="M22.9777 11.2706C22.5769 10.6009 22.1762 10.0652 21.7754 9.39545C21.909 9.12757 22.0426 8.85968 22.0426 8.5918C22.8441 9.26151 23.5121 9.93122 24.3136 10.6009C23.9128 10.8688 23.5121 11.0028 22.9777 11.2706Z" fill="white"/>
<path d="M126.568 4.66361C127.637 4.12784 129.107 3.9939 130.309 3.45813C130.843 3.72601 131.244 3.9939 131.778 4.26178C130.443 5.46726 128.706 5.86909 127.37 7.07457C127.103 6.27092 126.836 5.46727 126.568 4.66361Z" fill="white"/>
<path d="M2.13746 17.8338C1.73668 18.1017 1.06873 18.2356 0.667956 18.5035C0.400773 18.3696 0.267182 18.2356 0 18.2356C0.534364 17.6999 1.33591 17.432 1.87028 16.8962C2.00387 17.298 2.00387 17.5659 2.13746 17.8338Z" fill="white"/>
<path d="M115.824 88.2875C119.431 90.9664 121.969 94.9847 123.305 99.1369C121.969 98.869 120.901 99.5387 120.099 100.61C117.962 97.5296 115.423 94.9847 112.484 92.8416C114.221 91.904 115.423 90.5646 115.824 88.2875Z" fill="white"/>
<path d="M68.3984 42.3453C69.0664 41.1398 70.2687 40.4701 71.7382 40.2022C71.7382 40.7379 72.0054 41.1398 72.5398 41.5416C71.6046 42.0774 70.8031 43.015 70.2687 43.9526C69.7343 43.2829 69.2 42.7471 68.3984 42.3453Z" fill="white"/>
<path d="M34.4668 48.5066C35.6691 48.1048 36.3371 47.1672 36.7378 45.8278C37.4058 46.4975 37.9402 47.0333 38.8753 47.1672C38.4745 48.9085 37.005 49.8461 35.0012 49.4442C35.2683 49.3103 34.8676 48.7745 34.4668 48.5066Z" fill="white"/>
<path d="M56.2421 58.9541C55.5742 57.4808 54.639 56.2753 53.5703 54.8019C54.5054 54.1322 55.0398 53.3286 55.5742 52.1231C56.7765 53.8643 58.3796 55.7395 60.2499 57.079C58.3796 57.3468 57.4445 57.8826 56.2421 58.9541Z" fill="white"/>
<path d="M72.139 68.8659C72.0054 67.2586 71.4711 65.9191 70.4023 64.7137C70.8031 63.91 71.0703 63.1064 71.0703 62.3027C73.6085 63.1064 75.746 64.7137 77.3491 66.9907C75.3452 67.5265 73.6085 68.1962 72.139 68.8659Z" fill="white"/>
<path d="M28.9891 67.2586C30.8593 67.3925 32.7296 68.0622 34.0655 69.2677C33.5312 69.5356 33.264 69.9374 33.264 70.6071C31.7945 70.0714 30.325 69.8035 28.8555 69.8035C29.2562 68.8659 29.3898 68.0622 28.9891 67.2586Z" fill="white"/>
<path d="M208.136 26.9419C207.735 26.674 207.067 26.9419 206.666 26.674C206.8 26.674 206.8 26.5401 206.8 26.4061C207.2 26.674 207.601 26.4061 207.868 26.674C208.002 26.674 208.002 26.808 208.136 26.9419Z" fill="white"/>
<path d="M162.312 76.2327C161.778 75.9648 161.377 75.8309 160.843 75.6969C160.843 75.4291 160.843 75.2951 160.709 74.8933C161.377 75.1612 162.178 75.2951 162.846 75.2951C162.579 75.6969 162.446 75.8309 162.312 76.2327Z" fill="white"/>
<path d="M39.5433 27.3437C38.3409 26.4061 37.005 25.8704 35.5355 25.4685C35.2683 24.7988 34.8676 24.263 34.4668 23.7273C37.005 23.3254 39.5433 23.5933 42.2151 24.397C41.1464 25.4685 40.2112 26.4061 39.5433 27.3437Z" fill="white"/>
<path d="M170.596 85.4747C170.729 85.0729 171.531 84.939 171.664 84.5371C172.199 84.6711 172.733 84.805 173.268 84.939C173.535 85.6087 173 86.0105 173.268 86.8142C172.332 86.2784 171.531 85.8766 170.596 85.4747Z" fill="white"/>
<path d="M11.4883 142.534C11.2211 142.4 11.0875 142.4 10.8203 142.266C10.8203 142.132 10.8203 142.132 10.8203 141.998C11.2211 141.998 11.4883 142.132 11.889 142.132C11.6219 142.4 11.6219 142.534 11.4883 142.534Z" fill="white"/>
<path d="M34.466 4.8414C34.3324 6.18082 33.798 7.52025 32.8629 8.45785C32.7293 8.05602 32.3285 7.92208 31.9277 7.92208" fill="white"/>
<path d="M70.7959 12.7635C69.5936 15.3084 67.0554 17.3175 65.8531 19.8624C64.6507 19.9964 63.4484 20.1303 62.2461 20.2642C63.0476 16.5139 65.5859 13.4332 66.3874 9.6828C67.8569 10.6204 69.3264 11.6919 70.7959 12.7635Z" fill="white"/>
<path d="M133.191 58.6862C131.989 61.2311 130.786 63.6421 129.584 66.187C128.382 66.321 127.313 66.4549 126.244 66.7228C127.046 62.9724 127.847 59.222 128.649 55.4716C130.118 56.5432 131.721 57.7486 133.191 58.6862Z" fill="white"/>
<path d="M217.186 58.1675C215.984 57.4978 214.915 56.8281 213.713 56.0244C214.915 54.819 215.45 53.4795 215.583 51.8722" fill="white"/>
<path d="M102.197 63.5082C102.732 62.0348 103.266 60.6954 103.8 59.222C104.735 59.222 105.537 59.0881 106.339 58.9541C106.339 61.0972 106.472 63.2403 106.472 65.3834C104.869 64.7137 103.533 64.0439 102.197 63.5082Z" fill="white"/>
<path d="M19.3703 149.499C20.0382 149.901 20.5726 150.973 21.3742 151.374C21.3742 151.91 21.3742 152.446 21.3742 152.982C20.1718 152.848 19.3703 151.91 18.168 151.642C18.5687 150.973 18.9695 150.303 19.3703 149.499Z" fill="white"/>
<path d="M109.678 108.245C110.346 108.111 111.147 108.379 111.815 108.245C111.949 108.513 112.216 108.647 112.35 108.915C111.548 109.316 110.479 109.183 109.678 109.584C109.678 109.183 109.678 108.781 109.678 108.245Z" fill="white"/>
<path d="M97.6555 63.7761C97.6555 63.3742 96.9876 63.2403 97.1212 62.8385C97.2548 62.9724 97.3884 62.8385 97.522 62.8385C97.522 63.1064 98.0563 63.3742 97.9227 63.6421C97.7891 63.6421 97.7891 63.6421 97.6555 63.7761Z" fill="white"/>
<path d="M154.966 20.2448C154.966 20.1108 154.832 19.843 154.832 19.709C154.966 19.709 154.966 19.709 155.099 19.5751C155.233 19.843 155.233 20.1108 155.366 20.3787C155.099 20.2448 155.099 20.2448 154.966 20.2448Z" fill="white"/>
<path d="M41.6796 155.393C40.8781 156.196 39.8093 156.866 38.607 157C38.7406 156.598 38.607 156.33 38.3398 156.062C39.275 155.661 39.9429 154.991 40.6109 154.321C40.7445 154.857 41.1453 155.259 41.6796 155.393Z" fill="white"/>
<path d="M103.8 47.4351C101.529 47.9709 100.728 50.6497 98.4566 51.0515C98.7238 50.3818 98.5902 49.98 98.1895 49.5782C100.06 49.0424 100.728 47.0333 102.598 46.7654C102.464 47.0333 102.865 47.3011 103.8 47.4351Z" fill="white"/>
<path d="M85.9 81.8583C86.4343 82.528 86.8351 83.3316 87.1023 84.1353C86.5679 84.2692 86.1672 84.5371 85.9 84.939C85.232 84.2692 84.8312 83.5995 84.2969 82.9298C84.9648 82.6619 85.4992 82.394 85.9 81.8583Z" fill="white"/>
<path d="M194.411 71.9295C195.88 73.135 197.483 73.9386 199.354 74.3405C199.354 75.1441 199.354 76.0817 199.354 76.8854C196.816 76.6175 194.277 75.8138 192.273 74.4744C192.941 73.6708 193.743 72.7332 194.411 71.9295Z" fill="white"/>
<path d="M43.8179 119.898C45.421 120.836 47.0241 121.639 48.6272 122.577C48.6272 123.38 48.7608 124.05 48.8944 124.854C46.4897 124.184 44.0851 123.514 41.5469 122.845C42.2148 121.773 43.0164 120.702 43.8179 119.898Z" fill="white"/>
<path d="M183.555 73.6878C183.555 73.4199 183.688 73.152 183.955 72.8842C183.955 73.0181 184.089 73.0181 184.089 73.0181C183.955 73.286 183.955 73.4199 183.955 73.6878C183.688 73.6878 183.688 73.6878 183.555 73.6878Z" fill="white"/>
<path d="M66.9297 38.8628C66.9297 38.7288 67.0633 38.7288 67.0633 38.5949H67.1969C67.1969 38.7288 67.1969 38.8628 67.1969 38.9967C67.0633 38.9967 67.0633 38.9967 66.9297 38.8628Z" fill="white"/>
<path d="M46.0894 65.5173C46.223 64.9815 46.0894 64.3118 45.8223 63.91C46.223 63.7761 46.6238 63.6421 47.0246 63.5082C47.6925 64.1779 47.9597 64.9815 47.8261 65.7852C47.1582 65.5173 46.6238 65.5173 46.0894 65.5173Z" fill="white"/>
<path d="M24.0573 103.011C21.3854 101.94 18.8472 101.002 16.1754 99.9308C16.0418 99.1271 16.0418 98.1895 15.9082 97.5198C19.9159 98.3235 23.9237 98.9932 27.9314 99.7968C26.5955 101.002 25.2596 102.074 24.0573 103.011Z" fill="white"/>
<path d="M197.716 34.4427C196.914 34.0408 196.38 33.3711 195.578 32.9693C195.578 32.7014 195.578 32.4335 195.712 32.1656C196.914 32.5675 197.849 33.2372 199.185 33.639C198.651 33.9069 198.116 34.1748 197.716 34.4427Z" fill="white"/>
<path d="M93.9144 86.1444C94.3152 86.2784 94.8496 86.5463 95.2504 86.6802C95.2504 86.9481 95.2503 87.082 95.1168 87.216C94.3152 87.082 93.6473 87.082 92.8457 86.9481C93.2465 86.6802 93.6473 86.4123 93.9144 86.1444Z" fill="white"/>
<path d="M14.0269 12.8779C14.2941 13.1458 15.0957 13.0119 15.2293 13.2798C15.0957 13.2798 14.9621 13.4137 14.8285 13.5476C14.5613 13.2798 14.0269 13.4137 13.7598 13.1458C14.0269 13.1458 14.0269 13.0119 14.0269 12.8779Z" fill="white"/>
<path d="M30.9941 50.6497C31.1277 51.4534 31.2613 52.391 31.2613 53.1946C30.8605 53.4625 30.4597 53.5965 30.0589 53.8643C29.5246 52.7928 28.9902 51.5873 28.3223 50.5158C29.2574 50.5158 30.1925 50.6497 30.9941 50.6497Z" fill="white"/>
<path d="M128.247 109.852C128.113 111.326 128.247 112.799 128.38 114.406C127.312 114.406 126.51 114.674 125.575 115.344C125.441 113.335 125.041 111.058 124.105 109.049C125.709 109.852 126.777 109.986 128.247 109.852Z" fill="white"/>
<path d="M191.282 113.271C191.282 114.745 191.149 116.352 191.149 117.825C190.347 118.227 189.546 118.495 188.878 118.897C188.21 116.888 187.542 114.745 186.74 112.736C188.343 112.87 189.813 113.004 191.282 113.271Z" fill="white"/>
<path d="M21.9093 133.962C22.0429 134.899 22.0429 135.837 22.1765 136.641C22.0429 136.909 21.7758 137.176 21.6422 137.444C21.375 136.239 20.9742 135.033 20.707 133.962C21.1078 133.962 21.5086 133.962 21.9093 133.962Z" fill="white"/>
<path d="M77.35 122.845C77.35 123.246 77.35 123.648 77.4836 124.05C77.35 124.184 77.35 124.184 77.2164 124.318C77.0828 123.782 76.9492 123.113 76.9492 122.577C77.0828 122.711 77.2164 122.711 77.35 122.845Z" fill="white"/>
<path d="M148.419 10.6009C148.419 11.0028 148.419 11.2706 148.419 11.6725C148.286 11.6725 148.286 11.6725 148.152 11.8064C148.152 11.4046 148.018 10.8688 147.885 10.333C148.152 10.467 148.286 10.6009 148.419 10.6009Z" fill="white"/>
<path d="M146.416 100.208C148.821 101.28 151.492 101.816 154.298 101.682C155.099 102.753 156.035 103.557 156.97 104.227C152.828 105.968 148.019 106.772 143.076 106.504C144.412 104.361 145.481 102.218 146.416 100.208Z" fill="white"/>
<path d="M182.886 45.6939C181.283 44.8902 179.546 44.7563 177.943 45.292C177.676 44.2205 177.275 43.1489 177.008 42.0774C179.279 41.0059 181.55 40.738 183.687 41.4077C183.42 42.7471 183.153 44.2205 182.886 45.6939Z" fill="white"/>
<path d="M186.951 21.6207C185.616 22.6923 184.413 23.6299 183.077 24.7014C182.409 24.4335 181.741 24.2996 181.207 24.1657C182.543 22.2905 184.012 20.5492 185.348 18.674C185.883 19.7456 186.417 20.6831 186.951 21.6207Z" fill="white"/>
<path d="M186.093 143.07C187.161 143.606 188.364 144.008 189.566 144.409C189.432 144.945 189.432 145.481 189.7 146.151C188.23 145.615 186.36 145.079 184.623 144.945C185.558 144.275 185.825 143.874 186.093 143.07Z" fill="white"/>
<path d="M195.008 97.9898C193.94 98.6595 192.737 99.4632 191.669 100.133C191.134 99.865 190.6 99.7311 190.199 99.4632C191.402 98.1238 192.737 96.7843 193.94 95.4449C194.207 96.3825 194.608 97.1862 195.008 97.9898Z" fill="white"/>
<path d="M173 138.784C173.4 138.784 173.801 138.784 174.202 138.784C174.336 138.918 174.336 138.918 174.469 139.052C173.935 139.186 173.267 139.186 172.732 139.32C172.866 139.052 173 138.918 173 138.784Z" fill="white"/>
</g>
<path d="M90.0764 0C90.7444 2.54491 92.0803 4.95587 93.817 7.09895C93.5498 8.30443 93.4162 9.50991 93.5498 10.7154C89.5421 8.57231 85.9351 5.3577 82.9961 1.33942C85.5343 0.937597 87.939 0.53577 90.0764 0Z" fill="white"/>
<defs>
<clipPath id="clip0_291:8123">
<rect width="218.555" height="152.159" fill="white" transform="translate(0 4.8414)"/>
</clipPath>
</defs>
</svg>
