<svg width="19" height="16" viewBox="0 0 19 16" fill="none" xmlns="http://www.w3.org/2000/svg">
<path d="M12.9483 2.72308C13.7047 2.72308 14.3098 2.11795 14.3098 1.36154C14.3098 0.605128 13.7047 0 12.9483 0C12.1919 0 11.5867 0.605128 11.5867 1.36154C11.5867 2.11795 12.1919 2.72308 12.9483 2.72308ZM15.2175 8.16923C13.0995 8.16923 11.4354 9.83333 11.4354 11.9513C11.4354 14.0692 13.0995 15.7333 15.2175 15.7333C17.3354 15.7333 18.9995 14.0693 18.9995 11.9513C18.9995 9.8333 17.3354 8.16923 15.2175 8.16923ZM15.2175 14.5987C13.7803 14.5987 12.5701 13.3884 12.5701 11.9513C12.5701 10.5141 13.7803 9.30385 15.2175 9.30385C16.6547 9.30385 17.8649 10.5141 17.8649 11.9513C17.8649 13.3884 16.6547 14.5987 15.2175 14.5987ZM12.0406 6.65641H15.2175V5.29487H12.797L11.3598 2.79872C11.1329 2.42051 10.7547 2.19359 10.2252 2.19359C9.84699 2.19359 9.54442 2.34487 9.3175 2.57179L6.51878 5.37051C6.29186 5.59744 6.14057 5.9 6.14057 6.2782C6.14057 6.73205 6.3675 7.1859 6.7457 7.41282L9.3175 8.92564V12.7077H10.679V7.79103L9.01493 6.50513L10.7547 4.76538L12.0406 6.65641ZM4.62775 8.16923C2.50981 8.16923 0.845703 9.83333 0.845703 11.9513C0.845703 14.0692 2.50981 15.7333 4.62775 15.7333C6.7457 15.7333 8.40981 14.0693 8.40981 11.9513C8.40981 9.8333 6.7457 8.16923 4.62775 8.16923ZM4.62775 14.5987C3.19057 14.5987 1.98032 13.3884 1.98032 11.9513C1.98032 10.5141 3.19057 9.30385 4.62775 9.30385C6.06493 9.30385 7.27519 10.5141 7.27519 11.9513C7.27519 13.3884 6.06493 14.5987 4.62775 14.5987Z" fill="#05CE91"/>
</svg>
