<svg width="135" height="135" viewBox="0 0 135 135" fill="none" xmlns="http://www.w3.org/2000/svg">
<circle cx="67.5764" cy="67.6123" r="67.0881" fill="#37D8A7"/>
<circle cx="67.5767" cy="67.6123" r="56.022" fill="#5FE0B9"/>
<circle cx="67.5768" cy="67.6123" r="44.2643" fill="#7FE6C7"/>
<circle cx="67.5771" cy="67.6123" r="33.1982" fill="white"/>
<g clip-path="url(#clip0_291:8179)">
<path d="M63.2622 80.6184C62.9387 80.9438 62.4973 81.1253 62.0389 81.1253C61.5804 81.1253 61.139 80.9438 60.8155 80.6184L51.0456 70.8468C50.0317 69.8329 50.0317 68.1888 51.0456 67.1768L52.2689 65.9532C53.2831 64.9393 54.9254 64.9393 55.9393 65.9532L62.0389 72.0531L78.5209 55.5708C79.5351 54.5569 81.1789 54.5569 82.1912 55.5708L83.4145 56.7944C84.4284 57.8083 84.4284 59.4521 83.4145 60.4644L63.2622 80.6184Z" fill="#05CE91"/>
</g>
<defs>
<clipPath id="clip0_291:8179">
<rect width="33.8899" height="33.8899" fill="white" transform="translate(50.2852 51.0132)"/>
</clipPath>
</defs>
</svg>
