<svg width="32" height="32" viewBox="0 0 32 32" fill="none" xmlns="http://www.w3.org/2000/svg">
<path d="M23.207 30H25.7928L24.4999 28.707L23.207 30Z" fill="#05CE91"/>
<path d="M16.0009 20H17.0009V15.0911C16.3847 15.3259 15.8798 16.0138 15.4955 17.1444C15.2761 17.8159 15.1219 18.507 15.0352 19.2081L15.7245 19.5528C15.8076 19.5943 15.8774 19.6582 15.9262 19.7372C15.975 19.8161 16.0009 19.9072 16.0009 20Z" fill="#05CE91"/>
<path d="M23 3.5C22.9919 2.98592 23.0885 2.47557 23.2839 2H6.5C6.40106 2 6 2.48244 6 3.5C6 4.51756 6.40106 5 6.5 5H23.2839C23.0885 4.52443 22.9919 4.01408 23 3.5Z" fill="#05CE91"/>
<path d="M11.9244 26.4554L11.5262 19H10.4742L10.0761 26.4554L10.0755 26.4644C10.0706 26.5329 10.0799 26.6016 10.1027 26.6664C10.1256 26.7311 10.1615 26.7905 10.2083 26.8407C10.2551 26.891 10.3117 26.9311 10.3747 26.9585C10.4376 26.9859 10.5056 27 10.5742 27H11.4262C11.4949 27 11.5628 26.9859 11.6258 26.9585C11.6888 26.9311 11.7454 26.891 11.7922 26.8407C11.839 26.7905 11.8749 26.7311 11.8978 26.6664C11.9206 26.6016 11.9299 26.5329 11.925 26.4644L11.9244 26.4554Z" fill="#05CE91"/>
<path d="M10.3086 18H11.6906L12.1906 17H9.80859L10.3086 18Z" fill="#05CE91"/>
<path d="M24.5 5C24.7761 5 25 4.32843 25 3.5C25 2.67157 24.7761 2 24.5 2C24.2239 2 24 2.67157 24 3.5C24 4.32843 24.2239 5 24.5 5Z" fill="#05CE91"/>
<path d="M21.5 14.7462C21.5 14.5418 21.5251 14.3382 21.5746 14.1399L23.6096 6H7.64038L5.54481 14.3824C5.51506 14.5014 5.50001 14.6236 5.5 14.7462V30H21.5V14.7462ZM13.5 16.5H13.4991C13.4994 16.5776 13.4816 16.6541 13.4472 16.7236L12.5063 18.6053L12.9224 26.3981C12.9364 26.6032 12.9081 26.809 12.8392 27.0026C12.7703 27.1963 12.6623 27.3738 12.522 27.524C12.3817 27.6742 12.212 27.7939 12.0235 27.8758C11.8349 27.9577 11.6316 28 11.426 28H10.574C10.3684 28 10.1651 27.9578 9.9765 27.8759C9.78795 27.794 9.61823 27.6742 9.4779 27.524C9.33756 27.3738 9.2296 27.1964 9.16071 27.0027C9.09182 26.809 9.06348 26.6032 9.07744 26.3981L9.49375 18.6053L8.55294 16.7236C8.51849 16.6541 8.50072 16.5776 8.50106 16.5H8.5V14.5C8.5 14.3674 8.55268 14.2402 8.64645 14.1464C8.74021 14.0527 8.86739 14 9 14C9.13261 14 9.25979 14.0527 9.35355 14.1464C9.44732 14.2402 9.5 14.3674 9.5 14.5V16H10.5V14.5C10.5 14.3674 10.5527 14.2402 10.6464 14.1464C10.7402 14.0527 10.8674 14 11 14C11.1326 14 11.2598 14.0527 11.3536 14.1464C11.4473 14.2402 11.5 14.3674 11.5 14.5V16H12.5V14.5C12.5 14.3674 12.5527 14.2402 12.6464 14.1464C12.7402 14.0527 12.8674 14 13 14C13.1326 14 13.2598 14.0527 13.3536 14.1464C13.4473 14.2402 13.5 14.3674 13.5 14.5V16.5ZM18.0071 27.5063C17.8664 27.6616 17.6948 27.7857 17.5033 27.8708C17.3118 27.9558 17.1046 27.9998 16.895 28H16.105C15.8962 28 15.6897 27.9565 15.4986 27.8721C15.3076 27.7877 15.1363 27.6644 14.9957 27.51C14.8551 27.3557 14.7483 27.1736 14.6821 26.9756C14.6159 26.7775 14.5918 26.5678 14.6112 26.3599L15 20.4836V20.309L14.2764 19.9472C14.1876 19.9028 14.1141 19.833 14.0651 19.7468C14.0162 19.6605 13.994 19.5616 14.0014 19.4626C14.0181 19.2396 14.4462 14.0001 17.5 14.0001C17.6326 14.0001 17.7598 14.0528 17.8536 14.1466C17.9473 14.2403 18 14.3675 18 14.5001V20.4837L18.3885 26.3601C18.4077 26.5672 18.3837 26.7759 18.3181 26.9732C18.2524 27.1705 18.1465 27.352 18.0071 27.5063Z" fill="#05CE91"/>
<path d="M22.5448 14.3824C22.5151 14.5014 22.5 14.6235 22.5 14.7462V29.2928L24 27.7928V15.5C24 15.3674 24.0527 15.2402 24.1464 15.1464C24.2402 15.0526 24.3674 15 24.5 15C24.6326 15 24.7598 15.0526 24.8536 15.1464C24.9473 15.2402 25 15.3674 25 15.5V27.7928L26.5 29.2928V14.7462C26.5 14.6235 26.4849 14.5012 26.4552 14.3822L24.5 6.5614L22.5448 14.3824Z" fill="#05CE91"/>
<path d="M17.3917 26.4335L17.0325 21H15.9685L15.6094 26.4335C15.609 26.4391 15.6085 26.4446 15.608 26.4503C15.601 26.5198 15.6087 26.59 15.6305 26.6564C15.6523 26.7228 15.6878 26.7838 15.7347 26.8357C15.7815 26.8875 15.8388 26.9289 15.9026 26.9573C15.9665 26.9856 16.0356 27.0003 16.1055 27.0002H16.8955C16.9654 27.0003 17.0345 26.9856 17.0983 26.9573C17.1622 26.9289 17.2194 26.8875 17.2663 26.8357C17.3132 26.7839 17.3487 26.7228 17.3705 26.6564C17.3924 26.59 17.4 26.5198 17.393 26.4503C17.3924 26.4446 17.392 26.4391 17.3917 26.4335Z" fill="#05CE91"/>
</svg>
