<svg width="330" height="261" viewBox="0 0 330 261" fill="none" xmlns="http://www.w3.org/2000/svg">
<path d="M6.45586 222.18C9.35086 222.18 11.7809 219.735 11.7809 216.84C11.7809 213.945 9.35086 211.515 6.45586 211.515C3.56086 211.515 1.10086 213.945 1.10086 216.84C1.10086 219.735 3.56086 222.18 6.45586 222.18ZM6.45586 220.785C4.40086 220.785 2.66086 218.985 2.66086 216.84C2.66086 214.71 4.40086 212.91 6.45586 212.91C8.51086 212.91 10.2359 214.71 10.2359 216.84C10.2359 218.985 8.51086 220.785 6.45586 220.785ZM17.2648 222.18C19.4698 222.18 21.3298 220.32 21.3298 218.115C21.3298 215.91 19.4698 214.065 17.2648 214.065C15.0448 214.065 13.1698 215.91 13.1698 218.115C13.1698 220.32 15.0448 222.18 17.2648 222.18ZM17.2648 220.89C15.8398 220.89 14.6548 219.63 14.6548 218.115C14.6548 216.615 15.8398 215.355 17.2648 215.355C18.6598 215.355 19.8448 216.615 19.8448 218.115C19.8448 219.63 18.6598 220.89 17.2648 220.89ZM27.3723 214.065C26.1723 214.065 25.2123 214.635 24.6123 215.58V214.245H23.1423V224.58H24.6123V220.65C25.2123 221.61 26.1723 222.18 27.3723 222.18C29.4123 222.18 30.9423 220.5 30.9423 218.115C30.9423 215.745 29.4123 214.065 27.3723 214.065ZM27.0123 220.89C25.6173 220.89 24.6123 219.735 24.6123 218.115C24.6123 216.495 25.6173 215.355 27.0123 215.355C28.4373 215.355 29.4423 216.495 29.4423 218.115C29.4423 219.735 28.4373 220.89 27.0123 220.89ZM35.5403 222.18C37.2353 222.18 38.4803 221.25 38.4803 219.78C38.4803 218.235 37.1153 217.815 35.8403 217.44C34.5353 217.035 34.0553 216.855 34.0553 216.255C34.0553 215.67 34.6553 215.34 35.4203 215.34C36.0953 215.34 36.8753 215.595 37.6253 216.06L38.2853 214.965C37.4453 214.41 36.4253 214.065 35.4203 214.065C33.7703 214.065 32.5853 214.995 32.6003 216.42C32.6003 217.68 33.4853 218.19 35.2703 218.685C36.2303 218.955 37.0253 219.18 37.0253 219.9C37.0253 220.5 36.4253 220.905 35.5553 220.905C34.6403 220.905 33.7553 220.56 32.9303 219.96L32.2253 221.025C33.1553 221.775 34.4003 222.18 35.5403 222.18ZM40.776 218.865H41.796L42.171 211.695H40.416L40.776 218.865ZM41.271 222.18C41.811 222.18 42.246 221.715 42.246 221.16C42.246 220.65 41.811 220.185 41.271 220.185C40.701 220.185 40.266 220.65 40.266 221.16C40.266 221.715 40.701 222.18 41.271 222.18ZM52.4957 222.165C54.9257 222.165 56.2457 220.845 56.2457 219.105C56.2457 217.26 54.8207 216.57 52.7657 216.09C51.0707 215.685 50.1857 215.355 50.1857 214.395C50.1857 213.57 50.9957 212.835 52.1507 212.835C53.2007 212.835 54.2357 213.3 55.1057 214.095L55.9757 212.955C54.9857 212.085 53.8007 211.5 52.2107 211.5C50.1407 211.5 48.6407 212.805 48.6407 214.53C48.6407 216.39 50.0357 217.02 52.1357 217.515C53.8607 217.905 54.7157 218.28 54.7157 219.255C54.7157 220.08 53.9807 220.83 52.5557 220.83C51.1607 220.83 50.0807 220.26 49.1657 219.39L48.2507 220.515C49.3457 221.565 50.7707 222.165 52.4957 222.165ZM61.6174 220.86C60.2824 220.86 59.3374 219.93 59.1424 218.64H65.2474C65.2474 215.865 63.8824 214.065 61.5124 214.065C59.3674 214.065 57.6424 215.775 57.6424 218.1C57.6424 220.485 59.4724 222.18 61.6324 222.18C62.7274 222.18 64.0774 221.715 64.7674 220.98L63.8374 220.02C63.3724 220.5 62.4274 220.86 61.6174 220.86ZM61.5724 215.385C62.9074 215.385 63.6424 216.255 63.8074 217.455H59.1574C59.3974 216.195 60.3724 215.385 61.5724 215.385ZM70.5237 220.86C69.1887 220.86 68.2437 219.93 68.0487 218.64H74.1537C74.1537 215.865 72.7887 214.065 70.4187 214.065C68.2737 214.065 66.5487 215.775 66.5487 218.1C66.5487 220.485 68.3787 222.18 70.5387 222.18C71.6337 222.18 72.9837 221.715 73.6737 220.98L72.7437 220.02C72.2787 220.5 71.3337 220.86 70.5237 220.86ZM70.4787 215.385C71.8137 215.385 72.5487 216.255 72.7137 217.455H68.0637C68.3037 216.195 69.2787 215.385 70.4787 215.385ZM84.5449 214.065C83.3749 214.065 82.3849 214.665 82.0249 215.625C81.5749 214.665 80.6599 214.065 79.5349 214.065C78.5449 214.065 77.7349 214.56 77.3449 215.325V214.245H75.8599V222H77.3449V217.155C77.3449 216.09 78.1249 215.355 79.2349 215.355C80.2099 215.355 80.8849 216.15 80.8849 217.29V222H82.3399V217.155C82.3399 216.09 83.1199 215.355 84.2299 215.355C85.2049 215.355 85.8799 216.15 85.8799 217.29V222H87.3349V217.065C87.3349 215.31 86.1649 214.065 84.5449 214.065ZM92.2737 222.18C93.9687 222.18 95.2137 221.25 95.2137 219.78C95.2137 218.235 93.8487 217.815 92.5737 217.44C91.2687 217.035 90.7887 216.855 90.7887 216.255C90.7887 215.67 91.3887 215.34 92.1537 215.34C92.8287 215.34 93.6087 215.595 94.3587 216.06L95.0187 214.965C94.1787 214.41 93.1587 214.065 92.1537 214.065C90.5037 214.065 89.3187 214.995 89.3337 216.42C89.3337 217.68 90.2187 218.19 92.0037 218.685C92.9637 218.955 93.7587 219.18 93.7587 219.9C93.7587 220.5 93.1587 220.905 92.2887 220.905C91.3737 220.905 90.4887 220.56 89.6637 219.96L88.9587 221.025C89.8887 221.775 91.1337 222.18 92.2737 222.18ZM101.231 222H102.701V211.515H101.231V222ZM105.599 212.955C106.079 212.955 106.484 212.535 106.484 212.055C106.484 211.59 106.079 211.17 105.599 211.17C105.089 211.17 104.699 211.59 104.699 212.055C104.699 212.535 105.089 212.955 105.599 212.955ZM104.849 222H106.334V214.245H104.849V222ZM115.532 214.245H113.732L109.937 218.205V211.515H108.467V222H109.937V220.005L111.182 218.745L113.612 222H115.382L112.187 217.755L115.532 214.245ZM120.314 220.86C118.979 220.86 118.034 219.93 117.839 218.64H123.944C123.944 215.865 122.579 214.065 120.209 214.065C118.064 214.065 116.339 215.775 116.339 218.1C116.339 220.485 118.169 222.18 120.329 222.18C121.424 222.18 122.774 221.715 123.464 220.98L122.534 220.02C122.069 220.5 121.124 220.86 120.314 220.86ZM120.269 215.385C121.604 215.385 122.339 216.255 122.504 217.455H117.854C118.094 216.195 119.069 215.385 120.269 215.385ZM131.322 224.7C132.432 224.685 133.257 224.1 133.812 222.705L137.232 214.245H135.687L133.332 220.365L130.842 214.245H129.252L132.582 222.045L132.192 222.87C131.937 223.32 131.607 223.47 131.127 223.47C130.827 223.47 130.482 223.395 130.182 223.23L129.852 224.37C130.257 224.58 130.797 224.7 131.322 224.7ZM142.231 222.18C144.436 222.18 146.296 220.32 146.296 218.115C146.296 215.91 144.436 214.065 142.231 214.065C140.011 214.065 138.136 215.91 138.136 218.115C138.136 220.32 140.011 222.18 142.231 222.18ZM142.231 220.89C140.806 220.89 139.621 219.63 139.621 218.115C139.621 216.615 140.806 215.355 142.231 215.355C143.626 215.355 144.811 216.615 144.811 218.115C144.811 219.63 143.626 220.89 142.231 220.89ZM153.373 214.245V219.27C153.253 220.185 152.323 220.89 151.243 220.89C150.193 220.89 149.458 220.08 149.458 218.925V214.245H148.003V219.18C148.003 220.935 149.203 222.18 150.913 222.18C151.963 222.18 152.908 221.64 153.373 220.875V222H154.858V214.245H153.373ZM163.345 213.39C163.345 212.85 163.705 212.46 164.14 212.46C164.47 212.46 164.77 212.58 164.935 212.745L165.475 211.755C165.055 211.41 164.485 211.2 163.93 211.2C162.73 211.2 161.89 212.07 161.89 213.315V214.245H160.72V215.505H161.89V222H163.345V215.505H165.175V214.245H163.345V213.39ZM170.385 222.18C172.59 222.18 174.45 220.32 174.45 218.115C174.45 215.91 172.59 214.065 170.385 214.065C168.165 214.065 166.29 215.91 166.29 218.115C166.29 220.32 168.165 222.18 170.385 222.18ZM170.385 220.89C168.96 220.89 167.775 219.63 167.775 218.115C167.775 216.615 168.96 215.355 170.385 215.355C171.78 215.355 172.965 216.615 172.965 218.115C172.965 219.63 171.78 220.89 170.385 220.89ZM177.747 215.73V214.245H176.262V222H177.747V217.59C177.882 216.24 179.022 215.355 180.627 215.355V214.065C179.292 214.065 178.242 214.71 177.747 215.73ZM187.971 214.245V215.49C187.386 214.62 186.396 214.065 185.226 214.065C183.186 214.065 181.701 215.58 181.701 217.74C181.701 219.9 183.186 221.43 185.226 221.43C186.396 221.43 187.356 220.905 187.971 220.02V221.145C187.971 222.495 186.966 223.29 185.301 223.29C184.371 223.29 183.441 222.975 182.871 222.435L182.286 223.545C183.021 224.145 184.221 224.58 185.526 224.58C187.821 224.58 189.456 223.17 189.456 221.175V214.245H187.971ZM185.601 220.14C184.221 220.14 183.246 219.15 183.246 217.74C183.246 216.345 184.221 215.355 185.601 215.355C186.981 215.355 187.971 216.345 187.971 217.74C187.971 219.15 186.981 220.14 185.601 220.14ZM195.346 222.18C197.551 222.18 199.411 220.32 199.411 218.115C199.411 215.91 197.551 214.065 195.346 214.065C193.126 214.065 191.251 215.91 191.251 218.115C191.251 220.32 193.126 222.18 195.346 222.18ZM195.346 220.89C193.921 220.89 192.736 219.63 192.736 218.115C192.736 216.615 193.921 215.355 195.346 215.355C196.741 215.355 197.926 216.615 197.926 218.115C197.926 219.63 196.741 220.89 195.346 220.89ZM204.778 220.605C204.613 220.77 204.313 220.89 203.983 220.89C203.548 220.89 203.188 220.5 203.188 219.96V215.505H205.018V214.245H203.188V212.115H201.733V214.245H200.563V215.505H201.733V220.065C201.733 221.31 202.573 222.18 203.773 222.18C204.328 222.18 204.898 221.97 205.318 221.625L204.778 220.605ZM212.489 224.7C213.599 224.685 214.424 224.1 214.979 222.705L218.399 214.245H216.854L214.499 220.365L212.009 214.245H210.419L213.749 222.045L213.359 222.87C213.104 223.32 212.774 223.47 212.294 223.47C211.994 223.47 211.649 223.395 211.349 223.23L211.019 224.37C211.424 224.58 211.964 224.7 212.489 224.7ZM223.398 222.18C225.603 222.18 227.463 220.32 227.463 218.115C227.463 215.91 225.603 214.065 223.398 214.065C221.178 214.065 219.303 215.91 219.303 218.115C219.303 220.32 221.178 222.18 223.398 222.18ZM223.398 220.89C221.973 220.89 220.788 219.63 220.788 218.115C220.788 216.615 221.973 215.355 223.398 215.355C224.793 215.355 225.978 216.615 225.978 218.115C225.978 219.63 224.793 220.89 223.398 220.89ZM234.54 214.245V219.27C234.42 220.185 233.49 220.89 232.41 220.89C231.36 220.89 230.625 220.08 230.625 218.925V214.245H229.17V219.18C229.17 220.935 230.37 222.18 232.08 222.18C233.13 222.18 234.075 221.64 234.54 220.875V222H236.025V214.245H234.54ZM239.74 215.73V214.245H238.255V222H239.74V217.59C239.875 216.24 241.015 215.355 242.62 215.355V214.065C241.285 214.065 240.235 214.71 239.74 215.73ZM248.405 222H249.92V218.415H252.74C254.915 218.415 256.565 217.02 256.565 215.055C256.565 213.09 254.915 211.695 252.74 211.695H248.405V222ZM249.92 217.005V213.105H252.53C254.015 213.105 255.02 213.84 255.02 215.055C255.02 216.27 254.015 217.005 252.53 217.005H249.92ZM261.356 214.065C260.501 214.065 259.526 214.29 258.416 214.845L258.956 215.94C259.631 215.595 260.381 215.295 261.146 215.295C262.691 215.295 263.141 216.33 263.141 217.305V217.545C262.391 217.29 261.566 217.125 260.801 217.125C259.091 217.125 257.696 218.16 257.696 219.705C257.696 221.22 258.911 222.18 260.561 222.18C261.506 222.18 262.571 221.745 263.141 220.935V222H264.596V217.305C264.596 215.385 263.441 214.065 261.356 214.065ZM260.846 221.01C259.871 221.01 259.121 220.5 259.121 219.66C259.121 218.82 259.991 218.235 261.026 218.235C261.791 218.235 262.511 218.34 263.141 218.535V219.57C262.886 220.53 261.806 221.01 260.846 221.01ZM269.549 222.18C271.244 222.18 272.489 221.25 272.489 219.78C272.489 218.235 271.124 217.815 269.849 217.44C268.544 217.035 268.064 216.855 268.064 216.255C268.064 215.67 268.664 215.34 269.429 215.34C270.104 215.34 270.884 215.595 271.634 216.06L272.294 214.965C271.454 214.41 270.434 214.065 269.429 214.065C267.779 214.065 266.594 214.995 266.609 216.42C266.609 217.68 267.494 218.19 269.279 218.685C270.239 218.955 271.034 219.18 271.034 219.9C271.034 220.5 270.434 220.905 269.564 220.905C268.649 220.905 267.764 220.56 266.939 219.96L266.234 221.025C267.164 221.775 268.409 222.18 269.549 222.18ZM277.02 222.18C278.715 222.18 279.96 221.25 279.96 219.78C279.96 218.235 278.595 217.815 277.32 217.44C276.015 217.035 275.535 216.855 275.535 216.255C275.535 215.67 276.135 215.34 276.9 215.34C277.575 215.34 278.355 215.595 279.105 216.06L279.765 214.965C278.925 214.41 277.905 214.065 276.9 214.065C275.25 214.065 274.065 214.995 274.08 216.42C274.08 217.68 274.965 218.19 276.75 218.685C277.71 218.955 278.505 219.18 278.505 219.9C278.505 220.5 277.905 220.905 277.035 220.905C276.12 220.905 275.235 220.56 274.41 219.96L273.705 221.025C274.635 221.775 275.88 222.18 277.02 222.18ZM283.65 222H285.015L286.89 216.24L288.75 222H290.115L292.725 214.245H291.21L289.44 220.02L287.52 214.245H286.26L284.34 220.02L282.555 214.245H281.04L283.65 222ZM297.577 222.18C299.782 222.18 301.642 220.32 301.642 218.115C301.642 215.91 299.782 214.065 297.577 214.065C295.357 214.065 293.482 215.91 293.482 218.115C293.482 220.32 295.357 222.18 297.577 222.18ZM297.577 220.89C296.152 220.89 294.967 219.63 294.967 218.115C294.967 216.615 296.152 215.355 297.577 215.355C298.972 215.355 300.157 216.615 300.157 218.115C300.157 219.63 298.972 220.89 297.577 220.89ZM304.94 215.73V214.245H303.455V222H304.94V217.59C305.075 216.24 306.215 215.355 307.82 215.355V214.065C306.485 214.065 305.435 214.71 304.94 215.73ZM315.238 211.515V215.58C314.638 214.635 313.678 214.065 312.478 214.065C310.438 214.065 308.908 215.745 308.908 218.115C308.908 220.5 310.438 222.18 312.478 222.18C313.678 222.18 314.638 221.61 315.238 220.65V222H316.708V211.515H315.238ZM312.838 220.89C311.413 220.89 310.408 219.735 310.408 218.115C310.408 216.495 311.413 215.355 312.838 215.355C314.233 215.355 315.238 216.495 315.238 218.115C315.238 219.735 314.233 220.89 312.838 220.89ZM319.506 218.865H320.526L320.901 211.695H319.146L319.506 218.865ZM320.001 222.18C320.541 222.18 320.976 221.715 320.976 221.16C320.976 220.65 320.541 220.185 320.001 220.185C319.431 220.185 318.996 220.65 318.996 221.16C318.996 221.715 319.431 222.18 320.001 222.18ZM37.4109 231.105V229.695H29.8359V240H37.4109V238.59H31.3659V235.455H36.8259V234.045H31.3659V231.105H37.4109ZM43.2135 232.065C42.1635 232.065 41.2185 232.605 40.7535 233.37V232.245H39.2685V240H40.7535V234.975C40.8735 234.06 41.8035 233.355 42.8835 233.355C43.9335 233.355 44.6685 234.165 44.6685 235.32V240H46.1235V235.065C46.1235 233.31 44.9235 232.065 43.2135 232.065ZM51.878 238.605C51.713 238.77 51.413 238.89 51.083 238.89C50.648 238.89 50.288 238.5 50.288 237.96V233.505H52.118V232.245H50.288V230.115H48.833V232.245H47.663V233.505H48.833V238.065C48.833 239.31 49.673 240.18 50.873 240.18C51.428 240.18 51.998 239.97 52.418 239.625L51.878 238.605ZM57.4866 238.86C56.1516 238.86 55.2066 237.93 55.0116 236.64H61.1166C61.1166 233.865 59.7516 232.065 57.3816 232.065C55.2366 232.065 53.5116 233.775 53.5116 236.1C53.5116 238.485 55.3416 240.18 57.5016 240.18C58.5966 240.18 59.9466 239.715 60.6366 238.98L59.7066 238.02C59.2416 238.5 58.2966 238.86 57.4866 238.86ZM57.4416 233.385C58.7766 233.385 59.5116 234.255 59.6766 235.455H55.0266C55.2666 234.195 56.2416 233.385 57.4416 233.385ZM64.3978 233.73V232.245H62.9128V240H64.3978V235.59C64.5328 234.24 65.6728 233.355 67.2778 233.355V232.065C65.9428 232.065 64.8928 232.71 64.3978 233.73ZM74.3835 242.7C75.4935 242.685 76.3185 242.1 76.8735 240.705L80.2935 232.245H78.7485L76.3935 238.365L73.9035 232.245H72.3135L75.6435 240.045L75.2535 240.87C74.9985 241.32 74.6685 241.47 74.1885 241.47C73.8885 241.47 73.5435 241.395 73.2435 241.23L72.9135 242.37C73.3185 242.58 73.8585 242.7 74.3835 242.7ZM85.2921 240.18C87.4971 240.18 89.3571 238.32 89.3571 236.115C89.3571 233.91 87.4971 232.065 85.2921 232.065C83.0721 232.065 81.1971 233.91 81.1971 236.115C81.1971 238.32 83.0721 240.18 85.2921 240.18ZM85.2921 238.89C83.8671 238.89 82.6821 237.63 82.6821 236.115C82.6821 234.615 83.8671 233.355 85.2921 233.355C86.6871 233.355 87.8721 234.615 87.8721 236.115C87.8721 237.63 86.6871 238.89 85.2921 238.89ZM96.4346 232.245V237.27C96.3146 238.185 95.3846 238.89 94.3046 238.89C93.2546 238.89 92.5196 238.08 92.5196 236.925V232.245H91.0646V237.18C91.0646 238.935 92.2646 240.18 93.9746 240.18C95.0246 240.18 95.9696 239.64 96.4346 238.875V240H97.9196V232.245H96.4346ZM101.634 233.73V232.245H100.149V240H101.634V235.59C101.769 234.24 102.909 233.355 104.514 233.355V232.065C103.179 232.065 102.129 232.71 101.634 233.73ZM111.815 233.73V232.245H110.33V240H111.815V235.59C111.95 234.24 113.09 233.355 114.695 233.355V232.065C113.36 232.065 112.31 232.71 111.815 233.73ZM119.698 238.86C118.363 238.86 117.418 237.93 117.223 236.64H123.328C123.328 233.865 121.963 232.065 119.593 232.065C117.448 232.065 115.723 233.775 115.723 236.1C115.723 238.485 117.553 240.18 119.713 240.18C120.808 240.18 122.158 239.715 122.848 238.98L121.918 238.02C121.453 238.5 120.508 238.86 119.698 238.86ZM119.653 233.385C120.988 233.385 121.723 234.255 121.888 235.455H117.238C117.478 234.195 118.453 233.385 119.653 233.385ZM130.945 232.245V233.49C130.36 232.62 129.37 232.065 128.2 232.065C126.16 232.065 124.675 233.58 124.675 235.74C124.675 237.9 126.16 239.43 128.2 239.43C129.37 239.43 130.33 238.905 130.945 238.02V239.145C130.945 240.495 129.94 241.29 128.275 241.29C127.345 241.29 126.415 240.975 125.845 240.435L125.26 241.545C125.995 242.145 127.195 242.58 128.5 242.58C130.795 242.58 132.43 241.17 132.43 239.175V232.245H130.945ZM128.575 238.14C127.195 238.14 126.22 237.15 126.22 235.74C126.22 234.345 127.195 233.355 128.575 233.355C129.955 233.355 130.945 234.345 130.945 235.74C130.945 237.15 129.955 238.14 128.575 238.14ZM135.379 230.955C135.859 230.955 136.264 230.535 136.264 230.055C136.264 229.59 135.859 229.17 135.379 229.17C134.869 229.17 134.479 229.59 134.479 230.055C134.479 230.535 134.869 230.955 135.379 230.955ZM134.629 240H136.114V232.245H134.629V240ZM141.068 240.18C142.763 240.18 144.008 239.25 144.008 237.78C144.008 236.235 142.643 235.815 141.368 235.44C140.063 235.035 139.583 234.855 139.583 234.255C139.583 233.67 140.183 233.34 140.948 233.34C141.623 233.34 142.403 233.595 143.153 234.06L143.813 232.965C142.973 232.41 141.953 232.065 140.948 232.065C139.298 232.065 138.113 232.995 138.128 234.42C138.128 235.68 139.013 236.19 140.798 236.685C141.758 236.955 142.553 237.18 142.553 237.9C142.553 238.5 141.953 238.905 141.083 238.905C140.168 238.905 139.283 238.56 138.458 237.96L137.753 239.025C138.683 239.775 139.928 240.18 141.068 240.18ZM149.363 238.605C149.198 238.77 148.898 238.89 148.568 238.89C148.133 238.89 147.773 238.5 147.773 237.96V233.505H149.603V232.245H147.773V230.115H146.318V232.245H145.148V233.505H146.318V238.065C146.318 239.31 147.158 240.18 148.358 240.18C148.913 240.18 149.483 239.97 149.903 239.625L149.363 238.605ZM154.972 238.86C153.637 238.86 152.692 237.93 152.497 236.64H158.602C158.602 233.865 157.237 232.065 154.867 232.065C152.722 232.065 150.997 233.775 150.997 236.1C150.997 238.485 152.827 240.18 154.987 240.18C156.082 240.18 157.432 239.715 158.122 238.98L157.192 238.02C156.727 238.5 155.782 238.86 154.972 238.86ZM154.927 233.385C156.262 233.385 156.997 234.255 157.162 235.455H152.512C152.752 234.195 153.727 233.385 154.927 233.385ZM161.883 233.73V232.245H160.398V240H161.883V235.59C162.018 234.24 163.158 233.355 164.763 233.355V232.065C163.428 232.065 162.378 232.71 161.883 233.73ZM169.767 238.86C168.432 238.86 167.487 237.93 167.292 236.64H173.397C173.397 233.865 172.032 232.065 169.662 232.065C167.517 232.065 165.792 233.775 165.792 236.1C165.792 238.485 167.622 240.18 169.782 240.18C170.877 240.18 172.227 239.715 172.917 238.98L171.987 238.02C171.522 238.5 170.577 238.86 169.767 238.86ZM169.722 233.385C171.057 233.385 171.792 234.255 171.957 235.455H167.307C167.547 234.195 168.522 233.385 169.722 233.385ZM181.088 229.515V233.58C180.488 232.635 179.528 232.065 178.328 232.065C176.288 232.065 174.758 233.745 174.758 236.115C174.758 238.5 176.288 240.18 178.328 240.18C179.528 240.18 180.488 239.61 181.088 238.65V240H182.558V229.515H181.088ZM178.688 238.89C177.263 238.89 176.258 237.735 176.258 236.115C176.258 234.495 177.263 233.355 178.688 233.355C180.083 233.355 181.088 234.495 181.088 236.115C181.088 237.735 180.083 238.89 178.688 238.89ZM196.698 231.105V229.695H189.123V240H196.698V238.59H190.653V235.455H196.113V234.045H190.653V231.105H196.698ZM207.226 232.065C206.056 232.065 205.066 232.665 204.706 233.625C204.256 232.665 203.341 232.065 202.216 232.065C201.226 232.065 200.416 232.56 200.026 233.325V232.245H198.541V240H200.026V235.155C200.026 234.09 200.806 233.355 201.916 233.355C202.891 233.355 203.566 234.15 203.566 235.29V240H205.021V235.155C205.021 234.09 205.801 233.355 206.911 233.355C207.886 233.355 208.561 234.15 208.561 235.29V240H210.016V235.065C210.016 233.31 208.846 232.065 207.226 232.065ZM215.404 232.065C214.549 232.065 213.574 232.29 212.464 232.845L213.004 233.94C213.679 233.595 214.429 233.295 215.194 233.295C216.739 233.295 217.189 234.33 217.189 235.305V235.545C216.439 235.29 215.614 235.125 214.849 235.125C213.139 235.125 211.744 236.16 211.744 237.705C211.744 239.22 212.959 240.18 214.609 240.18C215.554 240.18 216.619 239.745 217.189 238.935V240H218.644V235.305C218.644 233.385 217.489 232.065 215.404 232.065ZM214.894 239.01C213.919 239.01 213.169 238.5 213.169 237.66C213.169 236.82 214.039 236.235 215.074 236.235C215.839 236.235 216.559 236.34 217.189 236.535V237.57C216.934 238.53 215.854 239.01 214.894 239.01ZM221.527 230.955C222.007 230.955 222.412 230.535 222.412 230.055C222.412 229.59 222.007 229.17 221.527 229.17C221.017 229.17 220.627 229.59 220.627 230.055C220.627 230.535 221.017 230.955 221.527 230.955ZM220.777 240H222.262V232.245H220.777V240ZM224.41 240H225.88V229.515H224.41V240ZM236.01 240.18C238.215 240.18 240.075 238.32 240.075 236.115C240.075 233.91 238.215 232.065 236.01 232.065C233.79 232.065 231.915 233.91 231.915 236.115C231.915 238.32 233.79 240.18 236.01 240.18ZM236.01 238.89C234.585 238.89 233.4 237.63 233.4 236.115C233.4 234.615 234.585 233.355 236.01 233.355C237.405 233.355 238.59 234.615 238.59 236.115C238.59 237.63 237.405 238.89 236.01 238.89ZM243.372 233.73V232.245H241.887V240H243.372V235.59C243.507 234.24 244.647 233.355 246.252 233.355V232.065C244.917 232.065 243.867 232.71 243.372 233.73ZM252.038 240H253.553V236.415H256.373C258.548 236.415 260.198 235.02 260.198 233.055C260.198 231.09 258.548 229.695 256.373 229.695H252.038V240ZM253.553 235.005V231.105H256.163C257.648 231.105 258.653 231.84 258.653 233.055C258.653 234.27 257.648 235.005 256.163 235.005H253.553ZM265.679 232.065C264.614 232.065 263.669 232.62 263.204 233.4V229.515H261.734V240H263.204V235.185C263.204 234.18 264.179 233.355 265.349 233.355C266.399 233.355 267.134 234.165 267.134 235.32V240H268.589V235.065C268.589 233.31 267.389 232.065 265.679 232.065ZM274.389 240.18C276.594 240.18 278.454 238.32 278.454 236.115C278.454 233.91 276.594 232.065 274.389 232.065C272.169 232.065 270.294 233.91 270.294 236.115C270.294 238.32 272.169 240.18 274.389 240.18ZM274.389 238.89C272.964 238.89 271.779 237.63 271.779 236.115C271.779 234.615 272.964 233.355 274.389 233.355C275.784 233.355 276.969 234.615 276.969 236.115C276.969 237.63 275.784 238.89 274.389 238.89ZM284.136 232.065C283.086 232.065 282.141 232.605 281.676 233.37V232.245H280.191V240H281.676V234.975C281.796 234.06 282.726 233.355 283.806 233.355C284.856 233.355 285.591 234.165 285.591 235.32V240H287.046V235.065C287.046 233.31 285.846 232.065 284.136 232.065ZM292.726 238.86C291.391 238.86 290.446 237.93 290.251 236.64H296.356C296.356 233.865 294.991 232.065 292.621 232.065C290.476 232.065 288.751 233.775 288.751 236.1C288.751 238.485 290.581 240.18 292.741 240.18C293.836 240.18 295.186 239.715 295.876 238.98L294.946 238.02C294.481 238.5 293.536 238.86 292.726 238.86ZM292.681 233.385C294.016 233.385 294.751 234.255 294.916 235.455H290.266C290.506 234.195 291.481 233.385 292.681 233.385ZM21.5264 256.605C21.3614 256.77 21.0614 256.89 20.7314 256.89C20.2964 256.89 19.9364 256.5 19.9364 255.96V251.505H21.7664V250.245H19.9364V248.115H18.4814V250.245H17.3114V251.505H18.4814V256.065C18.4814 257.31 19.3214 258.18 20.5214 258.18C21.0764 258.18 21.6464 257.97 22.0664 257.625L21.5264 256.605ZM27.255 258.18C29.46 258.18 31.32 256.32 31.32 254.115C31.32 251.91 29.46 250.065 27.255 250.065C25.035 250.065 23.16 251.91 23.16 254.115C23.16 256.32 25.035 258.18 27.255 258.18ZM27.255 256.89C25.83 256.89 24.645 255.63 24.645 254.115C24.645 252.615 25.83 251.355 27.255 251.355C28.65 251.355 29.835 252.615 29.835 254.115C29.835 255.63 28.65 256.89 27.255 256.89ZM43.2445 250.245V251.49C42.6595 250.62 41.6695 250.065 40.4995 250.065C38.4595 250.065 36.9745 251.58 36.9745 253.74C36.9745 255.9 38.4595 257.43 40.4995 257.43C41.6695 257.43 42.6295 256.905 43.2445 256.02V257.145C43.2445 258.495 42.2395 259.29 40.5745 259.29C39.6445 259.29 38.7145 258.975 38.1445 258.435L37.5595 259.545C38.2945 260.145 39.4945 260.58 40.7995 260.58C43.0945 260.58 44.7295 259.17 44.7295 257.175V250.245H43.2445ZM40.8745 256.14C39.4945 256.14 38.5195 255.15 38.5195 253.74C38.5195 252.345 39.4945 251.355 40.8745 251.355C42.2545 251.355 43.2445 252.345 43.2445 253.74C43.2445 255.15 42.2545 256.14 40.8745 256.14ZM50.4993 256.86C49.1643 256.86 48.2193 255.93 48.0243 254.64H54.1293C54.1293 251.865 52.7643 250.065 50.3943 250.065C48.2493 250.065 46.5243 251.775 46.5243 254.1C46.5243 256.485 48.3543 258.18 50.5143 258.18C51.6093 258.18 52.9593 257.715 53.6493 256.98L52.7193 256.02C52.2543 256.5 51.3093 256.86 50.4993 256.86ZM50.4543 251.385C51.7893 251.385 52.5243 252.255 52.6893 253.455H48.0393C48.2793 252.195 49.2543 251.385 50.4543 251.385ZM59.4805 256.605C59.3155 256.77 59.0155 256.89 58.6855 256.89C58.2505 256.89 57.8905 256.5 57.8905 255.96V251.505H59.7205V250.245H57.8905V248.115H56.4355V250.245H55.2655V251.505H56.4355V256.065C56.4355 257.31 57.2755 258.18 58.4755 258.18C59.0305 258.18 59.6005 257.97 60.0205 257.625L59.4805 256.605ZM69.0811 250.065C68.2261 250.065 67.2511 250.29 66.1411 250.845L66.6811 251.94C67.3561 251.595 68.1061 251.295 68.8711 251.295C70.4161 251.295 70.8661 252.33 70.8661 253.305V253.545C70.1161 253.29 69.2911 253.125 68.5261 253.125C66.8161 253.125 65.4211 254.16 65.4211 255.705C65.4211 257.22 66.6361 258.18 68.2861 258.18C69.2311 258.18 70.2961 257.745 70.8661 256.935V258H72.3211V253.305C72.3211 251.385 71.1661 250.065 69.0811 250.065ZM68.5711 257.01C67.5961 257.01 66.8461 256.5 66.8461 255.66C66.8461 254.82 67.7161 254.235 68.7511 254.235C69.5161 254.235 70.2361 254.34 70.8661 254.535V255.57C70.6111 256.53 69.5311 257.01 68.5711 257.01ZM78.4137 250.065C77.3637 250.065 76.4187 250.605 75.9537 251.37V250.245H74.4687V258H75.9537V252.975C76.0737 252.06 77.0037 251.355 78.0837 251.355C79.1337 251.355 79.8687 252.165 79.8687 253.32V258H81.3237V253.065C81.3237 251.31 80.1237 250.065 78.4137 250.065ZM92.7352 258.18C95.6302 258.18 98.0602 255.735 98.0602 252.84C98.0602 249.945 95.6302 247.515 92.7352 247.515C89.8402 247.515 87.3802 249.945 87.3802 252.84C87.3802 255.735 89.8402 258.18 92.7352 258.18ZM92.7352 256.785C90.6802 256.785 88.9402 254.985 88.9402 252.84C88.9402 250.71 90.6802 248.91 92.7352 248.91C94.7902 248.91 96.5152 250.71 96.5152 252.84C96.5152 254.985 94.7902 256.785 92.7352 256.785ZM102.779 258H104.294V249.105H107.684V247.695H99.4041V249.105H102.779V258ZM109.406 258H110.921V254.415H113.741C115.916 254.415 117.566 253.02 117.566 251.055C117.566 249.09 115.916 247.695 113.741 247.695H109.406V258ZM110.921 253.005V249.105H113.531C115.016 249.105 116.021 249.84 116.021 251.055C116.021 252.27 115.016 253.005 113.531 253.005H110.921ZM126.649 250.065C125.794 250.065 124.819 250.29 123.709 250.845L124.249 251.94C124.924 251.595 125.674 251.295 126.439 251.295C127.984 251.295 128.434 252.33 128.434 253.305V253.545C127.684 253.29 126.859 253.125 126.094 253.125C124.384 253.125 122.989 254.16 122.989 255.705C122.989 257.22 124.204 258.18 125.854 258.18C126.799 258.18 127.864 257.745 128.434 256.935V258H129.889V253.305C129.889 251.385 128.734 250.065 126.649 250.065ZM126.139 257.01C125.164 257.01 124.414 256.5 124.414 255.66C124.414 254.82 125.284 254.235 126.319 254.235C127.084 254.235 127.804 254.34 128.434 254.535V255.57C128.179 256.53 127.099 257.01 126.139 257.01ZM135.982 250.065C134.932 250.065 133.987 250.605 133.522 251.37V250.245H132.037V258H133.522V252.975C133.642 252.06 134.572 251.355 135.652 251.355C136.702 251.355 137.437 252.165 137.437 253.32V258H138.892V253.065C138.892 251.31 137.692 250.065 135.982 250.065ZM146.987 247.515V251.58C146.387 250.635 145.427 250.065 144.227 250.065C142.187 250.065 140.657 251.745 140.657 254.115C140.657 256.5 142.187 258.18 144.227 258.18C145.427 258.18 146.387 257.61 146.987 256.65V258H148.457V247.515H146.987ZM144.587 256.89C143.162 256.89 142.157 255.735 142.157 254.115C142.157 252.495 143.162 251.355 144.587 251.355C145.982 251.355 146.987 252.495 146.987 254.115C146.987 255.735 145.982 256.89 144.587 256.89ZM158.636 258.18C159.791 258.18 160.796 257.7 161.546 256.935L160.541 256.02C160.061 256.56 159.371 256.89 158.651 256.89C157.226 256.89 156.056 255.63 156.056 254.115C156.056 252.615 157.226 251.355 158.636 251.355C159.356 251.355 160.031 251.67 160.496 252.195L161.501 251.265C160.766 250.53 159.761 250.065 158.651 250.065C156.431 250.065 154.556 251.91 154.556 254.115C154.556 256.32 156.431 258.18 158.636 258.18ZM164.696 251.73V250.245H163.211V258H164.696V253.59C164.831 252.24 165.971 251.355 167.576 251.355V250.065C166.241 250.065 165.191 250.71 164.696 251.73ZM172.579 256.86C171.244 256.86 170.299 255.93 170.104 254.64H176.209C176.209 251.865 174.844 250.065 172.474 250.065C170.329 250.065 168.604 251.775 168.604 254.1C168.604 256.485 170.434 258.18 172.594 258.18C173.689 258.18 175.039 257.715 175.729 256.98L174.799 256.02C174.334 256.5 173.389 256.86 172.579 256.86ZM172.534 251.385C173.869 251.385 174.604 252.255 174.769 253.455H170.119C170.359 252.195 171.334 251.385 172.534 251.385ZM181.186 250.065C180.331 250.065 179.356 250.29 178.246 250.845L178.786 251.94C179.461 251.595 180.211 251.295 180.976 251.295C182.521 251.295 182.971 252.33 182.971 253.305V253.545C182.221 253.29 181.396 253.125 180.631 253.125C178.921 253.125 177.526 254.16 177.526 255.705C177.526 257.22 178.741 258.18 180.391 258.18C181.336 258.18 182.401 257.745 182.971 256.935V258H184.426V253.305C184.426 251.385 183.271 250.065 181.186 250.065ZM180.676 257.01C179.701 257.01 178.951 256.5 178.951 255.66C178.951 254.82 179.821 254.235 180.856 254.235C181.621 254.235 182.341 254.34 182.971 254.535V255.57C182.716 256.53 181.636 257.01 180.676 257.01ZM190.203 256.605C190.038 256.77 189.738 256.89 189.408 256.89C188.973 256.89 188.613 256.5 188.613 255.96V251.505H190.443V250.245H188.613V248.115H187.158V250.245H185.988V251.505H187.158V256.065C187.158 257.31 187.998 258.18 189.198 258.18C189.753 258.18 190.323 257.97 190.743 257.625L190.203 256.605ZM195.812 256.86C194.477 256.86 193.532 255.93 193.337 254.64H199.442C199.442 251.865 198.077 250.065 195.707 250.065C193.562 250.065 191.837 251.775 191.837 254.1C191.837 256.485 193.667 258.18 195.827 258.18C196.922 258.18 198.272 257.715 198.962 256.98L198.032 256.02C197.567 256.5 196.622 256.86 195.812 256.86ZM195.767 251.385C197.102 251.385 197.837 252.255 198.002 253.455H193.352C193.592 252.195 194.567 251.385 195.767 251.385ZM209.4 250.065C208.35 250.065 207.405 250.605 206.94 251.37V250.245H205.455V258H206.94V252.975C207.06 252.06 207.99 251.355 209.07 251.355C210.12 251.355 210.855 252.165 210.855 253.32V258H212.31V253.065C212.31 251.31 211.11 250.065 209.4 250.065ZM217.989 256.86C216.654 256.86 215.709 255.93 215.514 254.64H221.619C221.619 251.865 220.254 250.065 217.884 250.065C215.739 250.065 214.014 251.775 214.014 254.1C214.014 256.485 215.844 258.18 218.004 258.18C219.099 258.18 220.449 257.715 221.139 256.98L220.209 256.02C219.744 256.5 218.799 256.86 217.989 256.86ZM217.944 251.385C219.279 251.385 220.014 252.255 220.179 253.455H215.529C215.769 252.195 216.744 251.385 217.944 251.385ZM224.925 258H226.29L228.165 252.24L230.025 258H231.39L234 250.245H232.485L230.715 256.02L228.795 250.245H227.535L225.615 256.02L223.83 250.245H222.315L224.925 258ZM244.096 250.065C242.896 250.065 241.936 250.635 241.336 251.58V250.245H239.866V260.58H241.336V256.65C241.936 257.61 242.896 258.18 244.096 258.18C246.136 258.18 247.666 256.5 247.666 254.115C247.666 251.745 246.136 250.065 244.096 250.065ZM243.736 256.89C242.341 256.89 241.336 255.735 241.336 254.115C241.336 252.495 242.341 251.355 243.736 251.355C245.161 251.355 246.166 252.495 246.166 254.115C246.166 255.735 245.161 256.89 243.736 256.89ZM252.714 250.065C251.859 250.065 250.884 250.29 249.774 250.845L250.314 251.94C250.989 251.595 251.739 251.295 252.504 251.295C254.049 251.295 254.499 252.33 254.499 253.305V253.545C253.749 253.29 252.924 253.125 252.159 253.125C250.449 253.125 249.054 254.16 249.054 255.705C249.054 257.22 250.269 258.18 251.919 258.18C252.864 258.18 253.929 257.745 254.499 256.935V258H255.954V253.305C255.954 251.385 254.799 250.065 252.714 250.065ZM252.204 257.01C251.229 257.01 250.479 256.5 250.479 255.66C250.479 254.82 251.349 254.235 252.384 254.235C253.149 254.235 253.869 254.34 254.499 254.535V255.57C254.244 256.53 253.164 257.01 252.204 257.01ZM260.906 258.18C262.601 258.18 263.846 257.25 263.846 255.78C263.846 254.235 262.481 253.815 261.206 253.44C259.901 253.035 259.421 252.855 259.421 252.255C259.421 251.67 260.021 251.34 260.786 251.34C261.461 251.34 262.241 251.595 262.991 252.06L263.651 250.965C262.811 250.41 261.791 250.065 260.786 250.065C259.136 250.065 257.951 250.995 257.966 252.42C257.966 253.68 258.851 254.19 260.636 254.685C261.596 254.955 262.391 255.18 262.391 255.9C262.391 256.5 261.791 256.905 260.921 256.905C260.006 256.905 259.121 256.56 258.296 255.96L257.591 257.025C258.521 257.775 259.766 258.18 260.906 258.18ZM268.377 258.18C270.072 258.18 271.317 257.25 271.317 255.78C271.317 254.235 269.952 253.815 268.677 253.44C267.372 253.035 266.892 252.855 266.892 252.255C266.892 251.67 267.492 251.34 268.257 251.34C268.932 251.34 269.712 251.595 270.462 252.06L271.122 250.965C270.282 250.41 269.262 250.065 268.257 250.065C266.607 250.065 265.422 250.995 265.437 252.42C265.437 253.68 266.322 254.19 268.107 254.685C269.067 254.955 269.862 255.18 269.862 255.9C269.862 256.5 269.262 256.905 268.392 256.905C267.477 256.905 266.592 256.56 265.767 255.96L265.062 257.025C265.992 257.775 267.237 258.18 268.377 258.18ZM275.008 258H276.373L278.248 252.24L280.108 258H281.473L284.083 250.245H282.568L280.798 256.02L278.878 250.245H277.618L275.698 256.02L273.913 250.245H272.398L275.008 258ZM288.935 258.18C291.14 258.18 293 256.32 293 254.115C293 251.91 291.14 250.065 288.935 250.065C286.715 250.065 284.84 251.91 284.84 254.115C284.84 256.32 286.715 258.18 288.935 258.18ZM288.935 256.89C287.51 256.89 286.325 255.63 286.325 254.115C286.325 252.615 287.51 251.355 288.935 251.355C290.33 251.355 291.515 252.615 291.515 254.115C291.515 255.63 290.33 256.89 288.935 256.89ZM296.297 251.73V250.245H294.812V258H296.297V253.59C296.432 252.24 297.572 251.355 299.177 251.355V250.065C297.842 250.065 296.792 250.71 296.297 251.73ZM306.596 247.515V251.58C305.996 250.635 305.036 250.065 303.836 250.065C301.796 250.065 300.266 251.745 300.266 254.115C300.266 256.5 301.796 258.18 303.836 258.18C305.036 258.18 305.996 257.61 306.596 256.65V258H308.066V247.515H306.596ZM304.196 256.89C302.771 256.89 301.766 255.735 301.766 254.115C301.766 252.495 302.771 251.355 304.196 251.355C305.591 251.355 306.596 252.495 306.596 254.115C306.596 255.735 305.591 256.89 304.196 256.89ZM311.224 258.18C311.764 258.18 312.199 257.715 312.199 257.16C312.199 256.65 311.764 256.185 311.224 256.185C310.654 256.185 310.219 256.65 310.219 257.16C310.219 257.715 310.654 258.18 311.224 258.18Z" fill="#565656"/>
<g clip-path="url(#clip0_240_484)">
<path d="M124.588 109.347C134.39 92.1114 153.086 78.8774 172.877 80.1523C158.278 96.0222 149.766 116.543 148.845 138.083C148.52 146.391 149.024 155.666 143.505 161.887C140.072 165.758 134.823 167.633 129.663 168.026C124.502 168.419 119.343 167.487 114.251 166.559L113.016 166.938C112.546 147.118 114.787 126.582 124.588 109.347Z" fill="#F0F0F0"/>
<path d="M172.907 80.5671C158.271 87.6102 145.792 99.3729 138.131 113.718C136.475 116.82 135.065 120.11 134.449 123.589C133.834 127.069 134.264 130.382 135.453 133.688C136.54 136.71 138.002 139.676 138.336 142.909C138.687 146.317 137.433 149.504 135.174 152.034C132.411 155.128 128.701 157.046 125.007 158.795C120.906 160.737 116.615 162.69 113.71 166.315C113.358 166.754 112.697 166.182 113.048 165.744C118.102 159.437 126.754 158.252 132.753 153.171C135.552 150.801 137.653 147.572 137.521 143.79C137.405 140.482 135.9 137.423 134.773 134.373C133.589 131.17 132.999 127.949 133.423 124.534C133.857 121.041 135.142 117.689 136.711 114.559C140.251 107.499 145.096 101.018 150.646 95.4159C157.024 88.9761 164.457 83.6744 172.623 79.7403C173.129 79.497 173.409 80.3254 172.907 80.5671Z" fill="white"/>
<path d="M140.375 108.924C138.131 107.284 136.544 104.9 135.896 102.198C135.248 99.4961 135.583 96.6519 136.839 94.1735C137.095 93.6729 137.885 94.0469 137.629 94.5482C136.455 96.854 136.144 99.5034 136.752 102.018C137.36 104.533 138.848 106.748 140.946 108.263C141.402 108.592 140.828 109.252 140.375 108.924Z" fill="white"/>
<path d="M134.7 132.228C140.322 131.407 145.428 128.498 149 124.08C149.353 123.642 150.014 124.214 149.661 124.651C145.936 129.241 140.616 132.258 134.764 133.1C134.206 133.18 134.145 132.308 134.7 132.228V132.228Z" fill="white"/>
<path d="M157.455 90.0513C158.191 90.8667 159.118 91.4866 160.153 91.8554C161.188 92.2242 162.298 92.3302 163.384 92.1641C163.94 92.0773 164.001 92.9493 163.448 93.0356C162.247 93.2135 161.021 93.0949 159.877 92.69C158.733 92.2851 157.705 91.6062 156.884 90.7128C156.8 90.635 156.748 90.5281 156.74 90.4136C156.731 90.2992 156.767 90.1858 156.839 90.0966C156.915 90.0094 157.023 89.9557 157.138 89.9472C157.253 89.9388 157.367 89.9762 157.455 90.0513Z" fill="white"/>
<path d="M212.256 134.524C211.91 134.588 211.564 134.652 211.215 134.723C206.568 135.609 202 136.871 197.557 138.497C197.212 138.617 196.864 138.744 196.522 138.874C185.86 142.904 176.04 148.879 167.56 156.493C164.188 159.526 161.052 162.811 158.179 166.32C154.212 171.165 150.295 176.735 145.111 179.895C144.574 180.23 144.016 180.532 143.441 180.799L113.574 168.415C113.521 168.353 113.464 168.297 113.41 168.235L112.195 167.795C112.33 167.604 112.475 167.408 112.61 167.217C112.689 167.106 112.773 166.997 112.851 166.886C112.906 166.812 112.96 166.739 113.005 166.67C113.023 166.646 113.041 166.621 113.056 166.603C113.101 166.534 113.15 166.475 113.192 166.412C113.998 165.317 114.812 164.226 115.636 163.138C115.639 163.132 115.639 163.132 115.649 163.128C121.948 154.857 128.993 147.04 137.001 140.541C137.242 140.345 137.485 140.143 137.74 139.953C141.366 137.043 145.224 134.434 149.275 132.153C151.497 130.911 153.781 129.782 156.117 128.771C162.159 126.169 168.573 124.534 175.123 123.925C188.181 122.713 201.482 125.689 211.497 133.89C211.753 134.1 212.003 134.307 212.256 134.524Z" fill="#F0F0F0"/>
<path d="M212.032 134.875C196.104 131.69 179.056 133.571 164.299 140.414C161.108 141.894 158.001 143.672 155.415 146.079C152.827 148.488 151.175 151.392 150.133 154.747C149.181 157.814 148.563 161.062 146.881 163.844C145.109 166.777 142.188 168.567 138.862 169.227C134.792 170.035 130.674 169.333 126.671 168.507C122.227 167.589 117.625 166.566 113.122 167.711C112.577 167.85 112.393 166.996 112.938 166.857C120.772 164.864 128.393 169.124 136.243 168.678C139.906 168.47 143.528 167.157 145.7 164.057C147.6 161.346 148.241 157.998 149.178 154.884C150.162 151.614 151.63 148.688 154.026 146.217C156.476 143.689 159.521 141.785 162.659 140.231C169.737 136.725 177.509 134.466 185.314 133.333C194.285 132.03 203.414 132.27 212.304 134.044C212.854 134.154 212.578 134.984 212.032 134.875V134.875Z" fill="white"/>
<path d="M168.978 137.937C168.174 135.277 168.343 132.418 169.453 129.871C170.563 127.324 172.543 125.254 175.039 124.031C175.545 123.786 175.95 124.56 175.444 124.806C173.117 125.94 171.273 127.868 170.244 130.242C169.216 132.617 169.069 135.28 169.833 137.752C169.998 138.29 169.142 138.471 168.978 137.937Z" fill="white"/>
<path d="M150.411 153.129C155.395 155.857 161.224 156.607 166.736 155.229C167.282 155.092 167.466 155.947 166.92 156.083C161.181 157.506 155.117 156.713 149.937 153.863C149.444 153.591 149.92 152.858 150.411 153.129Z" fill="white"/>
<path d="M193.983 133.148C194.079 134.242 194.446 135.295 195.05 136.212C195.654 137.129 196.476 137.882 197.444 138.403C197.94 138.669 197.463 139.401 196.97 139.137C195.904 138.557 194.997 137.724 194.327 136.712C193.657 135.7 193.246 134.54 193.128 133.332C193.108 133.219 193.131 133.103 193.193 133.007C193.255 132.91 193.352 132.841 193.463 132.813C193.576 132.789 193.695 132.811 193.792 132.874C193.889 132.937 193.958 133.035 193.983 133.148Z" fill="white"/>
<path d="M155.361 154.955C151.178 134.737 145.95 127.997 145.95 127.997L143.952 126.449L141.55 124.583L141.562 124.344L140.992 124.15L140.858 124.046L140.639 123.878L140.604 123.916L140.529 123.993L129.66 120.299L115.87 115.617L109.484 107.32C108.444 105.968 107.105 104.876 105.572 104.129C104.039 103.381 102.354 102.999 100.649 103.012L80.2551 103.162C77.4976 103.183 74.8475 104.234 72.8258 106.108L59.4214 118.537L38.5348 128.509L38.4995 128.474L38.2802 128.631L35.053 130.173L35.1862 130.866L33.1887 132.307C33.1887 132.307 27.9602 138.579 23.7774 157.391C22.7134 162.178 22.1896 172.446 22.0005 185.099C21.991 185.739 22.1089 186.374 22.3473 186.968C22.5858 187.563 22.94 188.103 23.3893 188.559C23.8387 189.016 24.3743 189.378 24.9649 189.625C25.5556 189.872 26.1895 190 26.8299 190H138.39V190H152.314C152.954 190 153.587 189.872 154.177 189.625C154.768 189.378 155.303 189.016 155.752 188.561C156.202 188.105 156.556 187.565 156.795 186.972C157.033 186.378 157.152 185.743 157.143 185.104C156.958 171.335 156.435 160.146 155.361 154.955Z" fill="#05CE91"/>
<path d="M169.675 17.6313C165.335 17.6313 161.172 19.3549 158.103 22.4229C155.034 25.4909 153.31 29.652 153.31 33.9908C153.31 38.3296 155.034 42.4907 158.103 45.5587C161.172 48.6267 165.335 50.3503 169.675 50.3503H291.635C295.975 50.3503 300.138 48.6267 303.207 45.5587C306.276 42.4907 308 38.3296 308 33.9908C308 29.652 306.276 25.4909 303.207 22.4229C300.138 19.3549 295.975 17.6313 291.635 17.6313H169.675Z" fill="#E5E5E5"/>
<path d="M169.675 20.9421C166.213 20.9421 162.893 22.3169 160.445 24.764C157.997 27.2111 156.622 30.5301 156.622 33.9908C156.622 37.4515 157.997 40.7704 160.445 43.2175C162.893 45.6646 166.213 47.0394 169.675 47.0394H291.635C295.097 47.0394 298.417 45.6646 300.865 43.2175C303.313 40.7704 304.688 37.4515 304.688 33.9908C304.688 30.5301 303.313 27.2111 300.865 24.764C298.417 22.3169 295.097 20.9421 291.635 20.9421H169.675Z" fill="white"/>
<path d="M93.6545 95.3528C108.41 95.3528 120.372 83.3951 120.372 68.6445C120.372 53.894 108.41 41.9363 93.6545 41.9363C78.8988 41.9363 66.9369 53.894 66.9369 68.6445C66.9369 83.3951 78.8988 95.3528 93.6545 95.3528Z" fill="#FFB9B9"/>
<path d="M86.8196 94.0451C86.7055 93.7939 86.5917 93.5418 86.4781 93.2888C86.5219 93.2902 86.5652 93.2965 86.6089 93.2977L86.8196 94.0451Z" fill="#2F2E41"/>
<path d="M64.7618 43.1591C66.1131 42.0816 67.6925 41.0901 69.4202 41.1458C71.1478 41.2014 72.8998 42.7613 72.5419 44.4518C75.7153 38.835 80.7663 34.5151 86.8085 32.2502C92.8507 29.9854 99.4978 29.9203 105.583 32.0666C109.877 33.581 114.088 36.6107 115.074 41.0544C115.328 42.1952 115.382 43.4459 116.095 44.3722C116.993 45.5401 118.712 45.8043 120.127 45.3935C120.141 45.3894 120.155 45.3852 120.169 45.381C120.408 45.2994 120.667 45.2913 120.91 45.3579C121.154 45.4246 121.372 45.5627 121.536 45.7546C121.701 45.9465 121.804 46.1832 121.832 46.4342C121.86 46.6851 121.812 46.9388 121.695 47.1624L120.48 49.4275C122.011 49.7688 123.603 49.7349 125.118 49.3289C125.37 49.2629 125.636 49.2763 125.88 49.3675C126.124 49.4586 126.333 49.6229 126.48 49.8378C126.627 50.0527 126.703 50.3078 126.699 50.5679C126.695 50.8281 126.611 51.0807 126.458 51.291C122.451 56.7894 115.758 60.34 108.928 60.2982C104.074 60.2687 99.1692 58.5962 94.4447 59.7121C92.617 60.1438 90.9091 60.9791 89.4464 62.1567C87.9838 63.3343 86.8034 64.8243 85.9919 66.5174C85.1804 68.2105 84.7584 70.0637 84.7569 71.9411C84.7553 73.8185 85.1742 75.6724 85.9829 77.3668C84.5315 75.7799 81.7258 76.1556 80.2412 77.7116C78.7566 79.2675 78.3722 81.5899 78.5218 83.735C78.7506 87.0158 80.0365 90.1072 81.392 93.116C70.0267 92.7583 59.2769 84.7885 55.6585 74.0091C52.0249 63.1845 55.833 50.2794 64.7618 43.1591Z" fill="#3A3A3A"/>
<path opacity="0.2" d="M48.297 148.851L55.7907 189.609L60.2871 190L48.297 148.851Z" fill="black"/>
<path opacity="0.2" d="M130.842 145.777L123.348 189.579L118.852 190L130.842 145.777Z" fill="black"/>
<path d="M72.5854 29.4341C71.1486 30.0338 69.6493 29.3765 69.0206 27.8713C68.3822 26.343 68.9784 24.7917 70.4383 24.1823C71.8983 23.5729 73.3708 24.2318 74.0195 25.7847C74.6584 27.3143 74.0687 28.8149 72.5854 29.4341ZM69.8331 21.1742L68.6907 21.6511C68.4053 21.7688 68.0861 21.7751 67.7962 21.6688C67.5063 21.5626 67.267 21.3514 67.1254 21.0772L67.0689 20.9667C65.8396 18.7506 65.6989 16.0572 66.6528 12.9656C67.5364 10.1923 67.9034 8.24181 67.1653 6.47479C66.3119 4.43179 64.4896 3.79181 62.1658 4.71889C61.2645 5.0951 60.9777 5.08911 60.2684 5.79247C60.1142 5.94733 59.9302 6.06954 59.7277 6.15182C59.5251 6.23411 59.3081 6.27477 59.0895 6.27139C58.8781 6.2689 58.6695 6.2239 58.4759 6.13906C58.2824 6.05422 58.1079 5.93128 57.9629 5.77757C57.6835 5.48137 57.527 5.09022 57.5249 4.68313C57.5229 4.27604 57.6754 3.88333 57.9518 3.58432C59.144 2.33678 60.5819 1.34983 62.1748 0.685724C67.1677 -1.39842 69.6812 1.67852 70.8314 4.43209C71.9564 7.12539 71.3236 9.62433 70.3067 12.8607C69.4546 15.5499 69.5043 17.5426 70.4722 19.5239C70.5421 19.6737 70.581 19.8361 70.5865 20.0013C70.5921 20.1665 70.5641 20.3311 70.5045 20.4852C70.4448 20.6393 70.3545 20.7798 70.2392 20.8982C70.1238 21.0166 69.9857 21.1105 69.8331 21.1742L69.8331 21.1742Z" fill="#1DD29B"/>
<path d="M196.614 41.7931H172.349C172.272 41.7936 172.195 41.7789 172.124 41.7497C172.052 41.7206 171.988 41.6777 171.933 41.6233C171.878 41.569 171.835 41.5045 171.805 41.4333C171.775 41.3622 171.76 41.2859 171.76 41.2088C171.76 41.1317 171.775 41.0554 171.805 40.9843C171.835 40.9131 171.878 40.8485 171.933 40.7942C171.988 40.7399 172.052 40.697 172.124 40.6679C172.195 40.6387 172.272 40.624 172.349 40.6245H196.614C196.769 40.6256 196.916 40.6876 197.025 40.797C197.134 40.9065 197.195 41.0545 197.195 41.2088C197.195 41.3631 197.134 41.5111 197.025 41.6205C196.916 41.73 196.769 41.792 196.614 41.7931Z" fill="#1DD29B"/>
<path d="M227.396 41.9879H203.131C203.054 41.9884 202.977 41.9737 202.906 41.9446C202.835 41.9154 202.77 41.8725 202.715 41.8182C202.66 41.7639 202.617 41.6993 202.587 41.6281C202.558 41.557 202.542 41.4807 202.542 41.4036C202.542 41.3266 202.558 41.2503 202.587 41.1791C202.617 41.108 202.66 41.0434 202.715 40.9891C202.77 40.9348 202.835 40.8918 202.906 40.8627C202.977 40.8336 203.054 40.8188 203.131 40.8193H227.396C227.474 40.8188 227.55 40.8336 227.621 40.8627C227.693 40.8918 227.758 40.9348 227.812 40.9891C227.867 41.0434 227.91 41.108 227.94 41.1791C227.97 41.2503 227.985 41.3266 227.985 41.4036C227.985 41.4807 227.97 41.557 227.94 41.6281C227.91 41.6993 227.867 41.7639 227.812 41.8182C227.758 41.8725 227.693 41.9154 227.621 41.9446C227.55 41.9737 227.474 41.9884 227.396 41.9879Z" fill="#1DD29B"/>
<path d="M258.179 42.1827H233.913C233.759 42.1817 233.611 42.1196 233.502 42.0102C233.394 41.9007 233.333 41.7527 233.333 41.5984C233.333 41.4442 233.394 41.2962 233.502 41.1867C233.611 41.0772 233.759 41.0152 233.913 41.0142H258.179C258.256 41.0136 258.332 41.0284 258.404 41.0575C258.475 41.0866 258.54 41.1296 258.595 41.1839C258.649 41.2382 258.693 41.3028 258.722 41.3739C258.752 41.4451 258.767 41.5214 258.767 41.5984C258.767 41.6755 258.752 41.7518 258.722 41.823C258.693 41.8941 258.649 41.9587 258.595 42.013C258.54 42.0673 258.475 42.1102 258.404 42.1394C258.332 42.1685 258.256 42.1832 258.179 42.1827H258.179Z" fill="#1DD29B"/>
<path d="M288.961 42.3773H264.695C264.541 42.3762 264.393 42.3142 264.285 42.2047C264.176 42.0953 264.115 41.9473 264.115 41.793C264.115 41.6387 264.176 41.4907 264.285 41.3813C264.393 41.2718 264.541 41.2098 264.695 41.2087H288.961C289.115 41.2098 289.263 41.2718 289.372 41.3813C289.48 41.4907 289.541 41.6387 289.541 41.793C289.541 41.9473 289.48 42.0953 289.372 42.2047C289.263 42.3142 289.115 42.3762 288.961 42.3773Z" fill="#1DD29B"/>
<path d="M184.428 36.4161C186.919 36.4161 188.938 34.3976 188.938 31.9078C188.938 29.4179 186.919 27.3994 184.428 27.3994C181.937 27.3994 179.918 29.4179 179.918 31.9078C179.918 34.3976 181.937 36.4161 184.428 36.4161Z" fill="#1DD29B"/>
<path d="M215.396 36.4161C217.887 36.4161 219.906 34.3976 219.906 31.9078C219.906 29.4179 217.887 27.3994 215.396 27.3994C212.906 27.3994 210.886 29.4179 210.886 31.9078C210.886 34.3976 212.906 36.4161 215.396 36.4161Z" fill="#1DD29B"/>
<path d="M246.364 36.4161C248.855 36.4161 250.874 34.3976 250.874 31.9078C250.874 29.4179 248.855 27.3994 246.364 27.3994C243.874 27.3994 241.854 29.4179 241.854 31.9078C241.854 34.3976 243.874 36.4161 246.364 36.4161Z" fill="#1DD29B"/>
<path d="M277.333 36.4161C279.823 36.4161 281.842 34.3976 281.842 31.9078C281.842 29.4179 279.823 27.3994 277.333 27.3994C274.842 27.3994 272.823 29.4179 272.823 31.9078C272.823 34.3976 274.842 36.4161 277.333 36.4161Z" fill="#1DD29B"/>
</g>
<defs>
<clipPath id="clip0_240_484">
<rect width="286" height="190" fill="white" transform="translate(22)"/>
</clipPath>
</defs>
</svg>
