<svg width="22" height="23" viewBox="0 0 22 23" fill="none" xmlns="http://www.w3.org/2000/svg">
<path d="M0.593151 10.0039C0.593655 10.0034 0.594158 10.0028 0.594662 10.0023L9.56892 0.620483C9.95144 0.220398 10.46 0 11.001 0C11.542 0 12.0505 0.220222 12.4332 0.620308L21.4028 9.9974C21.4058 10.0006 21.4088 10.0039 21.4118 10.007C22.1974 10.833 22.196 12.1731 21.408 12.997C21.048 13.3736 20.5724 13.5917 20.064 13.6145C20.0434 13.6166 20.0226 13.6176 20.0016 13.6176H19.6439V20.5221C19.6439 21.8884 18.5806 23 17.2734 23H13.7624C13.4066 23 13.1179 22.6984 13.1179 22.3262V16.9131C13.1179 16.2896 12.6328 15.7825 12.0364 15.7825H9.96554C9.36918 15.7825 8.8841 16.2896 8.8841 16.9131V22.3262C8.8841 22.6984 8.59558 23 8.23957 23H4.72856C3.42137 23 2.35806 21.8884 2.35806 20.5221V13.6176H2.02639C1.48559 13.6176 0.977016 13.3974 0.594158 12.9973C-0.194721 12.1721 -0.195057 10.8297 0.593151 10.0039Z" fill="#05CE91"/>
</svg>
