<svg width="21" height="21" viewBox="0 0 21 21" fill="none" xmlns="http://www.w3.org/2000/svg">
<path d="M20.7998 20.134V9.23884L10.837 0.391083L0.289119 9.23884V20.3168C0.289119 20.3168 0.270838 20.9566 0.892375 20.9566L20.032 20.9384C20.8364 20.9201 20.7998 20.134 20.7998 20.134ZM11.2574 11.3777C11.2757 11.012 11.4402 10.6647 11.6961 10.4088L13.835 8.26997L14.2554 8.69042L12.6284 10.3357L13.0489 10.7561L14.6759 9.12916L15.0963 9.54961L13.4693 11.1766L13.8898 11.597L15.5168 9.97006L15.9372 10.3905L13.835 12.5293C13.579 12.7853 13.2317 12.9498 12.8661 12.9681C12.7747 12.9681 12.6833 12.9863 12.5919 13.0229L11.2026 11.6336C11.2391 11.5605 11.2574 11.4691 11.2574 11.3777ZM7.2357 18.2877C6.87009 18.6533 6.28512 18.6167 5.95607 18.2877C5.60874 17.9403 5.60874 17.3554 5.95607 17.008L8.84439 14.1197L10.124 15.3994L7.2357 18.2877ZM15.6996 18.2877C15.334 18.6533 14.7673 18.635 14.4199 18.2877L11.0198 14.4853L10.5262 14.9789L6.85181 11.2863C6.50448 10.9389 6.3034 10.4819 6.26684 9.9335C6.23028 9.4582 6.32168 8.94635 6.50448 8.4345L6.57761 8.25169H6.94322L11.6779 12.9681L15.7178 17.008C16.0652 17.3737 16.0652 17.9403 15.6996 18.2877Z" fill="#05CE91"/>
</svg>
