<svg xmlns="http://www.w3.org/2000/svg" viewBox="0 0 48 48"><defs><linearGradient id="a" x1="23.984" x2="23.984" y1="43.002" y2="5" gradientUnits="userSpaceOnUse"><stop offset="0" stop-color="#39b54a"/><stop offset="1" stop-color="#00c0e8"/></linearGradient></defs><path fill="url(#a)" d="M29.34015,18.29c-.22,7.05-10.45,7.05-10.68005,0C18.88013,11.23,29.12012,11.23,29.34015,18.29Zm7.41,11.95a3.51219,3.51219,0,0,1,1.05,2.51v4.59a1.69859,1.69859,0,0,1-1.7,1.7h-6.44a1.68491,1.68491,0,0,1-1.2-.5c-2.08,2.49-3.68,4.09-3.75,4.17a1.008,1.008,0,0,1-1.42,0c-.54-.54-13.38-13.42-13.38-23.62A14.105,14.105,0,0,1,24.00013,5c10.97.06,17.29,11.57,12.36,21.35.63.87.45,2.49.47,3.51A.99577.99577,0,0,1,36.75013,30.24Zm-3.85,5.28a1.00016,1.00016,0,0,0,0-2A1.00016,1.00016,0,0,0,32.90015,35.52Zm1.93-7.53a1.78652,1.78652,0,0,0-1.95-1.55,1.78012,1.78012,0,0,0-1.95,1.55v1.27c.38-.11005,2.88-.04,3.32-.05005a3.67582,3.67582,0,0,1,.58.05005ZM24.00013,7a12.09914,12.09914,0,0,0-12.09,12.09c0,8.07,9.41,18.63,12.09,21.47.83-.88,2.32-2.51,3.96-4.57.09-1.71-.44-4.49,1.05-5.75a13.90427,13.90427,0,0,1-.08-2.25c-.09-2.7,3.48-4.44,5.86-3.09C38.74012,16.63,33.15015,7,24.00013,7Z" data-name="location"/></svg>