<svg width="84" height="61" viewBox="0 0 84 61" fill="#000000" xmlns="http://www.w3.org/2000/svg">
<path d="M41.9787 60.9489C30.5337 60.9489 19.0862 60.9515 7.64129 60.9489C3.45275 60.9489 0.128802 57.7686 0.0578098 53.5888C-0.00811149 49.6722 -0.0334658 45.7505 0.0679515 41.8339C0.151621 38.5928 1.79205 36.2448 4.78132 34.9519C5.53435 34.6256 5.7955 34.2486 5.77775 33.4642C5.73464 31.5262 5.73718 29.5881 5.77775 27.65C5.79296 26.9239 5.58252 26.5418 4.87006 26.2331C1.62724 24.8264 0.047668 22.2937 0.0451326 18.7769C0.0425972 15.2372 0.0400617 11.6976 0.0451326 8.15796C0.0502035 3.5076 3.16879 0.155187 7.79595 0.0716927C13.4525 -0.0295121 19.1141 0.0286807 24.7732 0.0590421C26.2666 0.0666325 27.7118 0.42338 28.9694 1.28868C29.4764 1.64037 29.9277 1.63025 30.4957 1.41519C36.6771 -0.930235 42.501 -0.20156 47.9268 3.55567C48.4998 3.95037 48.8522 3.99591 49.4582 3.58097C55.3759 -0.474814 61.7018 -1.20602 68.1393 2.00724C74.7491 5.30651 78.106 10.9158 78.2911 18.2835C78.4179 23.2957 78.3368 28.3104 78.3063 33.3251C78.3013 34.1929 78.5447 34.6154 79.3941 35C82.3402 36.3384 83.9553 38.6586 83.9756 41.9477C83.9984 45.7809 83.9147 49.619 83.9984 53.4497C84.0922 57.7306 80.0431 61.0451 76.4428 60.9995C64.9573 60.8578 53.4667 60.9489 41.9787 60.9489ZM57.3282 37.0772C57.3282 42.3019 57.3256 47.5266 57.3307 52.7488C57.3332 54.6236 58.0305 55.3219 59.9295 55.3245C65.1652 55.3321 70.4034 55.3321 75.6391 55.3245C77.5254 55.3219 78.2455 54.616 78.2531 52.7387C78.2658 49.4951 78.2607 46.2515 78.2556 43.0078C78.2531 40.6447 77.7486 40.1513 75.3424 40.1412C73.058 40.1311 72.5205 39.5947 72.5205 37.2923C72.518 31.0151 72.5636 24.7378 72.5027 18.4606C72.447 12.6717 68.8771 7.94037 63.5096 6.36157C58.2206 4.80555 52.8176 6.92832 49.5926 11.8342C48.8218 13.0057 48.5784 12.993 47.7696 11.7355C43.467 5.03832 34.636 3.89471 28.7919 9.24844C28.3101 9.68868 27.9831 10.7336 27.1413 10.3086C26.4187 9.94423 26.8142 9.00555 26.7838 8.32242C26.7027 6.55133 26.0663 5.86567 24.3092 5.86061C18.9874 5.85049 13.668 5.85049 8.34614 5.86061C6.55359 5.86314 5.87916 6.51844 5.86649 8.28447C5.8462 11.2321 5.85888 14.1796 5.85888 17.1298C5.85888 20.806 5.85888 20.806 9.5099 21.0413C10.7903 21.1248 11.5459 21.7498 11.556 22.9845C11.594 28.0396 11.594 33.0948 11.5585 38.15C11.5509 39.3822 10.7903 40.0451 9.53526 40.1286C9.07381 40.1589 8.60729 40.1336 8.14331 40.1412C6.54598 40.169 5.88423 40.7712 5.87156 42.3475C5.84367 45.9276 5.84367 49.5103 5.87156 53.0904C5.88423 54.5831 6.6474 55.2815 8.1712 55.3245C8.2143 55.3245 8.25487 55.3245 8.29797 55.3245C14.2512 55.3245 20.2069 55.3295 26.1601 55.3219C27.7067 55.3194 28.6043 54.6666 28.6195 53.3915C28.6626 49.6013 28.655 45.8087 28.622 42.016C28.6119 40.9559 27.9881 40.3284 26.9182 40.1437C24.6135 39.744 23.8909 38.9015 23.8858 36.5839C23.8782 31.4022 23.8833 26.2205 23.8858 21.0388C23.8858 20.7023 23.8782 20.3607 23.9365 20.0318C24.0227 19.5283 24.3042 19.1817 24.867 19.1792C25.4857 19.1766 25.7899 19.5384 25.8609 20.1077C25.9015 20.4392 25.8863 20.7807 25.8863 21.1172C25.8888 24.9099 25.8863 28.7 25.8888 32.4927C25.8888 32.7887 25.8888 33.0822 25.8989 33.3782C25.9192 33.9374 26.2615 34.2486 26.7737 34.2713C27.3163 34.2966 27.623 33.9348 27.6788 33.4086C27.7194 33.0341 27.7169 32.6521 27.7169 32.2725C27.7194 28.3964 27.7169 24.5203 27.7219 20.6441C27.7219 19.9458 27.7422 19.1918 28.7006 19.1918C29.6412 19.1918 29.692 19.9104 29.692 20.6289C29.6869 24.5051 29.6894 28.3812 29.692 32.2574C29.692 32.5939 29.6894 32.9304 29.6996 33.2694C29.7173 33.8564 30.0038 34.2637 30.6072 34.2663C31.231 34.2688 31.4769 33.8362 31.4896 33.2542C31.4972 32.9177 31.4997 32.5812 31.5023 32.2422C31.5023 28.4495 31.4997 24.6594 31.5073 20.8668C31.5099 20.1077 31.4338 19.1792 32.5367 19.1994C33.6396 19.2196 33.5103 20.1634 33.5129 20.9098C33.5205 24.7024 33.5154 28.4925 33.5179 32.2852C33.5179 32.6217 33.5129 32.9607 33.5281 33.2972C33.556 33.8817 33.8349 34.2789 34.456 34.2637C35.0113 34.2511 35.2699 33.8716 35.3079 33.3478C35.3358 32.9709 35.3384 32.5913 35.3384 32.2118C35.3409 28.3787 35.3384 24.543 35.3434 20.7099C35.3434 19.9711 35.3586 19.1463 36.3906 19.1918C37.3084 19.2323 37.3338 20.0015 37.3338 20.6998C37.3363 26.1345 37.349 31.5692 37.3261 37.0039C37.3185 38.8888 36.3956 39.8756 34.5422 40.1311C33.1604 40.3209 32.5443 40.9053 32.5342 42.2488C32.5012 45.8719 32.5012 49.4951 32.5342 53.1182C32.5469 54.5174 33.3582 55.3093 34.7603 55.3144C40.2495 55.3346 45.7387 55.3371 51.2305 55.3144C52.6554 55.3093 53.4338 54.5376 53.4439 53.1157C53.4718 49.4925 53.4616 45.8694 53.449 42.2463C53.4439 41.0824 52.8683 40.3664 51.6818 40.1412C50.054 39.83 49.6433 39.324 49.6382 37.6566C49.6281 35.0456 49.5976 32.4319 49.6458 29.8209C49.7117 26.0965 51.0175 22.8377 53.5022 20.0521C54.1766 19.2956 54.917 18.6554 56.0224 19.0628C57.1634 19.4853 57.3485 20.4341 57.3434 21.5296C57.3155 26.7139 57.3282 31.8956 57.3282 37.0772Z" fill="#000000"/>
</svg>
