<svg width="222" height="174" viewBox="0 0 222 174" fill="none" xmlns="http://www.w3.org/2000/svg">
<path d="M202.078 158.844C197.822 163.392 192.946 167.32 187.593 170.51C187.47 170.585 187.345 170.656 187.22 170.729L178.553 163.072C178.645 162.988 178.745 162.893 178.854 162.789C185.311 156.667 217.369 113.869 219.505 103.447C219.357 104.316 221.432 138.365 202.078 158.844Z" fill="#F0F0F0"/>
<path d="M189.265 171.988C189.101 172.027 188.934 172.063 188.767 172.096L182.265 166.352C182.392 166.307 182.541 166.255 182.711 166.197C185.5 165.21 193.809 162.234 202.077 158.843C210.962 155.198 219.804 151.08 221.706 148.442C221.298 149.055 208.732 167.642 189.265 171.988Z" fill="#F0F0F0"/>
<path d="M201.958 45.5702H201.032V20.2485C201.032 18.3239 200.652 16.4182 199.914 14.6401C199.177 12.862 198.095 11.2464 196.732 9.88552C195.369 8.52463 193.75 7.44511 191.969 6.7086C190.188 5.97209 188.279 5.59302 186.351 5.59302H132.612C130.684 5.59301 128.775 5.97208 126.994 6.70859C125.213 7.44509 123.595 8.5246 122.231 9.88549C120.868 11.2464 119.787 12.862 119.049 14.6401C118.311 16.4181 117.932 18.3239 117.932 20.2485V159.165C117.932 161.09 118.311 162.995 119.049 164.774C119.787 166.552 120.868 168.167 122.231 169.528C123.595 170.889 125.213 171.969 126.994 172.705C128.775 173.442 130.684 173.821 132.612 173.821H186.351C188.279 173.821 190.188 173.442 191.969 172.705C193.75 171.969 195.369 170.889 196.732 169.528C198.095 168.167 199.177 166.552 199.914 164.774C200.652 162.995 201.032 161.09 201.032 159.165V63.5946H201.958V45.5702Z" fill="#3A3A3A"/>
<path d="M197.907 20.3493V159.064C197.907 160.501 197.623 161.924 197.072 163.252C196.521 164.58 195.713 165.786 194.695 166.803C193.677 167.819 192.468 168.625 191.138 169.174C189.808 169.724 188.382 170.007 186.942 170.006H132.944C131.505 170.006 130.079 169.723 128.75 169.173C127.42 168.623 126.211 167.817 125.193 166.801C124.176 165.785 123.368 164.579 122.817 163.251C122.266 161.924 121.983 160.501 121.983 159.064V20.3493C121.983 18.9123 122.266 17.4893 122.817 16.1617C123.368 14.8341 124.176 13.6278 125.193 12.6117C126.211 11.5956 127.42 10.7896 128.75 10.2397C130.079 9.68983 131.505 9.40687 132.944 9.40698H139.497C139.175 10.1966 139.053 11.0529 139.141 11.9008C139.228 12.7487 139.523 13.562 140 14.2694C140.476 14.9767 141.119 15.5564 141.873 15.9573C142.626 16.3583 143.467 16.5683 144.321 16.5689H175.106C175.961 16.5697 176.802 16.3606 177.556 15.96C178.311 15.5594 178.954 14.9796 179.431 14.2719C179.908 13.5641 180.203 12.7501 180.29 11.9017C180.377 11.0533 180.253 10.1965 179.93 9.40698H186.942C188.382 9.40646 189.808 9.68911 191.138 10.2388C192.468 10.7884 193.677 11.5944 194.695 12.6105C195.713 13.6266 196.521 14.8331 197.072 16.1609C197.623 17.4888 197.907 18.912 197.907 20.3493Z" fill="white"/>
<path d="M181.11 92.4326H133.648C132.816 92.4317 132.019 92.1016 131.431 91.5147C130.844 90.9279 130.513 90.1323 130.512 89.3024V87.7443C130.513 86.9144 130.844 86.1187 131.431 85.5319C132.019 84.945 132.816 84.6149 133.648 84.614H181.11C181.941 84.6149 182.738 84.945 183.326 85.5319C183.914 86.1187 184.245 86.9144 184.246 87.7443V89.3024C184.245 90.1323 183.914 90.9279 183.326 91.5147C182.738 92.1016 181.941 92.4317 181.11 92.4326Z" fill="#F0F0F0"/>
<path d="M181.11 105.863H133.648C132.816 105.863 132.019 105.532 131.431 104.946C130.844 104.359 130.513 103.563 130.512 102.733V101.175C130.513 100.345 130.844 99.5496 131.431 98.9628C132.019 98.3759 132.816 98.0459 133.648 98.0449H181.11C181.941 98.0459 182.738 98.3759 183.326 98.9628C183.914 99.5496 184.245 100.345 184.246 101.175V102.733C184.245 103.563 183.914 104.359 183.326 104.946C182.738 105.532 181.941 105.863 181.11 105.863Z" fill="#F0F0F0"/>
<path d="M183.484 89.4287H136.022C135.149 89.4277 134.312 89.0811 133.695 88.465C133.078 87.8488 132.73 87.0134 132.729 86.142V84.5839C132.73 83.7125 133.078 82.8771 133.695 82.2609C134.312 81.6447 135.149 81.2981 136.022 81.2971H183.484C184.357 81.2981 185.194 81.6447 185.811 82.2609C186.428 82.8771 186.776 83.7125 186.777 84.5839V86.142C186.776 87.0134 186.428 87.8488 185.811 88.465C185.194 89.0811 184.357 89.4277 183.484 89.4287ZM136.022 81.9232C135.315 81.924 134.638 82.2045 134.138 82.7033C133.638 83.2021 133.357 83.8785 133.357 84.5839V86.142C133.357 86.8474 133.638 87.5237 134.138 88.0225C134.638 88.5213 135.315 88.8019 136.022 88.8027H183.484C184.191 88.8019 184.868 88.5213 185.368 88.0225C185.868 87.5237 186.149 86.8474 186.15 86.142V84.5839C186.149 83.8785 185.868 83.2021 185.368 82.7033C184.868 82.2045 184.191 81.924 183.484 81.9232H136.022Z" fill="#3F3D56"/>
<path d="M183.484 102.86H136.022C135.149 102.859 134.312 102.512 133.695 101.896C133.078 101.28 132.73 100.444 132.729 99.5729V98.0148C132.73 97.1434 133.078 96.308 133.695 95.6918C134.312 95.0756 135.149 94.729 136.022 94.728H183.484C184.357 94.729 185.194 95.0756 185.811 95.6918C186.428 96.308 186.776 97.1434 186.777 98.0148V99.5729C186.776 100.444 186.428 101.28 185.811 101.896C185.194 102.512 184.357 102.859 183.484 102.86ZM136.022 95.3541C135.315 95.3549 134.638 95.6354 134.138 96.1342C133.638 96.6331 133.357 97.3094 133.357 98.0148V99.5729C133.357 100.278 133.638 100.955 134.138 101.453C134.638 101.952 135.315 102.233 136.022 102.234H183.484C184.191 102.233 184.868 101.952 185.368 101.453C185.868 100.955 186.149 100.278 186.15 99.5729V98.0148C186.149 97.3094 185.868 96.6331 185.368 96.1342C184.868 95.6354 184.191 95.3549 183.484 95.3541H136.022Z" fill="#3F3D56"/>
<path d="M197.907 20.3493V50.5216C193.105 51.7829 188.076 51.9276 183.209 50.9446C178.342 49.9616 173.765 47.877 169.832 44.8513C165.898 41.8256 162.712 37.9394 160.519 33.4917C158.326 29.0439 157.184 24.1532 157.181 19.1958C157.181 18.311 157.217 17.4353 157.288 16.5689H175.106C175.961 16.5697 176.802 16.3606 177.556 15.96C178.311 15.5594 178.955 14.9796 179.431 14.2719C179.908 13.5641 180.203 12.7501 180.29 11.9017C180.377 11.0533 180.253 10.1965 179.93 9.40698H186.942C188.382 9.40646 189.808 9.68911 191.138 10.2388C192.468 10.7884 193.677 11.5944 194.695 12.6105C195.713 13.6266 196.521 14.8331 197.072 16.1609C197.623 17.4888 197.907 18.912 197.907 20.3493Z" fill="#F0F0F0"/>
<path d="M149.267 168.122C149.267 168.758 149.243 169.386 149.192 170.006H132.944C131.505 170.006 130.079 169.723 128.75 169.173C127.42 168.623 126.211 167.817 125.193 166.801C124.176 165.785 123.368 164.579 122.817 163.251C122.266 161.924 121.983 160.501 121.983 159.064V144.226C125.389 143.784 128.85 144.072 132.136 145.07C135.421 146.068 138.456 147.754 141.038 150.015C143.619 152.276 145.689 155.06 147.108 158.183C148.527 161.305 149.263 164.693 149.267 168.122H149.267Z" fill="#05CE91"/>
<path d="M221.686 174H0.313559C0.230398 174 0.150643 173.967 0.0918392 173.908C0.0330354 173.85 0 173.77 0 173.687C0 173.604 0.0330354 173.524 0.0918392 173.466C0.150643 173.407 0.230398 173.374 0.313559 173.374H221.686C221.77 173.374 221.849 173.407 221.908 173.466C221.967 173.524 222 173.604 222 173.687C222 173.77 221.967 173.85 221.908 173.908C221.849 173.967 221.77 174 221.686 174Z" fill="#EBEBEB"/>
<path d="M167.656 122.06H145.123C144.292 122.059 143.495 121.729 142.907 121.142C142.319 120.555 141.989 119.759 141.988 118.93V117.371C141.989 116.542 142.319 115.746 142.907 115.159C143.495 114.572 144.292 114.242 145.123 114.241H167.656C168.488 114.242 169.285 114.572 169.873 115.159C170.46 115.746 170.791 116.542 170.792 117.371V118.93C170.791 119.759 170.46 120.555 169.873 121.142C169.285 121.729 168.488 122.059 167.656 122.06Z" fill="#05CE91"/>
<path d="M170.031 119.056H147.497C146.625 119.055 145.788 118.708 145.17 118.092C144.553 117.476 144.206 116.641 144.205 115.769V114.211C144.206 113.34 144.553 112.504 145.17 111.888C145.788 111.272 146.625 110.925 147.497 110.924H170.031C170.903 110.925 171.74 111.272 172.357 111.888C172.975 112.504 173.322 113.34 173.323 114.211V115.769C173.322 116.641 172.975 117.476 172.357 118.092C171.74 118.708 170.903 119.055 170.031 119.056ZM147.497 111.55C146.791 111.551 146.113 111.832 145.614 112.331C145.114 112.829 144.833 113.506 144.832 114.211V115.769C144.833 116.475 145.114 117.151 145.614 117.65C146.113 118.149 146.791 118.429 147.497 118.43H170.031C170.737 118.429 171.415 118.149 171.914 117.65C172.414 117.151 172.695 116.475 172.696 115.769V114.211C172.695 113.506 172.414 112.829 171.914 112.331C171.415 111.832 170.737 111.551 170.031 111.55H147.497Z" fill="#3F3D56"/>
<path d="M116.541 66.2593C116.784 66.9393 116.75 67.6876 116.447 68.343C116.143 68.9983 115.594 69.5081 114.917 69.7625C114.767 69.8184 114.613 69.8608 114.456 69.8895L112.892 79.4565L109.223 76.0724L111.271 67.5062C111.195 66.7843 111.407 66.0617 111.86 65.4945C112.313 64.9273 112.972 64.5611 113.693 64.475C114.3 64.4055 114.912 64.5443 115.43 64.8685C115.947 65.1928 116.339 65.6832 116.541 66.2593L116.541 66.2593Z" fill="#FFB6B6"/>
<path d="M89.467 87.9371C89.467 87.9371 92.3143 84.1786 102.646 84.2816L108.511 82.1528L109.851 69.8782L114.542 70.994L113.872 86.1699L103.82 91.9724L90.6406 94.6505L89.467 87.9371Z" fill="#05CE91"/>
<path d="M73.5908 164.471L76.2975 165.623L82.0345 155.741L78.0398 154.041L73.5908 164.471Z" fill="#FFB6B6"/>
<path d="M95.957 167.03L98.8988 167.03L100.299 155.692L95.9563 155.692L95.957 167.03Z" fill="#FFB6B6"/>
<path d="M95.8537 170.096L104.901 170.096V169.982C104.901 169.049 104.53 168.154 103.869 167.494C103.209 166.834 102.313 166.464 101.379 166.464H101.379L99.7266 165.211L96.6433 166.464L95.8535 166.464L95.8537 170.096Z" fill="#3A3A3A"/>
<path d="M71.9451 166.434L80.268 169.977L80.3128 169.872C80.6789 169.014 80.6888 168.045 80.3402 167.18C79.9916 166.314 79.3131 165.622 78.454 165.256L78.4538 165.256L77.4251 163.457L74.097 163.401L73.3705 163.092L71.9451 166.434Z" fill="#3A3A3A"/>
<path d="M98.843 113.708L103.314 134.967L102.097 138.135L103.694 140.378L101.349 160.083L102.301 161.719L99.6417 163H94.2302L93.943 145.161L92.6062 142.542V141.099L89.885 130.221L89.384 142.664L88.5924 145.287L89.2573 147.155L88.3885 148.463L80.9431 160.946H74.875L75.3443 158.123C74.2571 157.694 76.9766 156.437 77.2379 155.508L76.3444 153.938L77.2379 150.973L78.0572 145.179L77.1932 132.949L77.5998 116.48L84.6983 112.241L98.843 113.708Z" fill="#05CE91"/>
<path d="M87.9543 80.1072C91.3411 80.1072 94.0866 77.3642 94.0866 73.9805C94.0866 70.5968 91.3411 67.8538 87.9543 67.8538C84.5675 67.8538 81.822 70.5968 81.822 73.9805C81.822 77.3642 84.5675 80.1072 87.9543 80.1072Z" fill="#FFB6B6"/>
<path d="M78.6749 117.551C78.695 117.372 78.7167 117.182 78.7401 116.979L79.1779 114.21L79.2038 114.046L79.1752 113.882L78.7447 111.418L78.6902 111.107L78.4664 110.883L78.4504 110.867L78.906 110.412L79.2567 110.061L79.1903 109.57L78.4771 104.297L78.4735 104.271L78.4686 104.245L76.53 94.0143C76.53 94.0142 76.5299 94.0141 76.5299 94.014C76.2376 92.4652 76.4648 90.8633 77.1765 89.4565C77.8882 88.0497 79.0448 86.9165 80.4669 86.233L80.6029 86.1677L80.7135 86.0652L84.2458 82.7918L90.3848 82.7459L92.3288 85.2707L92.5134 85.5104L92.7998 85.6076L98.0307 87.3829L97.0815 107.004L97.0703 107.235L97.1613 107.447L97.5757 108.413C97.4741 108.512 97.3744 108.613 97.2986 108.696L97.2579 108.741L97.223 108.791C97.0493 109.037 97.0261 109.301 97.0203 109.367L97.0198 109.372C97.0098 109.483 97.012 109.593 97.0169 109.683C97.0267 109.867 97.0541 110.08 97.0883 110.294C97.1548 110.708 97.2606 111.205 97.377 111.664L97.5872 113.235L97.3266 113.421L96.4424 114.052L97.1448 114.881L97.9309 115.809L97.9852 116.216C96.2692 115.866 93.0197 115.296 89.5705 115.168C87.0794 115.076 84.4168 115.211 82.1315 115.866C80.8622 116.23 79.6625 116.769 78.6749 117.551Z" fill="#64FCCE" stroke="#05CE91" stroke-width="2"/>
<path d="M81.6514 68.1323C81.9426 67.8578 82.321 67.6943 82.7206 67.6704C83.1172 67.6832 83.5193 68.041 83.4371 68.4288C84.1655 67.1403 85.3248 66.1494 86.7116 65.6298C88.0984 65.1103 89.6241 65.0954 91.0208 65.5877C92.0064 65.9351 92.9729 66.6301 93.1993 67.6495C93.2213 67.9171 93.3012 68.1767 93.4334 68.4105C93.548 68.5355 93.6967 68.6243 93.8611 68.6659C94.0256 68.7075 94.1986 68.7002 94.3589 68.6448L94.3687 68.6419C94.4235 68.6232 94.4828 68.6214 94.5387 68.6367C94.5946 68.6519 94.6447 68.6836 94.6824 68.7276C94.7201 68.7717 94.7437 68.826 94.7502 68.8835C94.7567 68.9411 94.7457 68.9993 94.7188 69.0506L94.4399 69.5702C94.7914 69.6485 95.1567 69.6407 95.5046 69.5476C95.5624 69.5324 95.6234 69.5355 95.6794 69.5564C95.7353 69.5773 95.7834 69.615 95.8171 69.6643C95.8508 69.7136 95.8684 69.7721 95.8675 69.8318C95.8665 69.8915 95.8472 69.9494 95.812 69.9976C95.3485 70.6311 94.7435 71.1478 94.045 71.5065C93.3465 71.8652 92.5739 72.056 91.7886 72.0639C90.6744 72.0571 89.5487 71.6734 88.4643 71.9294C88.0448 72.0284 87.6528 72.2201 87.3171 72.4902C86.9814 72.7603 86.7105 73.1021 86.5242 73.4905C86.338 73.8789 86.2411 74.304 86.2407 74.7347C86.2404 75.1653 86.3365 75.5906 86.5221 75.9793C86.189 75.6153 85.5451 75.7014 85.2043 76.0584C85.0474 76.2494 84.9314 76.4707 84.8635 76.7083C84.7956 76.946 84.7773 77.1951 84.8097 77.4401C84.9006 78.1906 85.1236 78.9192 85.4684 79.592C84.1509 79.5516 82.8775 79.108 81.8202 78.3213C80.763 77.5347 79.9729 76.4428 79.5567 75.1931C79.1405 73.9435 79.1182 72.5963 79.4928 71.3336C79.8674 70.0709 80.6209 68.9535 81.6514 68.1323V68.1323Z" fill="#3A3A3A"/>
<path d="M96.1405 117.479C95.4177 117.49 94.7195 117.217 94.1964 116.719C93.6734 116.22 93.3673 115.537 93.3443 114.815C93.3396 114.655 93.3491 114.496 93.3726 114.338L84.8115 109.776L89.2002 107.396L96.6571 112.093C97.3655 112.254 97.982 112.687 98.3734 113.299C98.7648 113.91 98.8996 114.651 98.7487 115.361C98.619 115.957 98.2902 116.492 97.8162 116.877C97.3422 117.262 96.7513 117.474 96.1405 117.479L96.1405 117.479Z" fill="#FFB6B6"/>
<path d="M92.3438 114.201L78.0372 108.621L75.7627 97.1664L76.6073 90.5803C76.7219 89.6867 77.0146 88.8252 77.4682 88.0466C77.9217 87.268 78.5269 86.5882 79.2479 86.0472C79.9689 85.5063 80.7911 85.1152 81.666 84.8972C82.5409 84.6791 83.4506 84.6385 84.3414 84.7778L84.3894 84.7853L84.4167 84.8255C84.5259 84.9867 87.0495 88.8825 83.6534 98.5487L83.7789 104.692L95.0292 109.939L92.3438 114.201Z" fill="#05CE91"/>
<path d="M90.6844 93.9615C89.7578 93.9615 88.831 93.9617 87.9043 93.9615C87.5652 93.9615 87.2961 93.6956 87.2903 93.346C87.285 93.0185 87.2829 92.6906 87.2911 92.3631C87.2979 92.0921 87.4307 91.8958 87.6728 91.7876C87.7337 91.7604 87.7549 91.7288 87.7534 91.6632C87.7499 91.5012 87.7502 91.3391 87.7534 91.1771C87.7547 91.1163 87.7376 91.0844 87.6799 91.0586C87.4174 90.941 87.2895 90.7292 87.2893 90.4351C87.2891 90.1391 87.2889 89.8431 87.2893 89.5472C87.2897 89.1583 87.5422 88.878 87.9168 88.871C88.3748 88.8625 88.8332 88.8674 89.2914 88.8699C89.4123 88.8706 89.5293 88.9004 89.6311 88.9727C89.6722 89.0022 89.7087 89.0013 89.7547 88.9833C90.2552 88.7872 90.7267 88.8481 91.166 89.1623C91.2124 89.1953 91.2409 89.1991 91.29 89.1644C91.7691 88.8253 92.2813 88.7641 92.8025 89.0328C93.3377 89.3087 93.6095 89.7778 93.6245 90.3938C93.6347 90.813 93.6281 91.2323 93.6257 91.6516C93.6253 91.7242 93.645 91.7595 93.7138 91.7917C93.9523 91.9036 94.0831 92.0976 94.0847 92.3726C94.0865 92.6931 94.0798 93.0141 94.0865 93.3344C94.0941 93.6924 93.7663 93.9695 93.4748 93.9657C92.5449 93.9539 91.6146 93.9615 90.6844 93.9615ZM91.9272 91.9654C91.9272 92.4022 91.927 92.8391 91.9274 93.2758C91.9276 93.4326 91.9841 93.491 92.1378 93.4912C92.5617 93.4918 92.9858 93.4918 93.4097 93.4912C93.5625 93.491 93.6208 93.4319 93.6214 93.275C93.6224 93.0037 93.622 92.7325 93.6216 92.4613C93.6214 92.2637 93.5805 92.2224 93.3857 92.2216C93.2008 92.2207 93.1572 92.1759 93.1572 91.9833C93.157 91.4584 93.1607 90.9335 93.1558 90.4087C93.1513 89.9246 92.8622 89.529 92.4277 89.3969C91.9995 89.2668 91.562 89.4443 91.3009 89.8546C91.2385 89.9525 91.2188 89.9515 91.1533 89.8463C90.8049 89.2863 90.0899 89.1907 89.6168 89.6383C89.5778 89.6751 89.5513 89.7625 89.4831 89.727C89.4246 89.6965 89.4566 89.618 89.4542 89.5609C89.4476 89.4128 89.3961 89.3555 89.2538 89.355C88.8229 89.3542 88.3923 89.3542 87.9614 89.355C87.8163 89.3553 87.7616 89.4101 87.7606 89.5577C87.759 89.8042 87.76 90.0507 87.76 90.2974C87.76 90.6048 87.76 90.6048 88.0556 90.6244C88.1593 90.6314 88.2205 90.6837 88.2213 90.7869C88.2244 91.2096 88.2244 91.6324 88.2215 92.0551C88.2209 92.1581 88.1593 92.2135 88.0577 92.2205C88.0203 92.223 87.9825 92.2209 87.945 92.2216C87.8156 92.2239 87.7621 92.2742 87.761 92.4061C87.7588 92.7054 87.7588 93.005 87.761 93.3044C87.7621 93.4292 87.8238 93.4876 87.9472 93.4912C87.9507 93.4912 87.954 93.4912 87.9575 93.4912C88.4395 93.4912 88.9217 93.4916 89.4037 93.491C89.5289 93.4908 89.6016 93.4362 89.6028 93.3295C89.6063 93.0126 89.6057 92.6955 89.603 92.3783C89.6022 92.2897 89.5517 92.2372 89.4651 92.2218C89.2785 92.1883 89.22 92.1179 89.2195 91.9241C89.2189 91.4908 89.2193 91.0575 89.2195 90.6242C89.2195 90.5961 89.2189 90.5675 89.2237 90.54C89.2306 90.4979 89.2534 90.4689 89.299 90.4687C89.3491 90.4685 89.3737 90.4988 89.3795 90.5464C89.3827 90.5741 89.3815 90.6027 89.3815 90.6308C89.3817 90.9479 89.3815 91.2649 89.3817 91.582C89.3817 91.6068 89.3817 91.6313 89.3825 91.656C89.3842 91.7028 89.4119 91.7288 89.4534 91.7307C89.4973 91.7328 89.5221 91.7026 89.5266 91.6586C89.5299 91.6273 89.5297 91.5953 89.5297 91.5636C89.5299 91.2395 89.5297 90.9154 89.5301 90.5912C89.5301 90.5328 89.5318 90.4698 89.6094 90.4698C89.6855 90.4698 89.6896 90.5299 89.6896 90.59C89.6892 90.9141 89.6894 91.2382 89.6896 91.5623C89.6896 91.5905 89.6894 91.6186 89.6903 91.647C89.6917 91.696 89.7149 91.7301 89.7637 91.7303C89.8142 91.7305 89.8342 91.6943 89.8352 91.6457C89.8358 91.6175 89.836 91.5894 89.8362 91.5611C89.8362 91.2439 89.836 90.927 89.8366 90.6099C89.8368 90.5464 89.8307 90.4687 89.92 90.4704C90.0093 90.4721 89.9988 90.551 89.999 90.6134C89.9996 90.9306 89.9992 91.2475 89.9994 91.5647C89.9994 91.5928 89.999 91.6211 90.0002 91.6493C90.0025 91.6981 90.0251 91.7314 90.0754 91.7301C90.1203 91.729 90.1413 91.6973 90.1443 91.6535C90.1466 91.622 90.1468 91.5903 90.1468 91.5585C90.147 91.238 90.1468 90.9173 90.1472 90.5967C90.1472 90.535 90.1484 90.466 90.232 90.4698C90.3063 90.4732 90.3084 90.5375 90.3084 90.5959C90.3086 91.0503 90.3096 91.5048 90.3077 91.9592C90.3071 92.1168 90.2324 92.1994 90.0823 92.2207C89.9705 92.2366 89.9206 92.2855 89.9198 92.3978C89.9171 92.7008 89.9171 93.0037 89.9198 93.3067C89.9208 93.4237 89.9865 93.4899 90.1 93.4903C90.5444 93.492 90.9889 93.4922 91.4335 93.4903C91.5489 93.4899 91.6119 93.4254 91.6127 93.3065C91.615 93.0035 91.6141 92.7006 91.6131 92.3976C91.6127 92.3003 91.5661 92.2404 91.47 92.2216C91.3382 92.1955 91.305 92.1532 91.3046 92.0138C91.3038 91.7955 91.3013 91.5769 91.3052 91.3586C91.3105 91.0472 91.4163 90.7747 91.6174 90.5417C91.672 90.4785 91.732 90.4249 91.8215 90.459C91.9139 90.4943 91.9288 90.5737 91.9284 90.6653C91.9262 91.0988 91.9272 91.5321 91.9272 91.9654Z" fill="url(#paint0_linear_108_672)"/>
<defs>
<linearGradient id="paint0_linear_108_672" x1="87.5285" y1="88.865" x2="93.8438" y2="93.7229" gradientUnits="userSpaceOnUse">
<stop stop-color="#05CE91"/>
<stop offset="1" stop-color="#2AD5A1"/>
</linearGradient>
</defs>
</svg>
