<svg width="234" height="207" viewBox="0 0 234 207" fill="none" xmlns="http://www.w3.org/2000/svg">
<path fill-rule="evenodd" clip-rule="evenodd" d="M130.618 16.9486C130.618 25.5406 123.776 32.5065 115.334 32.5065C106.893 32.5065 100.05 25.5406 100.05 16.9486C100.05 8.35697 106.893 1.39148 115.334 1.39148C123.776 1.39148 130.618 8.35697 130.618 16.9486ZM229.614 47.9878C235.006 47.9878 232.483 39.2846 225.652 41.3634C225.274 29.2791 205.923 20.4374 197.922 36.7362C195.659 34.9141 190.579 38.3558 191.704 41.3634C189.191 41.5816 187.214 41.8772 185.676 42.2693C182.125 43.1743 182.828 47.947 186.489 47.9135L229.614 47.9878ZM128.028 47.9878C122.929 47.9878 125.314 39.7579 131.774 41.7236C132.131 30.2966 150.43 21.9356 157.996 37.348C160.136 35.625 164.94 38.8797 163.876 41.7236C166.252 41.9297 168.121 42.2098 169.576 42.58C172.934 43.4361 172.269 47.9493 168.808 47.9178L128.028 47.9878ZM190.012 17.8603C187.583 17.8603 188.719 13.9386 191.797 14.8752C191.967 9.43005 200.687 5.44616 204.292 12.7901C205.312 11.969 207.601 13.5201 207.094 14.8752C208.226 14.9736 209.117 15.107 209.81 15.2836C211.411 15.6912 211.094 17.8416 209.444 17.8268L190.012 17.8603ZM168.583 32.3206H182.424C183.662 32.3206 184.195 30.6898 183.182 29.9664L183.139 29.9356C181.697 28.9271 179.805 29.0185 179.805 29.0185C179.805 29.0185 179.535 23.561 174.444 23.561C169.84 23.561 168.005 28.1594 167.343 30.6929C167.128 31.5159 167.746 32.3206 168.583 32.3206ZM18.0417 47.4892H2.75847C1.52123 47.4892 0.987435 45.8584 2.00038 45.1346L2.04356 45.1042C3.48522 44.0953 5.37777 44.1867 5.37777 44.1867C5.37777 44.1867 5.64791 38.7295 10.7394 38.7295C13.2567 38.7295 15.2906 43.1094 15.2906 43.1094C15.2906 43.1094 18.715 43.1094 19.2816 45.8611C19.4532 46.695 18.8789 47.4892 18.0417 47.4892ZM39.5837 48.8419H100.609C106.338 48.8419 106.075 44.016 104.204 42.3342C102.286 40.6104 98.4967 41.3098 98.4967 41.3098C98.4967 41.3098 97.3683 38.0637 93.6551 36.483C90.3702 35.0852 86.9294 35.7503 86.9294 35.7503C86.9294 35.7503 86.9294 33.5224 84.8263 31.6777C82.7228 29.8322 79.9186 30.0119 79.9186 30.0119C79.9186 30.0119 77.9909 17.7269 65.1091 17.7269C52.227 17.7269 50.7376 29.2939 50.7376 29.2939C50.7376 29.2939 47.8455 29.2939 45.7424 31.267C43.639 33.2397 43.3765 35.4811 43.3765 35.4811C43.3765 35.4811 36.3428 34.5115 34.2622 40.7201C33.0227 44.4201 35.5698 48.8419 39.5837 48.8419ZM17.7551 23.5901H36.8827C38.6782 23.5901 38.5956 22.0775 38.0091 21.5501C37.4081 21.0099 36.2205 21.2293 36.2205 21.2293C36.2205 21.2293 35.8667 20.2118 34.7028 19.7163C33.6734 19.2784 32.5947 19.4868 32.5947 19.4868C32.5947 19.4868 32.5947 18.7883 31.9356 18.2099C31.2765 17.6316 30.3973 17.688 30.3973 17.688C30.3973 17.688 29.7932 13.8375 25.7555 13.8375C21.7179 13.8375 21.251 17.4632 21.251 17.4632C21.251 17.4632 20.3446 17.4632 19.6855 18.0816C19.026 18.6996 18.9438 19.4024 18.9438 19.4024C18.9438 19.4024 16.7391 19.0983 16.0873 21.0445C15.6987 22.2043 16.4969 23.5901 17.7551 23.5901Z" fill="white" stroke="#E1E4E5" stroke-width="1.5"/>
<path d="M171.942 68.0294C171.942 68.5606 171.511 68.991 170.979 68.991C170.447 68.991 170.015 68.5606 170.015 68.0294C170.015 67.4982 170.446 67.0678 170.979 67.0678C171.511 67.0668 171.942 67.4973 171.942 68.0294Z" fill="#E1E4E5"/>
<path d="M150.429 85.7486C152.166 85.7486 153.624 84.2816 153.624 82.5446C153.624 80.8076 152.166 79.3496 150.429 79.3496C148.692 79.3496 147.216 80.8076 147.216 82.5446C147.216 84.2816 148.692 85.7486 150.429 85.7486ZM150.429 84.9116C149.196 84.9116 148.152 83.8316 148.152 82.5446C148.152 81.2666 149.196 80.1866 150.429 80.1866C151.662 80.1866 152.697 81.2666 152.697 82.5446C152.697 83.8316 151.662 84.9116 150.429 84.9116ZM156.914 85.7486C158.237 85.7486 159.353 84.6326 159.353 83.3096C159.353 81.9866 158.237 80.8796 156.914 80.8796C155.582 80.8796 154.457 81.9866 154.457 83.3096C154.457 84.6326 155.582 85.7486 156.914 85.7486ZM156.914 84.9746C156.059 84.9746 155.348 84.2186 155.348 83.3096C155.348 82.4096 156.059 81.6536 156.914 81.6536C157.751 81.6536 158.462 82.4096 158.462 83.3096C158.462 84.2186 157.751 84.9746 156.914 84.9746ZM162.979 80.8796C162.259 80.8796 161.683 81.2216 161.323 81.7886V80.9876H160.441V87.1886H161.323V84.8306C161.683 85.4066 162.259 85.7486 162.979 85.7486C164.203 85.7486 165.121 84.7406 165.121 83.3096C165.121 81.8876 164.203 80.8796 162.979 80.8796ZM162.763 84.9746C161.926 84.9746 161.323 84.2816 161.323 83.3096C161.323 82.3376 161.926 81.6536 162.763 81.6536C163.618 81.6536 164.221 82.3376 164.221 83.3096C164.221 84.2816 163.618 84.9746 162.763 84.9746ZM167.879 85.7486C168.896 85.7486 169.643 85.1906 169.643 84.3086C169.643 83.3816 168.824 83.1296 168.059 82.9046C167.276 82.6616 166.988 82.5536 166.988 82.1936C166.988 81.8426 167.348 81.6446 167.807 81.6446C168.212 81.6446 168.68 81.7976 169.13 82.0766L169.526 81.4196C169.022 81.0866 168.41 80.8796 167.807 80.8796C166.817 80.8796 166.106 81.4376 166.115 82.2926C166.115 83.0486 166.646 83.3546 167.717 83.6516C168.293 83.8136 168.77 83.9486 168.77 84.3806C168.77 84.7406 168.41 84.9836 167.888 84.9836C167.339 84.9836 166.808 84.7766 166.313 84.4166L165.89 85.0556C166.448 85.5056 167.195 85.7486 167.879 85.7486ZM171.021 83.7596H171.633L171.858 79.4576H170.805L171.021 83.7596ZM171.318 85.7486C171.642 85.7486 171.903 85.4696 171.903 85.1366C171.903 84.8306 171.642 84.5516 171.318 84.5516C170.976 84.5516 170.715 84.8306 170.715 85.1366C170.715 85.4696 170.976 85.7486 171.318 85.7486Z" fill="#949494"/>
<line x1="15.8995" y1="202.234" x2="218.1" y2="202.234" stroke="#E3E6E7" stroke-width="2" stroke-linecap="round"/>
<path d="M167.619 66.977C164.313 66.4006 160.948 66.8831 157.99 68.4833C158.244 68.5155 158.5 68.5464 158.754 68.5787C155.408 65.9602 150.749 65.482 146.946 67.4062C143.564 69.1186 141.365 72.6907 141.836 76.5082C141.94 76.3287 142.043 76.1478 142.147 75.9683C138.097 78.3903 135.708 83.0676 136.975 87.7476C138.131 92.0195 142.034 95.0825 146.313 95.8399C149.318 96.3714 152.408 95.8833 155.087 94.4163C154.875 94.4178 154.663 94.4178 154.451 94.4192C158.571 96.924 163.817 97.0165 168.05 94.7263C167.838 94.7277 167.626 94.7277 167.414 94.7291C171.2 97.2073 176.413 97.1035 180.022 94.3364C183.243 91.8653 184.551 87.5919 182.884 83.8263C181.906 81.6188 180.005 79.9246 177.808 78.9738C177.913 79.1575 178.019 79.3412 178.124 79.5249C178.121 78.424 178.675 77.3735 178.76 76.2488C178.834 75.3007 178.725 74.3148 178.426 73.4102C177.816 71.5729 176.503 70.1859 174.72 69.4412C173.97 69.1284 173.645 70.35 174.386 70.6585C175.92 71.2994 176.981 72.6795 177.357 74.2783C177.558 75.1282 177.568 76.0272 177.41 76.8869C177.333 77.3034 177.218 77.7143 177.075 78.114C176.891 78.6259 176.857 78.9681 176.858 79.5151C176.858 79.7213 176.973 79.9793 177.174 80.0663C180.573 81.5361 183.038 84.9735 182.219 88.7742C181.47 92.2467 178.328 94.6351 174.911 95.1512C172.516 95.5131 170.064 94.9563 168.044 93.6352C167.855 93.5104 167.599 93.5342 167.408 93.638C163.563 95.7178 158.814 95.5972 155.082 93.3266C154.887 93.2074 154.642 93.2214 154.445 93.3294C150.526 95.4752 145.502 95.262 141.865 92.6212C138.696 90.3197 137.104 86.2932 138.3 82.4996C139.031 80.1743 140.717 78.2964 142.789 77.058C142.959 76.9556 143.128 76.7298 143.101 76.518C142.688 73.1703 144.47 70.1466 147.418 68.5829C150.699 66.8438 154.936 67.186 157.865 69.4762C158.097 69.6572 158.361 69.7175 158.629 69.5716C161.272 68.1425 164.326 67.6783 167.283 68.1944C168.082 68.3332 168.421 67.1173 167.619 66.977Z" fill="#E1E4E5"/>
<path d="M137.369 98.1884C137.33 99.2403 136.529 100.117 135.445 100.12C134.391 100.122 133.513 99.2501 133.51 98.1982C133.503 95.7032 137.278 95.7131 137.369 98.1884C137.399 98.999 138.665 99.0103 138.634 98.1968C138.57 96.4676 137.23 95.0034 135.445 95.0034C133.71 95.0034 132.246 96.4522 132.246 98.187C132.246 99.9149 133.697 101.386 135.435 101.38C137.218 101.375 138.569 99.9345 138.634 98.1968C138.663 97.3848 137.399 97.3778 137.369 98.1884Z" fill="#E1E4E5"/>
<path d="M131.299 104.808C131.256 105.62 130.036 105.636 130.032 104.817C130.028 103.998 131.256 103.996 131.299 104.808C131.343 105.618 132.607 105.629 132.564 104.817C132.509 103.79 131.743 102.921 130.67 102.917C129.636 102.915 128.776 103.782 128.768 104.808C128.759 105.817 129.594 106.661 130.593 106.705C131.69 106.752 132.507 105.867 132.565 104.818C132.608 104.005 131.343 103.999 131.299 104.808Z" fill="#E1E4E5"/>
<path d="M74.523 190.955C74.523 200.036 69.1207 203.207 62.4566 203.207C55.7925 203.207 50.3901 200.036 50.3901 190.955C50.3901 181.874 62.4566 170.322 62.4566 170.322C62.4566 170.322 74.523 181.874 74.523 190.955Z" fill="#05CE91"/>
<path d="M62.1406 194.218L67.2836 184.816L62.1599 193.026L62.2155 189.608L65.7601 182.806L62.2303 188.704L62.3301 182.558L66.1258 177.143L62.3459 181.592L62.4083 170.322L62.0328 184.602L58.1892 178.723L61.9863 185.807L61.6267 192.671L61.6161 192.489L57.1674 186.277L61.6025 193.132L61.5576 193.991L61.5495 194.004L61.5533 194.074L60.6409 203.234H61.8597L62.0061 202.494L66.4304 195.655L62.0171 201.817L62.1406 194.218Z" fill="#3A3A3A"/>
<path d="M130.616 185.305L130.837 171.702L140.043 154.873L130.872 169.568L130.971 163.451L137.315 151.276L130.997 161.833V161.833L131.176 150.832L137.97 141.139L131.204 149.102L131.316 128.931L130.614 155.634L130.672 154.533L123.764 143.968L130.561 156.647L129.917 168.933L129.898 168.607L121.935 157.489L129.874 169.759L129.793 171.296L129.779 171.319L129.786 171.445L128.153 202.615H130.334L130.596 186.515L138.515 174.275L130.616 185.305Z" fill="#3A3A3A"/>
<path d="M107.162 197.274L108.455 198.931C108.455 198.931 108.482 201.257 106.59 201.378C104.697 201.496 100.496 200.124 100.612 198.988C100.729 197.853 101.115 197.274 101.115 197.274H107.162Z" fill="#FFB9B9"/>
<path d="M93.5522 197.149V198.949C93.5522 198.949 92.5904 201.675 91.1301 201.603C89.6698 201.532 87.0179 199.813 87.1659 198.231C87.3138 196.649 87.1581 196.331 87.1581 196.331L93.5522 197.149Z" fill="#FFB9B9"/>
<path d="M107.231 123.478C107.231 123.478 111.351 139.055 110.728 148.403C110.105 157.751 107.585 164.973 107.799 169.649C108.014 174.325 107.219 197.303 107.219 197.303C107.219 197.303 103.644 199.461 101.172 197.303C101.172 197.303 100.763 173.403 100.564 169.06C100.369 164.813 97.5618 147.328 97.5618 147.328C97.5618 147.328 96.0587 164.227 95.2876 168.181C94.5205 172.135 93.5703 198.264 93.5703 198.264C93.5703 198.264 88.4885 200.661 87.2268 198.264C87.2268 198.264 86.5843 171.417 87.2268 168.181C87.8693 164.945 82.8693 144.624 84.0375 136.269C85.2058 127.914 86.3156 124.646 86.3156 124.646L107.231 123.478Z" fill="#09CE92"/>
<path d="M101.115 197.274C101.115 197.274 98.2487 201.007 101.115 202.468C103.981 203.929 110.161 206.697 111.87 206.236C113.576 205.775 110.484 200.221 108.455 198.931C108.455 198.931 106.422 201.085 104.144 200.471C101.87 199.853 100.686 199.235 101.115 197.274Z" fill="#3A3A3A"/>
<path d="M93.5133 198.235C93.5133 198.235 95.1683 201.414 94.7205 202.96C94.2688 204.503 91.5663 207.382 90.6667 206.954C89.7672 206.529 86.9517 203.918 86.5 202.16C86.0483 200.403 86.9439 198.995 87.1737 198.235C87.1737 198.235 88.3224 200.828 90.5888 200.828C92.018 200.828 93.4432 200.063 93.5133 198.235Z" fill="#3A3A3A"/>
<path d="M94.335 71.7577C97.1349 69.1895 102.213 68.3429 106.212 76.9514C108.646 82.1879 111.282 80.1376 113.101 83.0881C114.374 85.1527 113.253 87.8495 114.035 90.0677C115.2 93.3754 119.931 93.1182 119.931 99.187C119.931 106.642 81.9595 110.082 73.3651 101.748C69.8916 98.3833 74.2997 95.8651 75.8963 93.5754C77.232 91.6608 74.806 89.8534 74.806 86.7815C74.806 83.7096 80.6199 80.9092 81.352 79.1946C82.3645 76.8264 81.3403 71.9756 87.1971 70.4397C90.7135 69.5217 94.335 71.7577 94.335 71.7577Z" fill="#3A3A3A"/>
<path d="M94.2883 76.9514C97.6412 76.9514 102.158 79.8519 101.882 85.4563C101.644 90.2535 99.4753 91.6501 98.0851 92.2395L98.786 95.4579L103.973 97.8511L105.531 100.927L96.7533 107.713L87.7812 101.92L88.7353 97.6832L91.9207 94.9542L92.0181 92.3324C92.0181 92.3324 88.3693 89.9749 88.3693 85.8171C88.3732 81.0199 90.8381 76.9514 94.2883 76.9514Z" fill="#FFB9B9"/>
<path d="M93.1512 89.5248C93.0811 89.5248 93.0149 89.4998 92.9682 89.4462C92.8786 89.3533 92.8903 89.2104 92.9916 89.1283C94.5804 87.8531 96.36 87.8567 97.758 89.139C97.8553 89.2283 97.8553 89.3676 97.758 89.4569C97.6606 89.5462 97.5087 89.5462 97.4114 89.4569C95.6902 87.8781 93.9729 88.939 93.3148 89.4676C93.2641 89.5069 93.2096 89.5248 93.1512 89.5248Z" fill="#2D2D2D"/>
<path d="M98.2564 83.5274C98.2564 84.1204 97.9682 84.6026 97.6138 84.6026C97.2595 84.6026 96.9713 84.1204 96.9713 83.5274C96.9713 82.9345 97.2595 82.4523 97.6138 82.4523C97.9682 82.4523 98.2564 82.9345 98.2564 83.5274Z" fill="#2D2D2D"/>
<path d="M93.2096 83.5274C93.2096 84.1204 92.9215 84.6026 92.5671 84.6026C92.2127 84.6026 91.9246 84.1204 91.9246 83.5274C91.9246 82.9345 92.2127 82.4523 92.5671 82.4523C92.9215 82.4523 93.2096 82.9345 93.2096 83.5274Z" fill="#2D2D2D"/>
<path d="M94.2883 76.9514C94.2883 76.9514 95.0827 80.8056 102.739 80.9056L103.28 76.2013L94.5959 74.0546L84.8256 76.5657L85.6239 80.5592C85.6239 80.5592 93.3848 82.8809 94.2883 76.9514Z" fill="#3F3F3F"/>
<path d="M120.06 108.945C120.06 108.945 122.532 108.863 123.081 107.877C123.081 107.877 124.363 108.642 122.684 109.553C121.006 110.464 120.06 108.945 120.06 108.945Z" fill="#FFB9B9"/>
<path d="M117.229 111.932C117.229 111.932 117.992 109.256 119.803 108.97C122.746 108.503 124.546 110.067 125.542 110.067C128.86 110.067 129.639 109.338 130.095 108.631C130.095 108.631 131.446 109.228 129.9 110.335C129.024 110.96 127.817 111.41 124.242 111.492C123 111.521 120.749 112.996 120.024 113.903L117.229 111.932Z" fill="#FFB9B9"/>
<path d="M115.943 112.35L116.59 110.914L122.174 114.236L119.674 116.318L115.943 112.35Z" fill="#4AFFC8"/>
<path d="M71.6361 108.238C71.6361 108.238 69.1633 108.156 68.6142 107.17C68.6142 107.17 67.3331 107.935 69.0114 108.846C70.6898 109.757 71.6361 108.238 71.6361 108.238Z" fill="#FFB9B9"/>
<path d="M75.2187 111.321C75.2187 111.321 74.4554 108.646 72.6446 108.36C69.7007 107.892 67.3292 108.967 66.3478 109.135C64.0503 109.528 62.7302 108.414 62.2746 107.706C62.2746 107.706 60.5144 108.485 62.8587 110.039C63.9413 110.753 64.6344 110.796 68.2131 110.878C69.4554 110.907 71.7062 112.382 72.4305 113.289L75.2187 111.321Z" fill="#FFB9B9"/>
<path d="M76.9087 110.857L75.7911 110.042L71.0792 113.478L73.0886 114.893L76.9087 110.857Z" fill="#4AFFC8"/>
<path d="M95.881 103.327C95.881 103.327 100.425 99.8585 100.126 98.2082C99.8258 96.558 98.786 95.4578 98.786 95.4578L106.263 99.0476C106.263 99.0476 109.662 117.668 106.664 123.448L105.063 126.016C105.063 126.016 97.5944 129.777 87.7774 126.016L85.4603 121.98L83.8599 102.991C83.8599 102.991 84.6465 99.3048 85.0826 99.0298C85.5188 98.7547 91.9168 94.9506 91.9168 94.9506C91.9168 94.9506 91.1574 97.1188 91.8584 99.0476C92.5632 100.977 95.881 103.327 95.881 103.327Z" fill="#64FCCE"/>
<path d="M89.3661 111.203C89.3661 111.203 92.828 113.775 94.9425 113.143C94.9425 113.143 92.5788 114.396 89.8256 113.243C87.0686 112.093 89.3661 111.203 89.3661 111.203Z" fill="#05CE91"/>
<path d="M90.986 113.904L91.7025 117.761L92.2672 124.005L92.6878 127.363C92.6878 127.363 89.9229 127.131 89.4206 126.616C88.9182 126.102 90.986 113.904 90.986 113.904Z" fill="#05CE91"/>
<path d="M101.524 113.614L101.411 116.622V120.783L103.299 126.691C103.299 126.691 104.351 126.588 104.81 126.041C105.262 125.498 101.524 113.614 101.524 113.614Z" fill="#05CE91"/>
<path d="M103.478 111.203C103.478 111.203 100.016 113.775 97.902 113.143C97.902 113.143 100.266 114.396 103.019 113.243C105.776 112.093 103.478 111.203 103.478 111.203Z" fill="#05CE91"/>
<path d="M115.944 133.757C115.492 133.757 110.04 135.693 107.902 135.489C107.902 135.489 102.583 121.851 102.244 119.272C101.905 116.693 99.4909 97.1366 98.7899 95.4578C98.7899 95.4578 110.274 99.1476 111.473 100.901C112.669 102.655 113.611 113.8 113.611 113.8L115.862 111.321L121.15 116.486C121.15 116.486 112.373 121.955 110.912 121.648C109.448 121.337 108.786 120.93 108.786 120.93L115.944 133.757Z" fill="#05CE91"/>
<path d="M91.9245 94.9541C91.9245 94.9541 91.4455 133.246 88.5989 136.275L78.9181 133.453L81.8777 130.11L83.8637 122.38C83.8637 122.38 82.7889 123.005 81.6518 122.694C80.5147 122.38 72.4266 114.964 72.4266 114.964L76.753 110.367L79.3699 112.15C79.3699 112.15 80.3745 104.306 81.3948 101.109C84.2998 98.8369 87.7812 96.9437 91.9245 94.9541Z" fill="#05CE91"/>
<path d="M105.854 105.727C105.854 105.727 107.415 120.48 108.782 120.93C109.07 121.519 109.456 122.137 109.456 122.137L107.528 120.923L106.08 115.618L105.854 105.727Z" fill="#02AD79"/>
<path d="M84.9384 105.727C84.9384 105.727 85.9042 120.48 84.5373 120.93C84.2492 121.519 83.8636 122.137 83.8636 122.137L85.7912 120.923L85.9782 116.686L84.9384 105.727Z" fill="#02AD79"/>
<path d="M103.264 107.711C102.832 107.711 102.4 107.712 101.969 107.711C101.811 107.711 101.686 107.588 101.683 107.425C101.68 107.272 101.68 107.12 101.683 106.967C101.687 106.841 101.748 106.749 101.861 106.699C101.889 106.686 101.899 106.672 101.899 106.641C101.897 106.566 101.897 106.49 101.899 106.415C101.899 106.386 101.891 106.372 101.864 106.359C101.742 106.305 101.683 106.206 101.682 106.069C101.682 105.931 101.682 105.793 101.682 105.656C101.683 105.474 101.8 105.344 101.975 105.341C102.188 105.337 102.402 105.339 102.615 105.34C102.671 105.34 102.726 105.354 102.773 105.388C102.792 105.402 102.809 105.401 102.831 105.393C103.064 105.302 103.283 105.33 103.488 105.476C103.51 105.492 103.523 105.494 103.546 105.477C103.769 105.319 104.007 105.291 104.25 105.416C104.499 105.545 104.626 105.763 104.633 106.05C104.638 106.245 104.635 106.44 104.633 106.636C104.633 106.669 104.642 106.686 104.674 106.701C104.786 106.753 104.846 106.843 104.847 106.971C104.848 107.121 104.845 107.27 104.848 107.419C104.852 107.586 104.699 107.715 104.563 107.713C104.13 107.708 103.697 107.711 103.264 107.711ZM103.842 106.782C103.842 106.985 103.842 107.189 103.843 107.392C103.843 107.465 103.869 107.492 103.941 107.492C104.138 107.493 104.335 107.493 104.533 107.492C104.604 107.492 104.631 107.465 104.631 107.392C104.632 107.265 104.632 107.139 104.632 107.013C104.631 106.921 104.612 106.902 104.522 106.901C104.436 106.901 104.415 106.88 104.415 106.79C104.415 106.546 104.417 106.301 104.415 106.057C104.413 105.831 104.278 105.647 104.076 105.586C103.876 105.525 103.672 105.608 103.551 105.799C103.522 105.844 103.513 105.844 103.482 105.795C103.32 105.534 102.987 105.49 102.766 105.698C102.748 105.715 102.736 105.756 102.704 105.739C102.677 105.725 102.692 105.689 102.691 105.662C102.688 105.593 102.664 105.566 102.597 105.566C102.397 105.566 102.196 105.566 101.995 105.566C101.928 105.566 101.902 105.592 101.902 105.661C101.901 105.775 101.902 105.89 101.902 106.005C101.902 106.148 101.902 106.148 102.039 106.157C102.088 106.161 102.116 106.185 102.117 106.233C102.118 106.43 102.118 106.627 102.117 106.824C102.116 106.872 102.088 106.897 102.04 106.901C102.023 106.902 102.005 106.901 101.988 106.901C101.928 106.902 101.903 106.926 101.902 106.987C101.901 107.126 101.901 107.266 101.902 107.405C101.903 107.464 101.931 107.491 101.989 107.492C101.991 107.492 101.992 107.492 101.994 107.492C102.218 107.492 102.443 107.493 102.667 107.492C102.726 107.492 102.759 107.467 102.76 107.417C102.762 107.27 102.761 107.122 102.76 106.974C102.76 106.933 102.736 106.908 102.696 106.901C102.609 106.886 102.582 106.853 102.581 106.763C102.581 106.561 102.581 106.359 102.581 106.157C102.581 106.144 102.581 106.131 102.583 106.118C102.587 106.098 102.597 106.085 102.618 106.085C102.642 106.085 102.653 106.099 102.656 106.121C102.657 106.134 102.657 106.147 102.657 106.16C102.657 106.308 102.657 106.456 102.657 106.603C102.657 106.615 102.657 106.626 102.657 106.638C102.658 106.66 102.671 106.672 102.69 106.673C102.711 106.674 102.722 106.659 102.724 106.639C102.726 106.624 102.726 106.609 102.726 106.595C102.726 106.444 102.726 106.293 102.726 106.142C102.726 106.115 102.727 106.085 102.763 106.085C102.798 106.085 102.8 106.113 102.8 106.141C102.8 106.292 102.8 106.443 102.8 106.594C102.8 106.607 102.8 106.62 102.801 106.633C102.801 106.656 102.812 106.672 102.835 106.672C102.858 106.672 102.868 106.656 102.868 106.633C102.868 106.62 102.869 106.607 102.869 106.593C102.869 106.446 102.869 106.298 102.869 106.151C102.869 106.121 102.866 106.085 102.908 106.086C102.949 106.086 102.944 106.123 102.944 106.152C102.945 106.3 102.945 106.447 102.945 106.595C102.945 106.608 102.944 106.621 102.945 106.635C102.946 106.657 102.957 106.673 102.98 106.672C103.001 106.672 103.011 106.657 103.012 106.637C103.013 106.622 103.013 106.607 103.013 106.592C103.013 106.443 103.013 106.294 103.013 106.144C103.013 106.116 103.014 106.084 103.053 106.085C103.088 106.087 103.089 106.117 103.089 106.144C103.089 106.356 103.089 106.567 103.088 106.779C103.088 106.852 103.053 106.891 102.983 106.901C102.931 106.908 102.908 106.931 102.908 106.983C102.906 107.124 102.906 107.265 102.908 107.406C102.908 107.461 102.939 107.492 102.991 107.492C103.198 107.493 103.405 107.493 103.613 107.492C103.666 107.492 103.696 107.462 103.696 107.406C103.697 107.265 103.697 107.124 103.696 106.983C103.696 106.938 103.674 106.91 103.63 106.901C103.568 106.889 103.553 106.869 103.552 106.804C103.552 106.703 103.551 106.601 103.553 106.499C103.555 106.354 103.604 106.227 103.698 106.119C103.724 106.089 103.752 106.064 103.793 106.08C103.836 106.097 103.843 106.134 103.843 106.176C103.842 106.378 103.842 106.58 103.842 106.782Z" fill="white"/>
</svg>
