<svg width="306" height="211" viewBox="0 0 306 211" fill="none" xmlns="http://www.w3.org/2000/svg">
<g clip-path="url(#clip0_282_10245)">
<path opacity="0.1" d="M173.083 28.727C153.468 28.7532 134.589 23.1996 116.531 17.0302C98.4725 10.8608 80.5534 3.95229 61.3039 1.02483C48.924 -0.856922 34.8464 -0.683947 25.1691 6.14854C15.854 12.7216 13.1566 23.6006 11.8551 33.6515C10.8763 41.2126 10.425 49.1484 14.0907 56.0648C16.636 60.8661 20.9918 64.8236 24.0618 69.3995C34.7781 85.3184 28.3336 105.653 17.9191 121.942C13.0359 129.584 7.31562 136.909 3.62368 144.989C-0.0682473 153.069 -1.58228 162.232 2.18312 170.207C5.91441 178.111 14.3426 183.848 23.3875 187.766C41.7553 195.739 63.1407 197.448 83.9514 198.106C130.018 199.565 176.174 196.588 222.206 193.611C239.241 192.51 256.352 191.402 273.035 188.212C282.298 186.443 291.836 183.817 298.404 178.062C306.74 170.755 308.446 158.825 302.379 150.249C292.206 135.866 265.381 133.154 258.086 117.591C254.064 109.024 257.533 99.1983 262.641 90.9401C273.599 73.2207 292.46 57.349 292.778 37.5303C292.996 23.9204 283.187 10.6433 268.538 4.72806C253.182 -1.46757 232.245 0.125888 221.487 11.6732C210.424 23.5692 190.401 28.7086 173.083 28.727Z" fill="#06CE91"/>
<path d="M260.437 169.138C260.437 169.138 257.212 167.012 254.016 168.524C254.016 168.524 255 170.417 259.047 170.238L260.437 169.138Z" fill="#06CE91"/>
<path d="M260.847 169.25C260.847 169.25 261.828 172.983 259.367 175.522C259.367 175.522 257.887 173.984 259.367 170.215L260.847 169.25Z" fill="#06CE91"/>
<path d="M264.856 165.668C264.856 165.668 264.617 162.494 257.441 163.547C257.441 163.547 257.407 165.594 259.926 166.564C262.445 167.534 263.599 166.716 264.856 165.668Z" fill="#06CE91"/>
<path d="M265.308 165.646C265.308 165.646 268.341 166.619 265.636 173.341C265.636 173.341 263.633 172.896 263.274 170.22C262.914 167.544 263.98 166.621 265.308 165.646Z" fill="#06CE91"/>
<path d="M269.359 161.144C269.359 161.144 269.771 155.921 262.437 156.455C262.437 156.455 261.912 161.173 268.065 162.399L269.359 161.144Z" fill="#06CE91"/>
<path d="M274.205 155.247C274.205 155.247 273.2 149.327 265.869 151.091C265.869 151.091 265.842 156.209 273.008 156.657L274.205 155.247Z" fill="#06CE91"/>
<path d="M277.748 149.151C277.748 149.151 276.063 143.386 268.8 145.11C268.8 145.11 270.529 150.297 277.265 150.215L277.748 149.151Z" fill="#06CE91"/>
<path d="M281.111 143.197C281.111 143.197 279.466 137.213 272.452 139.003C272.452 139.003 274.793 144.688 280.647 144.208L281.111 143.197Z" fill="#06CE91"/>
<path d="M283.279 137.541C283.279 137.541 282.014 130.224 275.475 131.843C275.475 131.843 277.375 138.5 282.799 138.608L283.279 137.541Z" fill="#06CE91"/>
<path d="M285.313 130.708C285.313 130.708 283.793 123.333 277.178 125.467C277.178 125.467 279.771 132.438 284.843 131.717L285.313 130.708Z" fill="#06CE91"/>
<path d="M286.562 124.35C286.562 124.35 284.15 116.973 279.036 117.172C279.036 117.172 281.5 124.964 286.134 125.821L286.562 124.35Z" fill="#06CE91"/>
<path d="M287.37 118.144C287.37 118.144 284.746 109.265 280.584 109.949C280.584 109.949 282.4 116.737 287.223 119.528L287.37 118.144Z" fill="#06CE91"/>
<path d="M287.826 110.74C287.826 110.74 285.365 103.342 281.266 103.046C281.266 103.046 282.94 110.326 287.745 112.664L287.826 110.74Z" fill="#06CE91"/>
<path d="M288.322 103.832C288.322 103.832 285.255 96.4258 282.55 96.2581C282.55 96.2581 283.883 103.552 288.06 105.048L288.322 103.832Z" fill="#06CE91"/>
<path d="M288.661 97.4057C288.661 97.4057 286.774 89.3624 284.063 88.6941C284.063 88.6941 284.433 95.275 288.388 98.0085L288.661 97.4057Z" fill="#06CE91"/>
<path d="M289.684 88.9877C289.684 88.9877 287.7 82.5745 285.504 81.5969C285.504 81.5969 285.937 89.158 289.178 90.5549L289.684 88.9877Z" fill="#06CE91"/>
<path d="M290.532 83.4837L290.93 72.1775C290.93 72.1775 286.824 80.7004 290.235 85.4677L290.532 83.4837Z" fill="#06CE91"/>
<path d="M293.701 72.2376C293.701 72.2376 296.659 63.982 297.375 63.5208C297.375 63.5208 291.576 68.8777 292.143 75.7679L293.701 72.2376Z" fill="#06CE91"/>
<path d="M269.558 161.105C269.558 161.105 274.759 160.426 274.604 167.767C274.604 167.767 269.905 168.532 268.37 162.46L269.558 161.105Z" fill="#06CE91"/>
<path d="M274.452 155.048C274.452 155.048 280.461 155.03 279.962 162.543C279.962 162.543 274.916 163.445 273.253 156.468L274.452 155.048Z" fill="#06CE91"/>
<path d="M277.805 149.636C277.805 149.636 283.261 147.081 286.75 153.677C286.75 153.677 281.712 155.805 277.323 150.703L277.805 149.636Z" fill="#06CE91"/>
<path d="M281.232 143.252C281.232 143.252 286.819 140.534 290.099 146.976C290.099 146.976 284.279 148.978 280.771 144.271L281.232 143.252Z" fill="#06CE91"/>
<path d="M283.208 137.701C283.208 137.701 288.585 132.572 292.875 137.758C292.875 137.758 287.383 141.981 282.962 138.843L283.208 137.701Z" fill="#06CE91"/>
<path d="M285.008 130.533C285.008 130.533 290.416 125.291 294.672 130.774C294.672 130.774 288.603 135.08 284.814 131.633L285.008 130.533Z" fill="#06CE91"/>
<path d="M286.018 124.14C286.018 124.14 290.185 117.588 295.092 119.051C295.092 119.051 290.768 125.988 286.066 125.679L286.018 124.14Z" fill="#06CE91"/>
<path d="M287.246 118.102C287.246 118.102 291.445 109.852 295.417 111.288C295.417 111.288 292.389 117.631 287.139 119.494L287.246 118.102Z" fill="#06CE91"/>
<path d="M287.538 110.311C287.538 110.311 291.854 103.816 295.897 104.61C295.897 104.61 292.368 111.196 287.118 112.19L287.538 110.311Z" fill="#06CE91"/>
<path d="M287.874 103.688C287.874 103.688 291.219 96.3994 293.938 96.3496C293.938 96.3496 292.332 103.586 288.099 104.925L287.874 103.688Z" fill="#06CE91"/>
<path d="M288.53 97.2485C288.53 97.2485 292.248 89.8683 295.042 89.8525C295.042 89.8525 293.14 96.1635 288.653 97.8959L288.53 97.2485Z" fill="#06CE91"/>
<path d="M289.088 89.4488C289.088 89.4488 291.87 83.3423 294.174 82.6504C294.174 82.6504 292.783 90.0935 289.395 91.0685L289.088 89.4488Z" fill="#06CE91"/>
<path d="M290.862 83.2611L297.078 73.8025C297.078 73.8025 295.486 83.1326 289.954 85.0721L290.862 83.2611Z" fill="#06CE91"/>
<path d="M295.129 73.0007C295.129 73.0007 302.353 68.0211 302.615 67.2166C302.615 67.2166 298.942 74.1905 292.119 75.4223L295.129 73.0007Z" fill="#06CE91"/>
<path d="M295.562 70.7596C295.562 70.7596 303.856 62.7949 305.974 62.8027C305.974 62.8027 299.133 63.1146 295.362 70.335L295.562 70.7596Z" fill="#06CE91"/>
<path d="M289.17 90.6308L289.472 90.6701C291.03 78.4859 293.303 71.276 295.869 70.3928L295.769 70.1045C293.048 71.048 290.76 78.1478 289.17 90.6308Z" fill="#444053"/>
<path d="M286.876 119.769L287.333 119.806C287.43 118.669 287.504 117.505 287.553 116.344C287.989 106.259 288.663 96.997 289.55 90.0544L289.288 89.7268C288.398 96.6851 287.532 106.225 287.097 116.326C287.047 117.479 286.974 118.637 286.876 119.769Z" fill="#444053"/>
<path d="M251.925 174.951C252.004 174.917 260.041 171.331 268.383 162.782C273.27 157.775 277.331 152.025 280.414 145.747C284.271 137.903 286.622 128.263 287.409 118.899L286.934 119.122C285.163 140.141 275.583 154.503 267.966 162.326C259.705 170.799 251.757 174.348 251.679 174.382L251.925 174.951Z" fill="#444053"/>
<path d="M272.736 22.3374H20.6035C20.0078 22.3374 19.4365 22.5738 19.0153 22.9945C18.5941 23.4152 18.3574 23.9858 18.3574 24.5808V31.1172H274.982V24.5808C274.982 23.9858 274.745 23.4152 274.324 22.9945C273.903 22.5738 273.332 22.3374 272.736 22.3374Z" fill="#3A3A3A"/>
<path d="M18.3574 31.1169V178.208C18.3574 179.408 18.8346 180.558 19.6839 181.407C20.5333 182.255 21.6852 182.732 22.8864 182.732H270.453C271.654 182.732 272.806 182.255 273.656 181.407C274.505 180.558 274.982 179.408 274.982 178.208V31.1169H18.3574Z" fill="white"/>
<path opacity="0.8" d="M22.4219 27.7099C23.0016 27.7099 23.4715 27.2406 23.4715 26.6616C23.4715 26.0826 23.0016 25.6133 22.4219 25.6133C21.8422 25.6133 21.3723 26.0826 21.3723 26.6616C21.3723 27.2406 21.8422 27.7099 22.4219 27.7099Z" fill="#FA5959"/>
<path opacity="0.8" d="M25.3081 27.7099C25.8878 27.7099 26.3577 27.2406 26.3577 26.6616C26.3577 26.0826 25.8878 25.6133 25.3081 25.6133C24.7285 25.6133 24.2585 26.0826 24.2585 26.6616C24.2585 27.2406 24.7285 27.7099 25.3081 27.7099Z" fill="#FED253"/>
<path opacity="0.8" d="M28.1946 27.7099C28.7743 27.7099 29.2442 27.2406 29.2442 26.6616C29.2442 26.0826 28.7743 25.6133 28.1946 25.6133C27.6149 25.6133 27.145 26.0826 27.145 26.6616C27.145 27.2406 27.6149 27.7099 28.1946 27.7099Z" fill="#8CCF4D"/>
<path opacity="0.05" d="M248.456 55.6428H42.2119V146.224H248.456V55.6428Z" fill="black"/>
<path d="M246.882 56.3293H43.7861V144.913H246.882V56.3293Z" fill="#1C4E3F"/>
<path d="M99.1521 79.1277C95.156 79.1277 91.2497 80.3112 87.9271 82.5287C84.6044 84.7461 82.0147 87.8979 80.4855 91.5853C78.9563 95.2728 78.5561 99.3304 79.3357 103.245C80.1153 107.16 82.0396 110.755 84.8653 113.578C87.691 116.4 91.2911 118.322 95.2104 119.101C99.1297 119.879 103.192 119.48 106.884 117.952C110.576 116.425 113.732 113.838 115.952 110.52C118.172 107.201 119.357 103.299 119.357 99.308C119.357 96.6579 118.834 94.0337 117.819 91.5853C116.803 89.137 115.315 86.9123 113.439 85.0384C111.563 83.1645 109.335 81.678 106.884 80.6638C104.433 79.6497 101.805 79.1277 99.1521 79.1277ZM102.776 99.7929V109.348H95.6334V99.7929C94.645 99.0456 93.9165 98.0071 93.5508 96.8241C93.1852 95.641 93.2007 94.3731 93.5954 93.1994C93.99 92.0256 94.7437 91.0053 95.7502 90.2825C96.7566 89.5596 97.965 89.1708 99.2046 89.1708C100.444 89.1708 101.653 89.5596 102.659 90.2825C103.666 91.0053 104.419 92.0256 104.814 93.1994C105.208 94.3731 105.224 95.641 104.858 96.8241C104.493 98.0071 103.764 99.0456 102.776 99.7929Z" fill="#06CE91"/>
<path opacity="0.05" d="M99.1521 79.1277C95.156 79.1277 91.2497 80.3112 87.9271 82.5287C84.6044 84.7461 82.0147 87.8979 80.4855 91.5853C78.9563 95.2728 78.5561 99.3304 79.3357 103.245C80.1153 107.16 82.0396 110.755 84.8653 113.578C87.691 116.4 91.2911 118.322 95.2104 119.101C99.1297 119.879 103.192 119.48 106.884 117.952C110.576 116.425 113.732 113.838 115.952 110.52C118.172 107.201 119.357 103.299 119.357 99.308C119.357 96.6579 118.834 94.0337 117.819 91.5853C116.803 89.137 115.315 86.9123 113.439 85.0384C111.563 83.1645 109.335 81.678 106.884 80.6638C104.433 79.6497 101.805 79.1277 99.1521 79.1277ZM102.776 99.7929V109.348H95.6334V99.7929C94.645 99.0456 93.9165 98.0071 93.5508 96.8241C93.1852 95.641 93.2007 94.3731 93.5954 93.1994C93.99 92.0256 94.7437 91.0053 95.7502 90.2825C96.7566 89.5596 97.965 89.1708 99.2046 89.1708C100.444 89.1708 101.653 89.5596 102.659 90.2825C103.666 91.0053 104.419 92.0256 104.814 93.1994C105.208 94.3731 105.224 95.641 104.858 96.8241C104.493 98.0071 103.764 99.0456 102.776 99.7929Z" fill="black"/>
<path d="M99.1522 73.3623C94.0143 73.3623 88.9919 74.884 84.7199 77.735C80.448 80.586 77.1184 84.6383 75.1522 89.3793C73.1861 94.1203 72.6716 99.3372 73.674 104.37C74.6763 109.403 77.1504 114.027 80.7834 117.655C84.4164 121.284 89.0451 123.755 94.0842 124.756C99.1233 125.757 104.347 125.243 109.093 123.28C113.84 121.316 117.897 117.99 120.752 113.723C123.606 109.457 125.129 104.44 125.129 99.3085C125.129 92.4271 122.393 85.8276 117.521 80.9618C112.649 76.0959 106.042 73.3623 99.1522 73.3623ZM103.81 99.9322V112.216H94.6258V99.9322C93.3545 98.9713 92.4175 97.6358 91.9471 96.1143C91.4766 94.5929 91.4965 92.9622 92.0039 91.4526C92.5114 89.9431 93.4807 88.6308 94.7751 87.7011C96.0694 86.7714 97.6235 86.2713 99.2178 86.2713C100.812 86.2713 102.366 86.7714 103.66 87.7011C104.955 88.6308 105.924 89.9431 106.432 91.4526C106.939 92.9622 106.959 94.5929 106.488 96.1143C106.018 97.6358 105.081 98.9713 103.81 99.9322Z" fill="#05CE91"/>
<path d="M219.855 95.9038H135.888V104.815H219.855V95.9038Z" fill="white"/>
<path d="M219.855 112.153H201.75V121.064H219.855V112.153Z" fill="#06CE91"/>
<path d="M144.153 100.226H142.634L143.985 98.8786C144.009 98.8536 144.023 98.8203 144.023 98.7855C144.023 98.7508 144.009 98.7174 143.985 98.6925C143.973 98.6802 143.959 98.6705 143.943 98.6638C143.927 98.6572 143.909 98.6537 143.892 98.6537C143.875 98.6537 143.858 98.6572 143.842 98.6638C143.826 98.6705 143.811 98.6802 143.799 98.6925L142.448 100.042V98.5222C142.448 98.4874 142.434 98.4541 142.409 98.4295C142.385 98.4049 142.351 98.3911 142.316 98.3911C142.282 98.3918 142.249 98.4058 142.224 98.4302C142.2 98.4547 142.186 98.4876 142.185 98.5222V100.042L140.836 98.6846C140.824 98.6724 140.81 98.6626 140.794 98.656C140.778 98.6493 140.761 98.6459 140.743 98.6459C140.726 98.6459 140.709 98.6493 140.693 98.656C140.677 98.6626 140.662 98.6724 140.65 98.6846C140.626 98.7096 140.612 98.743 140.612 98.7777C140.612 98.8124 140.626 98.8458 140.65 98.8707L142.001 100.218H140.48C140.445 100.219 140.412 100.233 140.388 100.257C140.363 100.281 140.349 100.314 140.348 100.349C140.348 100.384 140.362 100.417 140.387 100.442C140.411 100.466 140.445 100.48 140.48 100.48H142.001L140.65 101.83C140.626 101.855 140.612 101.888 140.612 101.923C140.612 101.957 140.626 101.991 140.65 102.016C140.675 102.039 140.709 102.052 140.743 102.052C140.778 102.052 140.811 102.039 140.836 102.016L142.185 100.666V102.183C142.185 102.218 142.199 102.252 142.224 102.276C142.248 102.301 142.282 102.314 142.316 102.314C142.351 102.314 142.385 102.301 142.409 102.276C142.434 102.252 142.448 102.218 142.448 102.183V100.666L143.799 102.016C143.824 102.039 143.857 102.052 143.892 102.052C143.927 102.052 143.96 102.039 143.985 102.016C144.009 101.991 144.023 101.957 144.023 101.923C144.023 101.888 144.009 101.855 143.985 101.83L142.634 100.48H144.153C144.188 100.48 144.221 100.466 144.246 100.442C144.271 100.417 144.284 100.384 144.284 100.349C144.282 100.315 144.268 100.284 144.243 100.261C144.219 100.238 144.187 100.226 144.153 100.226Z" fill="#06CE91"/>
<path d="M149.664 100.226H148.144L149.496 98.8786C149.52 98.8536 149.533 98.8203 149.533 98.7855C149.533 98.7508 149.52 98.7174 149.496 98.6925C149.483 98.6802 149.469 98.6705 149.453 98.6638C149.437 98.6572 149.42 98.6537 149.403 98.6537C149.385 98.6537 149.368 98.6572 149.352 98.6638C149.336 98.6705 149.322 98.6802 149.309 98.6925L147.958 100.042V98.5222C147.958 98.4874 147.944 98.4541 147.92 98.4295C147.895 98.4049 147.862 98.3911 147.827 98.3911C147.792 98.3918 147.759 98.4058 147.735 98.4302C147.71 98.4547 147.696 98.4876 147.696 98.5222V100.042L146.347 98.6846C146.335 98.6724 146.32 98.6626 146.304 98.656C146.288 98.6493 146.271 98.6459 146.254 98.6459C146.236 98.6459 146.219 98.6493 146.203 98.656C146.187 98.6626 146.173 98.6724 146.161 98.6846C146.136 98.7096 146.123 98.743 146.123 98.7777C146.123 98.8124 146.136 98.8458 146.161 98.8707L147.512 100.218H145.99C145.955 100.219 145.923 100.233 145.898 100.257C145.874 100.281 145.86 100.314 145.859 100.349C145.859 100.384 145.873 100.417 145.897 100.442C145.922 100.466 145.955 100.48 145.99 100.48H147.512L146.161 101.83C146.136 101.855 146.123 101.888 146.123 101.923C146.123 101.957 146.136 101.991 146.161 102.016C146.186 102.039 146.219 102.052 146.254 102.052C146.288 102.052 146.322 102.039 146.347 102.016L147.696 100.666V102.183C147.696 102.218 147.709 102.252 147.734 102.276C147.759 102.301 147.792 102.314 147.827 102.314C147.862 102.314 147.895 102.301 147.92 102.276C147.944 102.252 147.958 102.218 147.958 102.183V100.666L149.309 102.016C149.335 102.039 149.368 102.052 149.403 102.052C149.437 102.052 149.47 102.039 149.496 102.016C149.52 101.991 149.533 101.957 149.533 101.923C149.533 101.888 149.52 101.855 149.496 101.83L148.144 100.48H149.664C149.698 100.48 149.732 100.466 149.756 100.442C149.781 100.417 149.795 100.384 149.795 100.349C149.793 100.315 149.778 100.284 149.754 100.261C149.729 100.238 149.697 100.226 149.664 100.226Z" fill="#06CE91"/>
<path d="M155.174 100.226H153.655L155.006 98.8786C155.03 98.8536 155.044 98.8203 155.044 98.7855C155.044 98.7508 155.03 98.7174 155.006 98.6925C154.994 98.6802 154.979 98.6705 154.963 98.6638C154.947 98.6572 154.93 98.6537 154.913 98.6537C154.895 98.6537 154.878 98.6572 154.862 98.6638C154.846 98.6705 154.832 98.6802 154.82 98.6925L153.468 100.042V98.5222C153.468 98.4874 153.454 98.4541 153.43 98.4295C153.405 98.4049 153.372 98.3911 153.337 98.3911C153.303 98.3918 153.27 98.4058 153.245 98.4302C153.221 98.4547 153.207 98.4876 153.206 98.5222V100.042L151.857 98.6846C151.845 98.6724 151.83 98.6626 151.814 98.656C151.799 98.6493 151.781 98.6459 151.764 98.6459C151.747 98.6459 151.73 98.6493 151.714 98.656C151.698 98.6626 151.683 98.6724 151.671 98.6846C151.647 98.7096 151.633 98.743 151.633 98.7777C151.633 98.8124 151.647 98.8458 151.671 98.8707L153.022 100.218H151.5C151.466 100.219 151.433 100.233 151.408 100.257C151.384 100.281 151.37 100.314 151.369 100.349C151.369 100.384 151.383 100.417 151.408 100.442C151.432 100.466 151.466 100.48 151.5 100.48H153.022L151.671 101.83C151.647 101.855 151.633 101.888 151.633 101.923C151.633 101.957 151.647 101.991 151.671 102.016C151.696 102.039 151.729 102.052 151.764 102.052C151.799 102.052 151.832 102.039 151.857 102.016L153.206 100.666V102.183C153.206 102.218 153.22 102.252 153.244 102.276C153.269 102.301 153.302 102.314 153.337 102.314C153.372 102.314 153.405 102.301 153.43 102.276C153.454 102.252 153.468 102.218 153.468 102.183V100.666L154.82 102.016C154.845 102.039 154.878 102.052 154.913 102.052C154.947 102.052 154.981 102.039 155.006 102.016C155.03 101.991 155.044 101.957 155.044 101.923C155.044 101.888 155.03 101.855 155.006 101.83L153.655 100.48H155.174C155.209 100.48 155.242 100.466 155.267 100.442C155.291 100.417 155.305 100.384 155.305 100.349C155.303 100.315 155.288 100.284 155.264 100.261C155.24 100.238 155.207 100.226 155.174 100.226Z" fill="#06CE91"/>
<path d="M160.684 100.226H159.165L160.516 98.8786C160.54 98.8536 160.554 98.8203 160.554 98.7855C160.554 98.7508 160.54 98.7174 160.516 98.6925C160.504 98.6802 160.49 98.6705 160.474 98.6638C160.458 98.6572 160.44 98.6537 160.423 98.6537C160.406 98.6537 160.389 98.6572 160.373 98.6638C160.357 98.6705 160.342 98.6802 160.33 98.6925L158.979 100.042V98.5222C158.979 98.4874 158.965 98.4541 158.94 98.4295C158.916 98.4049 158.882 98.3911 158.847 98.3911C158.813 98.3918 158.78 98.4058 158.755 98.4302C158.731 98.4547 158.717 98.4876 158.716 98.5222V100.042L157.367 98.6846C157.355 98.6724 157.341 98.6626 157.325 98.656C157.309 98.6493 157.292 98.6459 157.274 98.6459C157.257 98.6459 157.24 98.6493 157.224 98.656C157.208 98.6626 157.193 98.6724 157.181 98.6846C157.157 98.7096 157.143 98.743 157.143 98.7777C157.143 98.8124 157.157 98.8458 157.181 98.8707L158.533 100.218H157.011C156.976 100.219 156.943 100.233 156.919 100.257C156.894 100.281 156.88 100.314 156.879 100.349C156.879 100.384 156.893 100.417 156.918 100.442C156.942 100.466 156.976 100.48 157.011 100.48H158.533L157.181 101.83C157.157 101.855 157.143 101.888 157.143 101.923C157.143 101.957 157.157 101.991 157.181 102.016C157.206 102.039 157.24 102.052 157.274 102.052C157.309 102.052 157.342 102.039 157.367 102.016L158.716 100.666V102.183C158.716 102.218 158.73 102.252 158.755 102.276C158.779 102.301 158.813 102.314 158.847 102.314C158.882 102.314 158.916 102.301 158.94 102.276C158.965 102.252 158.979 102.218 158.979 102.183V100.666L160.33 102.016C160.355 102.039 160.388 102.052 160.423 102.052C160.458 102.052 160.491 102.039 160.516 102.016C160.54 101.991 160.554 101.957 160.554 101.923C160.554 101.888 160.54 101.855 160.516 101.83L159.165 100.48H160.684C160.719 100.48 160.752 100.466 160.777 100.442C160.802 100.417 160.815 100.384 160.815 100.349C160.813 100.315 160.799 100.284 160.774 100.261C160.75 100.238 160.718 100.226 160.684 100.226Z" fill="#06CE91"/>
<path d="M166.195 100.226H164.675L166.027 98.8786C166.051 98.8536 166.064 98.8203 166.064 98.7855C166.064 98.7508 166.051 98.7174 166.027 98.6925C166.015 98.6802 166 98.6705 165.984 98.6638C165.968 98.6572 165.951 98.6537 165.934 98.6537C165.916 98.6537 165.899 98.6572 165.883 98.6638C165.867 98.6705 165.853 98.6802 165.84 98.6925L164.489 100.042V98.5222C164.489 98.4874 164.475 98.4541 164.451 98.4295C164.426 98.4049 164.393 98.3911 164.358 98.3911C164.323 98.3918 164.29 98.4058 164.266 98.4302C164.241 98.4547 164.227 98.4876 164.227 98.5222V100.042L162.878 98.6846C162.866 98.6724 162.851 98.6626 162.835 98.656C162.819 98.6493 162.802 98.6459 162.785 98.6459C162.767 98.6459 162.75 98.6493 162.734 98.656C162.718 98.6626 162.704 98.6724 162.692 98.6846C162.667 98.7096 162.654 98.743 162.654 98.7777C162.654 98.8124 162.667 98.8458 162.692 98.8707L164.043 100.218H162.521C162.487 100.219 162.454 100.233 162.429 100.257C162.405 100.281 162.391 100.314 162.39 100.349C162.39 100.384 162.404 100.417 162.428 100.442C162.453 100.466 162.486 100.48 162.521 100.48H164.043L162.692 101.83C162.667 101.855 162.654 101.888 162.654 101.923C162.654 101.957 162.667 101.991 162.692 102.016C162.717 102.039 162.75 102.052 162.785 102.052C162.819 102.052 162.853 102.039 162.878 102.016L164.227 100.666V102.183C164.227 102.218 164.24 102.252 164.265 102.276C164.29 102.301 164.323 102.314 164.358 102.314C164.393 102.314 164.426 102.301 164.451 102.276C164.475 102.252 164.489 102.218 164.489 102.183V100.666L165.84 102.016C165.866 102.039 165.899 102.052 165.934 102.052C165.968 102.052 166.001 102.039 166.027 102.016C166.051 101.991 166.064 101.957 166.064 101.923C166.064 101.888 166.051 101.855 166.027 101.83L164.675 100.48H166.195C166.229 100.48 166.263 100.466 166.287 100.442C166.312 100.417 166.326 100.384 166.326 100.349C166.324 100.315 166.309 100.284 166.285 100.261C166.26 100.238 166.228 100.226 166.195 100.226Z" fill="#06CE91"/>
<path d="M171.705 100.226H170.186L171.537 98.8786C171.561 98.8536 171.575 98.8203 171.575 98.7855C171.575 98.7508 171.561 98.7174 171.537 98.6925C171.525 98.6802 171.51 98.6705 171.495 98.6638C171.479 98.6572 171.461 98.6537 171.444 98.6537C171.427 98.6537 171.41 98.6572 171.394 98.6638C171.378 98.6705 171.363 98.6802 171.351 98.6925L170 100.042V98.5222C170 98.4874 169.986 98.4541 169.961 98.4295C169.937 98.4049 169.903 98.3911 169.868 98.3911C169.834 98.3918 169.801 98.4058 169.776 98.4302C169.752 98.4547 169.738 98.4876 169.737 98.5222V100.042L168.388 98.6846C168.376 98.6724 168.362 98.6626 168.346 98.656C168.33 98.6493 168.313 98.6459 168.295 98.6459C168.278 98.6459 168.261 98.6493 168.245 98.656C168.229 98.6626 168.214 98.6724 168.202 98.6846C168.178 98.7096 168.164 98.743 168.164 98.7777C168.164 98.8124 168.178 98.8458 168.202 98.8707L169.553 100.218H168.032C167.997 100.219 167.964 100.233 167.94 100.257C167.915 100.281 167.901 100.314 167.9 100.349C167.9 100.384 167.914 100.417 167.939 100.442C167.963 100.466 167.997 100.48 168.032 100.48H169.553L168.202 101.83C168.178 101.855 168.164 101.888 168.164 101.923C168.164 101.957 168.178 101.991 168.202 102.016C168.227 102.039 168.261 102.052 168.295 102.052C168.33 102.052 168.363 102.039 168.388 102.016L169.737 100.666V102.183C169.737 102.218 169.751 102.252 169.776 102.276C169.8 102.301 169.834 102.314 169.868 102.314C169.903 102.314 169.937 102.301 169.961 102.276C169.986 102.252 170 102.218 170 102.183V100.666L171.351 102.016C171.376 102.039 171.409 102.052 171.444 102.052C171.479 102.052 171.512 102.039 171.537 102.016C171.561 101.991 171.575 101.957 171.575 101.923C171.575 101.888 171.561 101.855 171.537 101.83L170.186 100.48H171.705C171.74 100.48 171.773 100.466 171.798 100.442C171.823 100.417 171.836 100.384 171.836 100.349C171.834 100.315 171.82 100.284 171.795 100.261C171.771 100.238 171.739 100.226 171.705 100.226Z" fill="#06CE91"/>
<path d="M177.215 100.226H175.696L177.047 98.8786C177.072 98.8536 177.085 98.8203 177.085 98.7855C177.085 98.7508 177.072 98.7174 177.047 98.6925C177.035 98.6802 177.021 98.6705 177.005 98.6638C176.989 98.6572 176.972 98.6537 176.954 98.6537C176.937 98.6537 176.92 98.6572 176.904 98.6638C176.888 98.6705 176.873 98.6802 176.861 98.6925L175.51 100.042V98.5222C175.51 98.4874 175.496 98.4541 175.471 98.4295C175.447 98.4049 175.413 98.3911 175.379 98.3911C175.344 98.3918 175.311 98.4058 175.287 98.4302C175.262 98.4547 175.248 98.4876 175.247 98.5222V100.042L173.899 98.6846C173.887 98.6724 173.872 98.6626 173.856 98.656C173.84 98.6493 173.823 98.6459 173.806 98.6459C173.788 98.6459 173.771 98.6493 173.755 98.656C173.739 98.6626 173.725 98.6724 173.712 98.6846C173.688 98.7096 173.675 98.743 173.675 98.7777C173.675 98.8124 173.688 98.8458 173.712 98.8707L175.064 100.218H173.542C173.507 100.219 173.474 100.233 173.45 100.257C173.425 100.281 173.411 100.314 173.411 100.349C173.411 100.384 173.424 100.417 173.449 100.442C173.474 100.466 173.507 100.48 173.542 100.48H175.064L173.712 101.83C173.688 101.855 173.675 101.888 173.675 101.923C173.675 101.957 173.688 101.991 173.712 102.016C173.738 102.039 173.771 102.052 173.806 102.052C173.84 102.052 173.873 102.039 173.899 102.016L175.247 100.666V102.183C175.247 102.218 175.261 102.252 175.286 102.276C175.31 102.301 175.344 102.314 175.379 102.314C175.413 102.314 175.447 102.301 175.471 102.276C175.496 102.252 175.51 102.218 175.51 102.183V100.666L176.861 102.016C176.886 102.039 176.92 102.052 176.954 102.052C176.989 102.052 177.022 102.039 177.047 102.016C177.072 101.991 177.085 101.957 177.085 101.923C177.085 101.888 177.072 101.855 177.047 101.83L175.696 100.48H177.215C177.25 100.48 177.284 100.466 177.308 100.442C177.333 100.417 177.347 100.384 177.347 100.349C177.345 100.315 177.33 100.284 177.306 100.261C177.281 100.238 177.249 100.226 177.215 100.226Z" fill="#06CE91"/>
<path d="M182.726 100.226H181.206L182.558 98.8786C182.582 98.8536 182.595 98.8203 182.595 98.7855C182.595 98.7508 182.582 98.7174 182.558 98.6925C182.546 98.6802 182.531 98.6705 182.515 98.6638C182.499 98.6572 182.482 98.6537 182.465 98.6537C182.447 98.6537 182.43 98.6572 182.414 98.6638C182.398 98.6705 182.384 98.6802 182.371 98.6925L181.02 100.042V98.5222C181.02 98.4874 181.006 98.4541 180.982 98.4295C180.957 98.4049 180.924 98.3911 180.889 98.3911C180.854 98.3918 180.821 98.4058 180.797 98.4302C180.772 98.4547 180.758 98.4876 180.758 98.5222V100.042L179.409 98.6846C179.397 98.6724 179.382 98.6626 179.366 98.656C179.35 98.6493 179.333 98.6459 179.316 98.6459C179.298 98.6459 179.281 98.6493 179.265 98.656C179.249 98.6626 179.235 98.6724 179.223 98.6846C179.198 98.7096 179.185 98.743 179.185 98.7777C179.185 98.8124 179.198 98.8458 179.223 98.8707L180.574 100.218H179.052C179.018 100.219 178.985 100.233 178.96 100.257C178.936 100.281 178.922 100.314 178.921 100.349C178.921 100.384 178.935 100.417 178.959 100.442C178.984 100.466 179.017 100.48 179.052 100.48H180.574L179.223 101.83C179.198 101.855 179.185 101.888 179.185 101.923C179.185 101.957 179.198 101.991 179.223 102.016C179.248 102.039 179.281 102.052 179.316 102.052C179.35 102.052 179.384 102.039 179.409 102.016L180.758 100.666V102.183C180.758 102.218 180.771 102.252 180.796 102.276C180.821 102.301 180.854 102.314 180.889 102.314C180.924 102.314 180.957 102.301 180.982 102.276C181.006 102.252 181.02 102.218 181.02 102.183V100.666L182.371 102.016C182.397 102.039 182.43 102.052 182.465 102.052C182.499 102.052 182.532 102.039 182.558 102.016C182.582 101.991 182.595 101.957 182.595 101.923C182.595 101.888 182.582 101.855 182.558 101.83L181.206 100.48H182.726C182.76 100.48 182.794 100.466 182.818 100.442C182.843 100.417 182.857 100.384 182.857 100.349C182.855 100.315 182.84 100.284 182.816 100.261C182.791 100.238 182.759 100.226 182.726 100.226Z" fill="#06CE91"/>
<path d="M188.236 100.226H186.717L188.068 98.8786C188.092 98.8536 188.106 98.8203 188.106 98.7855C188.106 98.7508 188.092 98.7174 188.068 98.6925C188.056 98.6802 188.041 98.6705 188.025 98.6638C188.009 98.6572 187.992 98.6537 187.975 98.6537C187.957 98.6537 187.94 98.6572 187.924 98.6638C187.908 98.6705 187.894 98.6802 187.882 98.6925L186.53 100.042V98.5222C186.53 98.4874 186.516 98.4541 186.492 98.4295C186.467 98.4049 186.434 98.3911 186.399 98.3911C186.365 98.3918 186.332 98.4058 186.307 98.4302C186.283 98.4547 186.269 98.4876 186.268 98.5222V100.042L184.919 98.6846C184.907 98.6724 184.892 98.6626 184.877 98.656C184.861 98.6493 184.843 98.6459 184.826 98.6459C184.809 98.6459 184.792 98.6493 184.776 98.656C184.76 98.6626 184.745 98.6724 184.733 98.6846C184.709 98.7096 184.695 98.743 184.695 98.7777C184.695 98.8124 184.709 98.8458 184.733 98.8707L186.084 100.218H184.562C184.528 100.219 184.495 100.233 184.47 100.257C184.446 100.281 184.432 100.314 184.431 100.349C184.431 100.384 184.445 100.417 184.47 100.442C184.494 100.466 184.528 100.48 184.562 100.48H186.084L184.733 101.83C184.709 101.855 184.695 101.888 184.695 101.923C184.695 101.957 184.709 101.991 184.733 102.016C184.758 102.039 184.791 102.052 184.826 102.052C184.861 102.052 184.894 102.039 184.919 102.016L186.268 100.666V102.183C186.268 102.218 186.282 102.252 186.306 102.276C186.331 102.301 186.364 102.314 186.399 102.314C186.434 102.314 186.467 102.301 186.492 102.276C186.516 102.252 186.53 102.218 186.53 102.183V100.666L187.882 102.016C187.907 102.039 187.94 102.052 187.975 102.052C188.009 102.052 188.043 102.039 188.068 102.016C188.092 101.991 188.106 101.957 188.106 101.923C188.106 101.888 188.092 101.855 188.068 101.83L186.717 100.48H188.236C188.271 100.48 188.304 100.466 188.329 100.442C188.353 100.417 188.367 100.384 188.367 100.349C188.365 100.315 188.35 100.284 188.326 100.261C188.302 100.238 188.269 100.226 188.236 100.226Z" fill="#06CE91"/>
<path d="M193.746 100.226H192.227L193.578 98.8786C193.603 98.8536 193.616 98.8203 193.616 98.7855C193.616 98.7508 193.603 98.7174 193.578 98.6925C193.566 98.6802 193.552 98.6705 193.536 98.6638C193.52 98.6572 193.503 98.6537 193.485 98.6537C193.468 98.6537 193.451 98.6572 193.435 98.6638C193.419 98.6705 193.404 98.6802 193.392 98.6925L192.041 100.042V98.5222C192.041 98.4874 192.027 98.4541 192.002 98.4295C191.978 98.4049 191.944 98.3911 191.91 98.3911C191.875 98.3918 191.842 98.4058 191.818 98.4302C191.793 98.4547 191.779 98.4876 191.778 98.5222V100.042L190.43 98.6846C190.418 98.6724 190.403 98.6626 190.387 98.656C190.371 98.6493 190.354 98.6459 190.337 98.6459C190.319 98.6459 190.302 98.6493 190.286 98.656C190.27 98.6626 190.256 98.6724 190.243 98.6846C190.219 98.7096 190.206 98.743 190.206 98.7777C190.206 98.8124 190.219 98.8458 190.243 98.8707L191.595 100.218H190.073C190.038 100.219 190.005 100.233 189.981 100.257C189.956 100.281 189.942 100.314 189.942 100.349C189.942 100.384 189.955 100.417 189.98 100.442C190.005 100.466 190.038 100.48 190.073 100.48H191.595L190.243 101.83C190.219 101.855 190.206 101.888 190.206 101.923C190.206 101.957 190.219 101.991 190.243 102.016C190.269 102.039 190.302 102.052 190.337 102.052C190.371 102.052 190.404 102.039 190.43 102.016L191.778 100.666V102.183C191.778 102.218 191.792 102.252 191.817 102.276C191.841 102.301 191.875 102.314 191.91 102.314C191.944 102.314 191.978 102.301 192.002 102.276C192.027 102.252 192.041 102.218 192.041 102.183V100.666L193.392 102.016C193.417 102.039 193.451 102.052 193.485 102.052C193.52 102.052 193.553 102.039 193.578 102.016C193.603 101.991 193.616 101.957 193.616 101.923C193.616 101.888 193.603 101.855 193.578 101.83L192.227 100.48H193.746C193.781 100.48 193.815 100.466 193.839 100.442C193.864 100.417 193.878 100.384 193.878 100.349C193.876 100.315 193.861 100.284 193.837 100.261C193.812 100.238 193.78 100.226 193.746 100.226Z" fill="#06CE91"/>
<path d="M199.257 100.226H197.738L199.089 98.8786C199.113 98.8536 199.127 98.8203 199.127 98.7855C199.127 98.7508 199.113 98.7174 199.089 98.6925C199.077 98.6802 199.062 98.6705 199.046 98.6638C199.03 98.6572 199.013 98.6537 198.996 98.6537C198.978 98.6537 198.961 98.6572 198.945 98.6638C198.929 98.6705 198.915 98.6802 198.903 98.6925L197.551 100.042V98.5222C197.551 98.4874 197.537 98.4541 197.513 98.4295C197.488 98.4049 197.455 98.3911 197.42 98.3911C197.386 98.3918 197.353 98.4058 197.328 98.4302C197.304 98.4547 197.29 98.4876 197.289 98.5222V100.042L195.94 98.6846C195.928 98.6724 195.913 98.6626 195.898 98.656C195.882 98.6493 195.864 98.6459 195.847 98.6459C195.83 98.6459 195.813 98.6493 195.797 98.656C195.781 98.6626 195.766 98.6724 195.754 98.6846C195.73 98.7096 195.716 98.743 195.716 98.7777C195.716 98.8124 195.73 98.8458 195.754 98.8707L197.105 100.218H195.583C195.549 100.219 195.516 100.233 195.491 100.257C195.467 100.281 195.453 100.314 195.452 100.349C195.452 100.384 195.466 100.417 195.491 100.442C195.515 100.466 195.549 100.48 195.583 100.48H197.105L195.754 101.83C195.73 101.855 195.716 101.888 195.716 101.923C195.716 101.957 195.73 101.991 195.754 102.016C195.779 102.039 195.812 102.052 195.847 102.052C195.882 102.052 195.915 102.039 195.94 102.016L197.289 100.666V102.183C197.289 102.218 197.303 102.252 197.327 102.276C197.352 102.301 197.385 102.314 197.42 102.314C197.455 102.314 197.488 102.301 197.513 102.276C197.537 102.252 197.551 102.218 197.551 102.183V100.666L198.903 102.016C198.928 102.039 198.961 102.052 198.996 102.052C199.03 102.052 199.064 102.039 199.089 102.016C199.113 101.991 199.127 101.957 199.127 101.923C199.127 101.888 199.113 101.855 199.089 101.83L197.738 100.48H199.257C199.292 100.48 199.325 100.466 199.35 100.442C199.374 100.417 199.388 100.384 199.388 100.349C199.386 100.315 199.371 100.284 199.347 100.261C199.323 100.238 199.29 100.226 199.257 100.226Z" fill="#06CE91"/>
<g opacity="0.1">
<path opacity="0.1" d="M224.846 128.205C224.249 131.051 223.424 133.844 222.379 136.558C222.56 136.199 222.712 135.822 222.857 135.447C223.909 132.723 224.738 129.918 225.336 127.06C226.084 123.496 226.37 119.46 224.192 116.537C223.668 115.84 222.993 115.086 223.017 114.268C222.823 114.515 222.672 114.793 222.571 115.091C222.308 116.037 223.111 116.899 223.699 117.685C225.877 120.602 225.591 124.644 224.846 128.205Z" fill="black"/>
<path opacity="0.1" d="M223.484 113.154C223.694 112.893 223.851 112.593 223.946 112.271C223.986 111.882 223.976 111.489 223.914 111.102C223.712 111.254 223.56 111.463 223.478 111.702C223.324 112.166 223.502 112.669 223.484 113.154Z" fill="black"/>
<path opacity="0.1" d="M239.123 136.762C238.949 137.029 238.711 137.247 238.43 137.397C238.063 137.526 237.666 137.546 237.288 137.454C235.533 137.192 233.615 136.652 232.061 137.499C231.219 137.955 230.566 138.783 229.629 138.993C228.078 139.339 226.756 137.853 225.223 137.42C224.137 137.119 222.993 137.368 221.899 137.682C221.681 138.145 221.388 138.569 221.03 138.935C222.237 138.589 223.52 138.241 224.73 138.576C226.262 139.001 227.585 140.487 229.138 140.149C230.072 139.942 230.728 139.113 231.568 138.655C233.143 137.808 235.04 138.34 236.795 138.613C237.173 138.702 237.569 138.682 237.937 138.555C238.217 138.404 238.456 138.185 238.629 137.918C239.105 137.292 239.472 136.59 239.716 135.843C239.54 136.163 239.342 136.47 239.123 136.762Z" fill="black"/>
</g>
</g>
<defs>
<clipPath id="clip0_282_10245">
<rect width="306" height="211" fill="white"/>
</clipPath>
</defs>
</svg>
