<svg width="23" height="31" viewBox="0 0 23 31" fill="none" xmlns="http://www.w3.org/2000/svg">
<path d="M11.4922 0.0726013C5.4235 0.0726013 0.486328 5.09849 0.486328 11.2762C0.486328 14.7317 2.23403 18.9259 5.68103 23.7422C8.20356 27.267 10.6893 29.7809 10.7939 29.8862C10.9862 30.0798 11.2391 30.1769 11.4923 30.1769C11.7382 30.1769 11.9843 30.0853 12.175 29.9015C12.2799 29.8006 14.7719 27.3885 17.2992 23.9124C20.7489 19.1674 22.4981 14.916 22.4981 11.2761C22.498 5.09849 17.5607 0.0726013 11.4922 0.0726013ZM11.4922 16.1129C8.52524 16.1129 6.11154 13.6992 6.11154 10.7323C6.11154 7.76543 8.5253 5.35168 11.4922 5.35168C14.459 5.35168 16.8728 7.76543 16.8728 10.7323C16.8728 13.6992 14.459 16.1129 11.4922 16.1129Z" fill="#05CE91"/>
</svg>
