<svg width="19" height="23" viewBox="0 0 19 23" fill="none" xmlns="http://www.w3.org/2000/svg">
<g clip-path="url(#clip0_814_120)">
<path d="M-nan -nanL2.72528 1.45025H17.2315C17.4021 1.44905 17.5713 1.48177 17.7291 1.54651C17.887 1.61125 18.0304 1.70671 18.1511 1.82735C18.2717 1.948 18.3672 2.09142 18.4319 2.24927C18.4966 2.40713 18.5294 2.57629 18.5282 2.7469V19.0295C18.5282 19.9122 17.4681 20.362 16.8333 19.7487L15.6853 18.6395C15.2289 18.1986 14.4826 18.2887 14.1444 18.8256L13.3165 20.1396C12.94 20.7374 12.0791 20.7667 11.6627 20.196L11.0297 19.3287C10.6686 18.8338 9.95143 18.777 9.51694 19.2089L8.13801 20.5796C7.7086 21.0065 7.00136 20.9568 6.63583 20.4741L5.635 19.1526C5.28752 18.6937 4.62541 18.6222 4.18795 18.9962L3.04247 19.9756C2.39355 20.5304 1.39262 20.0693 1.39262 19.2155V2.7469C1.39129 2.57319 1.42513 2.40102 1.49209 2.24073C1.55906 2.08044 1.65777 1.93536 1.78228 1.81422C1.90678 1.69308 2.0545 1.5984 2.21656 1.53585C2.37862 1.4733 2.55167 1.44417 2.72528 1.45025L-nan -nanL-nan -nanZ" stroke="#05CE91" stroke-width="2" stroke-miterlimit="10"/>
<path d="M4.18408 5.66431H15.935" stroke="#05CE91" stroke-width="2" stroke-miterlimit="10"/>
<path d="M4.18408 9.78857H15.935" stroke="#05CE91" stroke-width="2" stroke-miterlimit="10"/>
<path d="M4.18408 13.8496H12.2071" stroke="#05CE91" stroke-width="2" stroke-miterlimit="10"/>
<path d="M13.8279 13.8494H15.9349" stroke="#05CE91" stroke-width="2" stroke-miterlimit="10"/>
<ellipse cx="14.7431" cy="13.7058" rx="2.11765" ry="2.11765" fill="#E61C1C"/>
</g>
<path d="M1.47852 1H18.4785" stroke="#05CE91" stroke-linecap="round"/>
<defs>
<clipPath id="clip0_814_120">
<rect width="18" height="21.4397" fill="white" transform="translate(0.978516 1)"/>
</clipPath>
</defs>
</svg>
