<svg width="344" height="229" viewBox="0 0 344 229" fill="none" xmlns="http://www.w3.org/2000/svg">
<path fill-rule="evenodd" clip-rule="evenodd" d="M184.853 54.7553C184.853 63.3474 178.01 70.3133 169.569 70.3133C161.128 70.3133 154.285 63.3474 154.285 54.7553C154.285 46.1637 161.128 39.1982 169.569 39.1982C178.01 39.1982 184.853 46.1637 184.853 54.7553ZM283.848 85.7946C289.24 85.7946 286.718 77.0913 279.887 79.1702C279.508 67.0859 260.158 58.2441 252.156 74.543C249.894 72.7208 244.814 76.1625 245.938 79.1702C243.425 79.3884 241.448 79.6839 239.91 80.076C236.359 80.9811 237.062 85.7537 240.723 85.7203L283.848 85.7946ZM182.262 85.7946C177.163 85.7946 179.549 77.5646 186.008 79.5303C186.366 68.1033 204.664 59.7423 212.231 75.1548C214.37 73.4318 219.174 76.6864 218.11 79.5303C220.486 79.7365 222.356 80.0165 223.81 80.3868C227.169 81.2428 226.504 85.756 223.042 85.7245L182.262 85.7946ZM244.246 55.667C241.817 55.667 242.953 51.7454 246.031 52.6819C246.202 47.2368 254.921 43.2529 258.527 50.5968C259.546 49.7758 261.835 51.3269 261.328 52.6819C262.46 52.7803 263.352 52.9137 264.045 53.0903C265.645 53.4979 265.328 55.6484 263.679 55.6336L244.246 55.667ZM222.817 70.1273H236.658C237.896 70.1273 238.429 68.4965 237.416 67.7731L237.374 67.7424C235.932 66.7339 234.04 66.8253 234.04 66.8253C234.04 66.8253 233.769 61.3677 228.678 61.3677C224.075 61.3677 222.239 65.9661 221.577 68.4996C221.362 69.3226 221.98 70.1273 222.817 70.1273ZM72.276 85.2959H56.9927C55.7555 85.2959 55.2217 83.6651 56.2346 82.9413L56.2778 82.911C57.7195 81.9021 59.612 81.9935 59.612 81.9935C59.612 81.9935 59.8822 76.5363 64.9736 76.5363C67.4909 76.5363 69.5248 80.9161 69.5248 80.9161C69.5248 80.9161 72.9492 80.9161 73.5159 83.6678C73.6874 84.5017 73.1131 85.2959 72.276 85.2959ZM93.818 86.6487H154.844C160.572 86.6487 160.309 81.8227 158.438 80.141C156.52 78.4172 152.731 79.1165 152.731 79.1165C152.731 79.1165 151.603 75.8704 147.889 74.2898C144.604 72.8919 141.164 73.557 141.164 73.557C141.164 73.557 141.164 71.3292 139.061 69.4844C136.957 67.6389 134.153 67.8186 134.153 67.8186C134.153 67.8186 132.225 55.5336 119.343 55.5336C106.461 55.5336 104.972 67.1006 104.972 67.1006C104.972 67.1006 102.08 67.1006 99.9767 69.0737C97.8732 71.0464 97.6107 73.2879 97.6107 73.2879C97.6107 73.2879 90.577 72.3182 88.4965 78.5269C87.2569 82.2268 89.804 86.6487 93.818 86.6487ZM71.9894 61.3969H91.1169C92.9124 61.3969 92.8299 59.8843 92.2434 59.3569C91.6423 58.8166 90.4547 59.036 90.4547 59.036C90.4547 59.036 90.1009 58.0185 88.937 57.523C87.9077 57.0851 86.829 57.2936 86.829 57.2936C86.829 57.2936 86.829 56.595 86.1699 56.0167C85.5107 55.4383 84.6315 55.4947 84.6315 55.4947C84.6315 55.4947 84.0274 51.6442 79.9898 51.6442C75.9521 51.6442 75.4852 55.2699 75.4852 55.2699C75.4852 55.2699 74.5789 55.2699 73.9197 55.8883C73.2602 56.5063 73.1781 57.2092 73.1781 57.2092C73.1781 57.2092 70.9734 56.905 70.3215 58.8513C69.9329 60.0111 70.7311 61.3969 71.9894 61.3969Z" fill="white" stroke="#E1E4E5" stroke-width="2"/>
<path d="M192.896 187.739V146.477M149.572 187.739V146.477V187.739Z" stroke="#E1E4E5" stroke-width="4" stroke-linecap="round" stroke-linejoin="round"/>
<path fill-rule="evenodd" clip-rule="evenodd" d="M142.351 164.014H200.117V157.452H142.351V164.014ZM142.351 154.468H200.117V147.509H142.351V154.468Z" fill="white" stroke="#E1E4E5" stroke-width="4"/>
<path fill-rule="evenodd" clip-rule="evenodd" d="M137.194 175.36H205.275V170.203H137.194V175.36Z" fill="white"/>
<path fill-rule="evenodd" clip-rule="evenodd" d="M137.194 175.36H205.275V170.203H137.194V175.36Z" fill="white" stroke="#E1E4E5" stroke-width="4"/>
<path d="M276.619 191.163C267.318 191.315 264.856 191.963 255.201 191.696C250.603 191.734 245.694 191.62 241.198 191.544C239.061 191.048 235.302 191.544 232.767 191.125L231.794 191.391C230.925 191.239 229.907 191.163 229.023 191.315L229.082 191.391C227.785 191.201 226.311 191.315 225.677 191.201L225.736 191.277L224.159 191.239L224.424 191.353C222.154 191.124 219.825 191.124 217.762 191.201L217.939 190.858C213.532 191.239 211.925 190.553 207.96 190.972L208.019 191.048C202.993 190.172 200.089 191.658 194.915 190.82C195.564 190.934 194.635 190.972 194.694 191.086C192.306 191.01 189.771 190.934 189.726 190.286C187.987 190.286 188.312 190.477 188.09 190.743C188.105 190.477 186.587 190.324 185.231 190.324L185.85 190.439L181.959 190.324L182.725 189.791C180.661 189.943 182.195 190.439 180.234 190.324L180.264 189.867C177.419 189.943 175.738 190.629 172.982 190.972C161.514 191.163 149.192 190.019 138.535 190.82L138.063 191.163C137.857 191.658 135.115 190.439 134.717 190.896L133.479 190.667C133.125 190.743 132.388 190.858 133.007 190.972C131.858 191.01 131.828 190.896 131.003 190.781L129.765 191.086C125.24 191.315 121.392 190.743 116.631 190.858C110.912 191.467 100.137 190.896 93.9319 190.591C85.2055 189.867 75.0644 191.81 66.1323 190.972C65.8374 191.048 65.0857 190.896 65.1005 190.82L56.9198 190.896C56.9198 190.896 17.284 191.086 47.3979 187.009L47.1914 186.895C51.6723 186.628 54.4877 186.59 57.5683 187.124C58.0545 186.476 61.2384 187.047 62.2851 186.857L62.1818 186.819C64.9089 187.314 67.7978 186.4 70.4361 186.857C70.3332 186.819 70.2741 186.628 69.6698 186.628C71.586 186.705 74.2098 186.857 74.3572 186.476C78.941 186.59 85.3236 186.4 88.2568 187.009L88.0507 186.895C89.7161 187.314 90.2172 186.971 92.0892 187.162C92.1925 187.124 92.3251 187.085 92.2957 187.047C94.1231 187.467 97.6168 187.124 99.0761 187.276L99.1645 187.009L102.79 187.085L101.434 187.124C101.906 187.809 104.176 186.667 106.8 187.124C109.261 187.047 111.796 188.571 114.347 188.229C115.57 188.571 113.271 187.695 115.098 187.962C115.157 187.581 114.243 187.733 114.715 187.429C116.499 187.619 117.648 187.047 119.859 187.314L119.948 187.047C122.822 187.581 125.372 186.666 127.288 187.162C130.251 187.391 129.278 186.323 132.374 186.857L133.582 186.476C134.909 186.4 134.526 186.933 135.999 186.743C135.911 186.514 137.857 186.552 136.987 186.323C140.303 185.942 143.723 186.857 148.101 186.209C149.044 186.666 151.255 186.4 151.963 186.743C152.081 186.552 156.37 186.704 153.909 186.247C153.702 186.209 153.319 186.209 153.348 186.285L153.053 186.018C155.545 185.485 157.579 186.323 160.055 186.209C159.318 186.285 158.345 186.285 158.994 186.476L161.293 186.438L160.822 186.209L164.241 186.057L163.77 186.362C165.435 186.209 166.025 185.714 167.911 186.133C168.766 186.362 166.334 186.514 168.089 186.628C170.329 186.438 173.675 186.133 176.52 186.057C176.254 186.4 177.021 186.362 177.817 186.438L177.905 186.171C180.927 186.552 179.011 185.561 182.017 185.866L181.752 185.676L182.548 186.285C185.26 186.857 184.008 185.714 187.014 186.476C185.82 186.438 186.454 187.085 187.913 186.971L187.545 186.705C188.356 186.781 188.621 186.895 189.166 186.819C188.68 186.666 188.916 186.438 190.11 186.476L189.314 186.133L191.569 186.628C193.308 186.323 196.065 186.704 196.787 186.323C196.787 186.323 200.531 186.133 201.386 186.552C200.634 186.285 202.698 186.171 202.108 185.866C203.081 186.171 205.94 186.4 207.09 186.095L206.869 186.057C211.114 185.714 214.121 186.514 217.924 186.095C217.747 186.438 219.767 186.247 219.265 186.666C223.201 187.085 226.444 185.79 227.874 187.124C229.672 187.2 229.996 186.819 230.925 186.743L230.497 186.666C233.858 186.781 234.831 186.781 237.322 186.743C238.56 186.857 238.766 187.467 240.992 187.314C240.27 187.085 241.184 187.124 242.009 187.124C241.479 187.085 241.316 187.009 242.407 186.819C242.555 186.895 242.805 186.933 243.026 186.971C243.041 186.971 243.085 186.933 243.056 186.895C244.441 186.971 244.205 187.047 243.557 187.085C243.586 187.124 243.542 187.162 243.336 187.238C244.78 186.933 247.36 187.276 247.537 186.857C251.723 186.971 254.715 187.391 258.194 187.543C258.592 187.314 257.766 187.124 256.764 187.047L259.24 187.124C259.225 186.819 257.825 186.933 257.058 186.895C260.006 186.4 263.131 187.391 266.581 186.933L267.303 187.162L267.509 187.124C267.494 187.238 268.276 187.429 268.777 187.467C269.263 187.2 268.747 186.857 270.457 186.857C271.813 186.59 274.29 186.971 276.058 187.124C275.1 187.162 275.41 187.314 275.823 187.429C276.678 187.429 277.164 187.162 277.827 187.276L277.916 186.933C277.577 187.276 280.141 187.314 280.465 187.429C280.952 187.162 279.139 187.2 278.933 187.009C282.352 187.047 280.643 187.009 284.077 187.047C285.905 187.314 283.738 187.39 284.622 187.695C286.229 187.771 287.806 188 289.664 187.809L289.074 188.114C292.11 188.381 293.923 188.343 295.957 188C318.539 190.591 300.718 191.544 300.718 191.544C291.786 192.344 287.202 191.429 276.619 191.163Z" fill="#E1E4E5"/>
<path d="M282.201 194.118C272.405 194.525 269.812 196.252 259.644 195.541C254.8 195.642 249.631 195.338 244.896 195.135C242.644 193.813 238.686 195.135 236.015 194.017L234.991 194.728C234.075 194.322 233.004 194.118 232.072 194.525L232.134 194.728C230.768 194.22 229.215 194.525 228.548 194.22L228.61 194.423L226.949 194.322L227.228 194.626C224.838 194.017 222.385 194.017 220.211 194.22L220.398 193.305C215.756 194.322 214.063 192.492 209.887 193.61L209.949 193.813C204.656 191.476 201.597 195.439 196.148 193.204C196.831 193.508 195.853 193.61 195.916 193.915C193.4 193.712 190.73 193.508 190.683 191.781C188.852 191.781 189.193 192.289 188.96 193C188.976 192.289 187.377 191.883 185.949 191.883L186.6 192.188L182.502 191.883L183.309 190.46C181.136 190.867 182.751 192.188 180.686 191.883L180.717 190.663C177.72 190.867 175.951 192.696 173.048 193.61C160.969 194.118 147.991 191.07 136.767 193.204L136.27 194.118C136.053 195.439 133.165 192.188 132.746 193.407L131.442 192.797C131.069 193 130.293 193.305 130.945 193.61C129.734 193.712 129.703 193.407 128.834 193.102L127.53 193.915C122.764 194.525 118.712 193 113.697 193.305C107.674 194.931 96.3252 193.407 89.7893 192.594C80.5987 190.663 69.9177 195.845 60.51 193.61C60.1993 193.813 59.4076 193.407 59.4233 193.204L50.8072 193.407C50.8072 193.407 9.06168 193.915 40.7782 183.043L40.561 182.738C45.2802 182.027 48.2456 181.925 51.4902 183.348C52.0027 181.62 55.3556 183.145 56.458 182.636L56.3492 182.535C59.2215 183.856 62.2642 181.417 65.043 182.636C64.9346 182.535 64.8726 182.027 64.236 182.027C66.2541 182.23 69.0173 182.636 69.1728 181.62C74.0008 181.925 80.7228 181.417 83.8123 183.043L83.5951 182.738C85.3493 183.856 85.8771 182.941 87.8489 183.449C87.9573 183.348 88.0971 183.246 88.0661 183.145C89.9912 184.262 93.6705 183.348 95.2075 183.754L95.3006 183.043L99.1197 183.246L97.6914 183.348C98.1882 185.177 100.579 182.128 103.342 183.348C105.935 183.145 108.605 187.209 111.291 186.294C112.58 187.209 110.158 184.872 112.083 185.583C112.145 184.567 111.182 184.973 111.679 184.161C113.557 184.668 114.768 183.145 117.097 183.856L117.19 183.145C120.217 184.567 122.903 182.128 124.922 183.449C128.042 184.059 127.017 181.214 130.277 182.636L131.551 181.62C132.948 181.417 132.544 182.84 134.097 182.332C134.003 181.722 136.053 181.823 135.137 181.214C138.63 180.198 142.232 182.636 146.842 180.909C147.836 182.128 150.164 181.417 150.91 182.332C151.034 181.823 155.552 182.23 152.959 181.01C152.742 180.909 152.338 180.909 152.369 181.112L152.058 180.401C154.682 178.978 156.824 181.214 159.433 180.909C158.656 181.112 157.632 181.112 158.315 181.62L160.736 181.518L160.24 180.909L163.842 180.503L163.345 181.316C165.099 180.909 165.72 179.588 167.707 180.706C168.608 181.315 166.046 181.722 167.894 182.027C170.253 181.518 173.777 180.706 176.774 180.503C176.494 181.417 177.301 181.315 178.14 181.518L178.233 180.808C181.415 181.823 179.397 179.182 182.564 179.995L182.285 179.486L183.123 181.112C185.98 182.636 184.66 179.588 187.827 181.62C186.569 181.519 187.237 183.246 188.774 182.941L188.386 182.23C189.24 182.433 189.519 182.738 190.094 182.535C189.581 182.128 189.83 181.519 191.087 181.62L190.249 180.706L192.624 182.027C194.456 181.214 197.359 182.23 198.12 181.214C198.12 181.214 202.063 180.706 202.964 181.823C202.172 181.112 204.345 180.808 203.724 179.995C204.749 180.808 207.76 181.417 208.972 180.604L208.739 180.503C213.21 179.588 216.377 181.722 220.382 180.604C220.196 181.518 222.323 181.01 221.795 182.128C225.94 183.246 229.355 179.791 230.861 183.348C232.755 183.551 233.097 182.535 234.075 182.332L233.624 182.128C237.164 182.433 238.189 182.433 240.813 182.332C242.116 182.636 242.334 184.262 244.678 183.856C243.917 183.246 244.88 183.348 245.749 183.348C245.191 183.246 245.02 183.043 246.168 182.535C246.324 182.738 246.588 182.84 246.821 182.941C246.836 182.941 246.883 182.84 246.852 182.738C248.311 182.941 248.062 183.145 247.38 183.246C247.411 183.348 247.364 183.449 247.147 183.653C248.668 182.84 251.385 183.754 251.571 182.636C255.98 182.941 259.131 184.059 262.795 184.465C263.214 183.856 262.345 183.348 261.289 183.145L263.898 183.348C263.882 182.535 262.407 182.84 261.6 182.738C264.705 181.417 267.996 184.059 271.629 182.84L272.389 183.449L272.607 183.348C272.591 183.653 273.414 184.16 273.942 184.262C274.454 183.551 273.911 182.636 275.712 182.636C277.14 181.925 279.748 182.941 281.611 183.348C280.602 183.449 280.928 183.856 281.363 184.161C282.263 184.161 282.775 183.449 283.474 183.754L283.567 182.84C283.21 183.754 285.912 183.856 286.253 184.161C286.765 183.449 284.856 183.551 284.638 183.043C288.24 183.145 286.439 183.043 290.057 183.145C291.982 183.856 289.699 184.059 290.631 184.872C292.323 185.075 293.984 185.685 295.94 185.177L295.319 185.99C298.518 186.701 300.427 186.599 302.569 185.685C326.353 192.594 307.584 195.135 307.584 195.135C298.176 197.268 293.348 194.83 282.201 194.118Z" fill="#E1E4E5" fill-opacity="0.68"/>
<path d="M229.539 187.442C229.539 187.442 223.895 180.43 221.537 179.355C219.023 178.21 221.203 182.178 221.203 182.178C221.203 182.178 215.828 177.068 214.566 178.343C213.304 179.619 214.652 180.813 214.652 180.813C214.652 180.813 210.152 180.004 209.495 181.636C208.487 184.143 215.889 185.391 215.889 185.391C215.889 185.391 212.343 184.637 213.052 186.19C214.122 188.53 229.539 187.442 229.539 187.442ZM231.045 187.619C231.045 187.619 240.037 188.234 241.788 186.676C243.54 185.117 241.802 182.294 241.802 182.294C241.802 182.294 244.888 179.933 244.84 178.391C244.792 176.85 242.782 177.632 242.782 177.632C242.782 177.632 246.188 173.386 245.381 172.578C243.875 171.074 239.937 175.488 239.937 175.488C239.937 175.488 241.106 173.388 239.872 173.055C238.012 172.552 236.644 177.731 236.644 177.731C236.644 177.731 236.991 175.685 235.709 175.957C233.408 176.444 231.045 187.619 231.045 187.619Z" fill="#E1E4E5"/>
<path fill-rule="evenodd" clip-rule="evenodd" d="M241.429 150.455C240.516 151.784 241.12 155.037 242.135 158.384C241.372 157.6 240.527 157.178 239.626 157.427C237.123 158.115 239.495 162.449 239.495 162.449C239.495 162.449 231.501 153.338 228.446 156.442C226.808 158.11 233.722 166.875 233.722 166.875C233.722 166.875 229.642 165.261 229.545 168.443C229.515 169.413 230.077 170.541 230.872 171.64C230.512 172.655 230.31 173.424 230.31 173.424C230.31 173.424 230.798 170.528 228.998 170.912C227.749 171.179 226.488 173.707 225.41 176.709C223.211 174.969 220.61 173.309 219.666 174.287C217.913 176.103 219.784 177.803 219.784 177.803C219.784 177.803 213.538 176.65 212.626 178.973C211.399 182.103 219.152 183.853 221.076 184.236C219.903 184.034 216.759 183.647 217.564 185.454C217.975 186.375 219.909 186.923 222.492 187.234L222.451 187.426C222.451 187.426 225.502 187.637 228.896 187.588C234.66 187.655 240.449 187.236 240.449 187.236L240.395 187.167C245.43 187.971 252.724 187.74 255.929 187.583C265.284 187.815 277.999 187.559 279.355 184.541C280.532 181.92 275.935 182.483 274.22 182.775C277.034 182.219 288.369 179.681 286.574 175.14C285.242 171.771 276.109 173.442 276.109 173.442C276.109 173.442 278.845 170.978 276.283 168.343C274.983 167.007 271.534 169.065 268.452 171.417C268.099 170.581 267.264 170.53 266.507 170.484C265.792 170.44 265.145 170.401 265.043 169.705C264.863 168.475 267.185 167.765 269.644 167.013C272.438 166.159 275.409 165.25 275.083 163.463C274.76 161.692 272.378 162.638 270.17 163.515C268.284 164.264 266.526 164.963 266.289 163.872C266.16 163.282 268.072 162.793 270.399 162.197C273.842 161.316 278.197 160.201 278.197 158.184C278.197 156.082 274.775 156.824 271.739 157.482C269.893 157.882 268.191 158.251 267.486 157.932C266.794 157.618 268.915 156.39 271.744 154.752C276.54 151.974 283.369 148.019 281.967 145.349C280.862 143.243 275.965 145.896 271.815 148.144C269.145 149.59 266.784 150.869 265.943 150.605C264.9 150.277 266.621 148.251 268.973 145.482C271.472 142.54 274.684 138.759 276.05 135.285C278.792 128.312 275.895 125.141 271.165 130.888C270.133 132.141 268.962 133.638 267.754 135.18L267.754 135.181C263.422 140.713 258.628 146.837 258.18 144.457C257.98 143.397 258.448 141.274 258.946 139.008C259.879 134.768 260.921 130.03 257.912 130.825C251.398 132.548 250.341 142.007 249.283 151.485C249.022 153.825 248.76 156.168 248.416 158.394C248.366 158.717 248.051 157.954 247.559 156.758C246.238 153.552 243.638 147.24 241.429 150.455Z" fill="white"/>
<path d="M242.083 158.389L241.526 158.917L242.822 158.171L242.083 158.389ZM241.372 150.388L240.734 149.96L241.372 150.388ZM239.556 157.423L239.763 158.157L239.556 157.423ZM239.425 162.49L238.841 162.989L240.103 162.128L239.425 162.49ZM228.299 156.429L227.745 155.898L227.745 155.899L228.299 156.429ZM233.611 166.957L233.323 167.664L235.972 168.714L234.219 166.488L233.611 166.957ZM229.404 168.538L228.634 168.515L229.404 168.538ZM230.741 171.764L231.469 172.017L231.601 171.643L231.369 171.321L230.741 171.764ZM230.175 173.564L229.415 173.439L230.922 173.754L230.175 173.564ZM228.854 171.03L229.017 171.775H229.017L228.854 171.03ZM225.241 176.879L224.758 177.473L225.605 178.145L225.968 177.133L225.241 176.879ZM219.457 174.435L220.015 174.961L219.457 174.435ZM219.576 177.982L219.435 178.732L222.074 179.219L220.099 177.421L219.576 177.982ZM212.368 179.163L211.649 178.888L212.368 179.163ZM220.877 184.473L220.745 185.225L221.03 183.726L220.877 184.473ZM217.34 185.702L218.046 185.395L217.34 185.702ZM222.303 187.498L223.057 187.658L223.233 186.843L222.396 186.742L222.303 187.498ZM222.262 187.692L221.506 187.538L221.328 188.392L222.208 188.453L222.262 187.692ZM228.751 187.856L228.761 187.094H228.741L228.751 187.856ZM240.385 187.501L240.441 188.261L241.874 188.157L240.994 187.034L240.385 187.501ZM240.33 187.431L240.453 186.679L238.514 186.368L239.722 187.9L240.33 187.431ZM255.973 187.85L255.992 187.088L255.963 187.088L255.934 187.089L255.973 187.85ZM279.562 184.781L278.857 184.472V184.473L279.562 184.781ZM274.392 182.999L274.24 182.252L274.523 183.75L274.392 182.999ZM286.832 175.296L287.551 175.019V175.019L286.832 175.296ZM276.294 173.583L275.774 173.02L273.781 174.819L276.434 174.332L276.294 173.583ZM276.469 168.438L275.912 168.966L276.469 168.438ZM268.583 171.539L267.872 171.832L268.259 172.75L269.055 172.142L268.583 171.539ZM266.625 170.598L266.578 171.358L266.625 170.598ZM265.151 169.811L264.387 169.921V169.921L265.151 169.811ZM269.783 167.095L269.555 166.367L269.783 167.095ZM275.261 163.514L276.02 163.379V163.378L275.261 163.514ZM270.314 163.566L270.602 164.273L270.314 163.566ZM266.405 163.926L267.159 163.766L266.405 163.926ZM270.544 162.236L270.35 161.499L270.544 162.236ZM271.894 157.478L272.059 158.223L271.894 157.478ZM267.61 157.932L267.288 158.625L267.61 157.932ZM271.898 154.724L272.288 155.381L272.297 155.376L272.307 155.37L271.898 154.724ZM271.898 154.724L271.508 154.066L271.498 154.072L271.489 154.077L271.898 154.724ZM282.193 145.237L281.508 145.587L282.193 145.237ZM271.97 148.056L272.341 148.725L271.97 148.056ZM266.057 150.539L265.822 151.266L266.057 150.539ZM269.108 145.37L268.517 144.881L269.108 145.37ZM276.234 135.081L275.515 134.806L276.234 135.081ZM271.315 130.645L270.716 130.165L271.315 130.645ZM267.88 134.976L268.486 135.448L268.489 135.445L268.491 135.442L267.88 134.976ZM267.88 134.977L267.275 134.505L267.272 134.508L267.27 134.511L267.88 134.977ZM258.24 144.337L257.481 144.476L258.24 144.337ZM259.011 138.838L259.765 139L259.011 138.838ZM257.97 130.582L257.77 129.845L257.97 130.582ZM249.281 151.427L248.514 151.344L248.509 151.386V151.427H249.281ZM249.281 151.427L250.047 151.511L250.052 151.469V151.427H249.281ZM248.408 158.399L249.17 158.514V158.514L248.408 158.399ZM247.544 156.748L246.813 156.989L246.821 157.012L246.83 157.035L247.544 156.748ZM247.544 156.748L248.276 156.507L248.268 156.484L248.259 156.461L247.544 156.748ZM242.822 158.171C242.316 156.5 241.923 154.884 241.765 153.538C241.687 152.864 241.67 152.282 241.719 151.806C241.768 151.323 241.88 151.006 242.01 150.816L240.734 149.96C240.404 150.441 240.247 151.037 240.184 151.652C240.121 152.274 240.147 152.975 240.233 153.712C240.405 155.187 240.827 156.901 241.344 158.608L242.822 158.171ZM239.763 158.157C240.266 158.018 240.837 158.207 241.526 158.917L242.639 157.861C241.791 156.987 240.661 156.326 239.349 156.688L239.763 158.157ZM239.425 162.49L240.103 162.128L240.104 162.129L240.103 162.127C240.096 162.115 240.09 162.103 240.083 162.09C240.068 162.062 240.046 162.019 240.018 161.963C239.941 161.808 239.868 161.651 239.798 161.493C239.623 161.094 239.423 160.571 239.296 160.041C239.165 159.495 239.135 159.026 239.22 158.695C239.289 158.426 239.424 158.25 239.763 158.157L239.349 156.688C238.427 156.942 237.916 157.573 237.725 158.32C237.549 159.004 237.643 159.758 237.795 160.392C237.95 161.042 238.189 161.656 238.383 162.099C238.481 162.323 238.57 162.508 238.635 162.638C238.668 162.704 238.695 162.755 238.713 162.792L238.736 162.834L238.743 162.847L238.745 162.85L238.745 162.852L238.746 162.852L239.425 162.49ZM228.852 156.961C229.309 156.495 230.004 156.392 231.074 156.772C232.14 157.151 233.355 157.943 234.532 158.879C235.698 159.806 236.776 160.834 237.567 161.635C237.973 162.046 238.369 162.465 238.756 162.894L238.821 162.966L238.837 162.984L238.841 162.988L238.841 162.989L239.425 162.49L240.008 161.991L240.007 161.991C240.005 161.988 240.002 161.986 240 161.983L239.982 161.962C239.87 161.836 239.757 161.711 239.643 161.588C239.411 161.337 239.079 160.984 238.671 160.57C237.856 159.745 236.73 158.671 235.499 157.691C234.279 156.721 232.905 155.802 231.595 155.337C230.292 154.875 228.827 154.798 227.745 155.898L228.852 156.961ZM233.611 166.957L234.219 166.489L234.219 166.488L234.218 166.487C234.217 166.486 234.216 166.484 234.215 166.483L234.201 166.465L234.145 166.393C233.815 165.966 233.491 165.536 233.173 165.101C232.552 164.254 231.744 163.11 230.989 161.92C230.23 160.721 229.545 159.505 229.151 158.507C228.953 158.005 228.846 157.601 228.822 157.305C228.797 156.996 228.871 156.942 228.852 156.96L227.745 155.899C227.314 156.338 227.244 156.929 227.285 157.425C227.325 157.935 227.492 158.498 227.714 159.061C228.161 160.195 228.907 161.506 229.682 162.729C230.462 163.959 231.291 165.132 231.924 165.996C232.251 166.441 232.583 166.883 232.921 167.321L232.98 167.397L232.996 167.418L233 167.422L233.001 167.424L233.002 167.424C233.002 167.425 233.002 167.425 233.611 166.957ZM230.175 168.561C230.195 167.934 230.396 167.673 230.569 167.544C230.775 167.389 231.101 167.303 231.54 167.305C231.968 167.308 232.414 167.395 232.767 167.488C232.945 167.536 233.121 167.591 233.294 167.653L233.32 167.663L233.324 167.665C233.325 167.665 233.325 167.665 233.324 167.665H233.324V167.664C233.324 167.664 233.323 167.664 233.611 166.957C233.898 166.249 233.897 166.249 233.897 166.249L233.897 166.249L233.895 166.248L233.891 166.246C233.886 166.245 233.882 166.243 233.878 166.241L233.835 166.225C233.616 166.145 233.393 166.075 233.167 166.016C232.747 165.904 232.16 165.785 231.549 165.781C230.948 165.777 230.228 165.886 229.637 166.329C229.012 166.797 228.663 167.538 228.634 168.515L230.175 168.561ZM231.369 171.321C230.584 170.234 230.154 169.274 230.175 168.561L228.634 168.515C228.596 169.761 229.297 171.077 230.114 172.207L231.369 171.321ZM230.175 173.564L230.922 173.754V173.755V173.754L230.922 173.754L230.924 173.748L230.93 173.725L230.956 173.629C231.11 173.086 231.281 172.548 231.469 172.017L230.013 171.512C229.859 171.949 229.715 172.389 229.582 172.832C229.529 173.011 229.478 173.19 229.43 173.369L229.429 173.372L229.429 173.372V173.373L230.175 173.564ZM229.017 171.775C229.15 171.747 229.212 171.759 229.23 171.763C229.243 171.767 229.255 171.774 229.263 171.784C229.312 171.836 229.388 171.979 229.431 172.265C229.472 172.531 229.47 172.824 229.454 173.064C229.447 173.18 229.436 173.278 229.428 173.346L229.417 173.421C229.416 173.426 229.416 173.432 229.415 173.438L229.415 173.44V173.439L230.175 173.564L230.936 173.688L230.936 173.688V173.686L230.937 173.683L230.939 173.673L230.943 173.641C230.967 173.482 230.984 173.323 230.993 173.163C231.013 172.867 231.02 172.454 230.957 172.038C230.896 171.642 230.756 171.127 230.387 170.74C229.963 170.295 229.364 170.141 228.691 170.285L229.017 171.775ZM225.968 177.133C226.504 175.635 227.076 174.291 227.652 173.299C227.94 172.803 228.215 172.421 228.47 172.158C228.731 171.886 228.916 171.797 229.017 171.775L228.691 170.285C228.163 170.398 227.718 170.728 227.354 171.105C226.982 171.49 226.636 171.986 226.314 172.54C225.67 173.648 225.063 175.093 224.514 176.624L225.968 177.133ZM220.015 174.961C220.027 174.949 220.089 174.881 220.365 174.912C220.649 174.943 221.041 175.071 221.533 175.311C222.507 175.789 223.663 176.605 224.758 177.473L225.723 176.284C224.605 175.397 223.345 174.498 222.217 173.946C221.658 173.671 221.079 173.456 220.535 173.396C219.983 173.335 219.361 173.429 218.898 173.91L220.015 174.961ZM219.576 177.982C220.099 177.421 220.099 177.421 220.099 177.421L220.099 177.422L220.101 177.423L220.102 177.424L220.102 177.425L220.096 177.419C220.033 177.355 219.974 177.288 219.918 177.217C219.775 177.038 219.66 176.839 219.577 176.627C219.487 176.394 219.447 176.146 219.491 175.889C219.534 175.638 219.667 175.322 220.015 174.961L218.898 173.91C218.364 174.464 218.07 175.05 217.971 175.635C217.871 176.215 217.971 176.74 218.133 177.164C218.271 177.52 218.463 177.854 218.701 178.154C218.798 178.277 218.903 178.395 219.015 178.506L219.039 178.53L219.048 178.538L219.051 178.541C219.052 178.541 219.052 178.541 219.053 178.542L219.053 178.542C219.054 178.542 219.054 178.543 219.576 177.982ZM213.087 179.439C213.192 179.17 213.486 178.91 214.11 178.718C214.722 178.53 215.506 178.457 216.317 178.456C217.12 178.455 217.901 178.524 218.486 178.594C218.783 178.629 219.079 178.672 219.373 178.721L219.421 178.729L219.432 178.731L219.435 178.732L219.576 177.982L219.718 177.233L219.717 177.232H219.716C219.714 177.232 219.713 177.232 219.711 177.231L219.695 177.229C219.605 177.213 219.515 177.198 219.425 177.184C219.174 177.145 218.923 177.11 218.672 177.08C218.049 177.006 217.201 176.93 216.315 176.931C215.439 176.933 214.479 177.009 213.653 177.262C212.84 177.511 212.003 177.984 211.649 178.888L213.087 179.439ZM221.03 183.726C220.071 183.535 217.703 183.01 215.742 182.16C214.753 181.731 213.946 181.251 213.464 180.747C213.011 180.273 212.918 179.872 213.087 179.438L211.649 178.888C211.201 180.034 211.619 181.037 212.343 181.795C213.038 182.522 214.072 183.1 215.123 183.556C217.241 184.474 219.745 185.025 220.725 185.221L221.03 183.726ZM218.046 185.395C217.916 185.102 218.033 185.142 217.953 185.228C217.947 185.234 217.971 185.207 218.065 185.172C218.158 185.137 218.288 185.106 218.459 185.084C219.171 184.995 220.158 185.124 220.745 185.225L221.009 183.722C220.416 183.62 219.228 183.451 218.265 183.572C217.808 183.629 217.213 183.771 216.817 184.197C216.335 184.716 216.36 185.391 216.635 186.009L218.046 185.395ZM222.396 186.742C221.117 186.587 220.042 186.379 219.252 186.11C218.858 185.976 218.562 185.836 218.356 185.699C218.147 185.56 218.072 185.451 218.046 185.395L216.634 186.009C216.816 186.418 217.14 186.727 217.494 186.963C217.85 187.201 218.281 187.393 218.751 187.552C219.689 187.871 220.888 188.096 222.21 188.255L222.396 186.742ZM222.262 187.692L223.017 187.847V187.846L223.018 187.844L223.019 187.835L223.027 187.799L223.057 187.658L221.549 187.339L221.518 187.486C221.514 187.502 221.511 187.518 221.507 187.534L221.507 187.537V187.538H221.506L222.262 187.692ZM228.741 187.094C227.245 187.112 225.75 187.091 224.256 187.031C223.783 187.012 223.311 186.99 222.839 186.963C222.67 186.954 222.539 186.946 222.45 186.941L222.349 186.934L222.323 186.932L222.317 186.932H222.316L222.262 187.692L222.208 188.453H222.209L222.211 188.453L222.218 188.453L222.246 188.455L222.351 188.462L222.751 188.486C223.097 188.505 223.592 188.53 224.194 188.554C225.399 188.602 227.035 188.643 228.762 188.618L228.741 187.094ZM240.385 187.501L240.328 186.74H240.324C240.321 186.741 240.317 186.741 240.313 186.742L240.264 186.745L240.071 186.758C238.951 186.831 237.831 186.892 236.71 186.942C234.536 187.039 231.643 187.127 228.761 187.094L228.742 188.618C231.665 188.652 234.589 188.563 236.78 188.465C237.912 188.415 239.044 188.353 240.175 188.279L240.372 188.266L240.423 188.262L240.436 188.261L240.44 188.261H240.441L240.385 187.501ZM239.722 187.9L239.762 187.951L239.772 187.963L239.774 187.966L239.775 187.967L239.775 187.967L240.385 187.501L240.994 187.034V187.034L240.993 187.032L240.99 187.029L240.98 187.015L240.938 186.963L239.722 187.9ZM255.934 187.089C252.702 187.248 245.433 187.475 240.453 186.679L240.207 188.184C245.368 189.01 252.79 188.77 256.011 188.612L255.934 187.089ZM278.857 184.473C278.775 184.655 278.572 184.889 278.144 185.145C277.722 185.397 277.142 185.633 276.407 185.847C274.938 186.275 272.973 186.58 270.717 186.787C266.214 187.199 260.693 187.206 255.992 187.088L255.953 188.613C260.672 188.73 266.264 188.725 270.859 188.305C273.153 188.095 275.233 187.779 276.843 187.31C277.648 187.075 278.366 186.794 278.942 186.45C279.512 186.109 280.008 185.669 280.267 185.09L278.857 184.473ZM274.523 183.75C275.383 183.603 276.872 183.408 277.973 183.544C278.549 183.616 278.832 183.758 278.932 183.864C278.961 183.895 278.978 183.926 278.982 183.986C278.987 184.062 278.972 184.216 278.857 184.472L280.267 185.09C280.449 184.686 280.548 184.279 280.521 183.881C280.497 183.488 280.335 183.116 280.063 182.828C279.574 182.306 278.815 182.112 278.165 182.032C276.816 181.864 275.127 182.1 274.261 182.248L274.523 183.75ZM286.114 175.573C286.424 176.36 286.215 177.076 285.491 177.828C284.737 178.61 283.505 179.328 282.044 179.956C279.141 181.205 275.646 181.973 274.24 182.252L274.543 183.746C275.97 183.464 279.599 182.671 282.66 181.354C284.181 180.7 285.641 179.883 286.608 178.879C287.604 177.845 288.144 176.523 287.551 175.019L286.114 175.573ZM276.294 173.583L276.434 174.332H276.435L276.439 174.331L276.456 174.328L276.528 174.316C276.593 174.305 276.688 174.289 276.811 174.27C277.058 174.232 277.413 174.18 277.844 174.129C278.708 174.026 279.867 173.925 281.059 173.927C282.26 173.929 283.448 174.035 284.392 174.323C285.351 174.615 285.904 175.042 286.114 175.573L287.551 175.019C287.09 173.851 285.989 173.214 284.847 172.866C283.689 172.513 282.326 172.404 281.061 172.402C279.786 172.4 278.561 172.508 277.66 172.615C277.296 172.659 276.933 172.708 276.572 172.764C276.441 172.784 276.338 172.801 276.266 172.813L276.184 172.828L276.162 172.832C276.16 172.832 276.158 172.832 276.156 172.833L276.154 172.833H276.153L276.294 173.583ZM275.912 168.966C276.464 169.534 276.694 170.052 276.77 170.491C276.846 170.935 276.774 171.356 276.628 171.736C276.48 172.121 276.263 172.447 276.077 172.682C275.983 172.801 275.881 172.914 275.772 173.021L275.771 173.022L275.772 173.021L275.773 173.021L275.773 173.02C275.773 173.02 275.774 173.02 276.294 173.583C276.814 174.146 276.814 174.145 276.814 174.145L276.815 174.145L276.817 174.143C276.986 173.98 277.144 173.807 277.29 173.623C277.54 173.308 277.851 172.848 278.07 172.277C278.29 171.704 278.423 171.005 278.29 170.235C278.157 169.46 277.764 168.671 277.025 167.91L275.912 168.966ZM269.055 172.142C270.594 170.965 272.183 169.895 273.522 169.285C274.195 168.978 274.753 168.812 275.179 168.78C275.595 168.749 275.796 168.846 275.912 168.966L277.025 167.91C276.487 167.355 275.764 167.207 275.062 167.26C274.373 167.312 273.623 167.56 272.876 167.9C271.375 168.585 269.676 169.74 268.112 170.936L269.055 172.142ZM266.578 171.358C266.983 171.383 267.269 171.406 267.496 171.487C267.677 171.55 267.791 171.639 267.872 171.832L269.295 171.245C269.021 170.595 268.536 170.236 268.017 170.052C267.545 169.884 267.029 169.858 266.673 169.836L266.578 171.358ZM264.387 169.921C264.43 170.213 264.539 170.484 264.73 170.712C264.919 170.937 265.152 171.074 265.374 171.161C265.777 171.317 266.257 171.339 266.578 171.358L266.673 169.836C266.516 169.829 266.359 169.816 266.204 169.799C266.07 169.782 265.988 169.761 265.938 169.742C265.895 169.725 265.9 169.718 265.916 169.737C265.934 169.758 265.922 169.761 265.914 169.702L264.387 169.921ZM269.555 166.367C268.339 166.74 267.066 167.127 266.126 167.59C265.657 167.822 265.205 168.102 264.878 168.458C264.534 168.834 264.301 169.331 264.387 169.921L265.914 169.702C265.909 169.672 265.901 169.613 266.021 169.482C266.159 169.332 266.413 169.153 266.814 168.955C267.617 168.559 268.752 168.21 270.012 167.823L269.555 166.367ZM274.502 163.649C274.54 163.856 274.495 164.036 274.331 164.244C274.148 164.477 273.823 164.727 273.335 164.986C272.357 165.506 270.986 165.929 269.555 166.367L270.012 167.823C271.395 167.4 272.927 166.933 274.066 166.329C274.637 166.026 275.175 165.655 275.548 165.181C275.941 164.683 276.146 164.073 276.02 163.379L274.502 163.649ZM270.602 164.273C271.746 163.817 272.802 163.403 273.605 163.293C274.004 163.238 274.222 163.278 274.324 163.328C274.372 163.351 274.456 163.397 274.502 163.649L276.02 163.378C275.903 162.736 275.565 162.232 275.002 161.959C274.494 161.712 273.911 161.712 273.393 161.783C272.359 161.925 271.104 162.43 270.026 162.859L270.602 164.273ZM265.651 164.086C265.766 164.614 266.107 164.996 266.602 165.162C267.022 165.303 267.485 165.265 267.88 165.191C268.682 165.041 269.68 164.64 270.602 164.273L270.026 162.859C269.048 163.248 268.211 163.577 267.593 163.693C267.279 163.752 267.136 163.731 267.097 163.718C267.092 163.717 267.117 163.725 267.144 163.755C267.169 163.784 267.166 163.799 267.159 163.766L265.651 164.086ZM270.35 161.499C269.193 161.795 268.084 162.079 267.283 162.368C266.89 162.509 266.508 162.673 266.222 162.874C265.979 163.043 265.513 163.453 265.651 164.086L267.159 163.766C267.232 164.102 266.958 164.226 267.114 164.118C267.225 164.039 267.447 163.931 267.811 163.8C268.526 163.543 269.551 163.279 270.737 162.974L270.35 161.499ZM277.625 158.187C277.625 158.396 277.519 158.657 277.147 158.982C276.771 159.309 276.201 159.63 275.467 159.941C274.002 160.56 272.1 161.05 270.35 161.499L270.737 162.974C272.455 162.534 274.48 162.016 276.074 161.342C276.87 161.006 277.612 160.608 278.167 160.125C278.725 159.638 279.168 158.995 279.168 158.187H277.625ZM272.059 158.223C273.617 157.884 275.152 157.555 276.295 157.55C276.872 157.548 277.227 157.632 277.416 157.743C277.536 157.813 277.625 157.905 277.625 158.187H279.168C279.168 157.408 278.826 156.798 278.204 156.432C277.652 156.108 276.955 156.023 276.288 156.026C274.944 156.031 273.227 156.408 271.728 156.734L272.059 158.223ZM267.288 158.625C267.608 158.77 267.974 158.812 268.307 158.817C268.651 158.821 269.033 158.787 269.427 158.733C270.213 158.625 271.139 158.423 272.059 158.223L271.728 156.734C270.789 156.938 269.928 157.124 269.215 157.223C268.859 157.272 268.563 157.295 268.329 157.292C268.082 157.289 267.967 157.255 267.933 157.24L267.288 158.625ZM271.507 154.066C270.096 154.885 268.817 155.627 267.983 156.205C267.582 156.482 267.203 156.775 266.977 157.062C266.876 157.19 266.694 157.454 266.707 157.801C266.725 158.253 267.042 158.513 267.288 158.625L267.933 157.24C268.005 157.273 268.236 157.424 268.248 157.741C268.257 157.954 268.149 158.056 268.195 157.998C268.263 157.911 268.465 157.732 268.868 157.453C269.639 156.919 270.852 156.215 272.288 155.381L271.507 154.066ZM271.489 154.077L272.307 155.37L271.489 154.077ZM281.508 145.587C281.677 145.909 281.665 146.355 281.212 147.047C280.759 147.739 279.958 148.516 278.906 149.342C276.811 150.987 273.935 152.657 271.508 154.066L272.289 155.381C274.69 153.987 277.668 152.261 279.865 150.536C280.96 149.678 281.916 148.777 282.506 147.876C283.096 146.974 283.415 145.911 282.878 144.886L281.508 145.587ZM272.341 148.725C274.448 147.581 276.669 146.378 278.497 145.715C279.417 145.381 280.16 145.214 280.7 145.224C281.208 145.233 281.403 145.386 281.508 145.587L282.878 144.886C282.426 144.024 281.587 143.715 280.728 143.699C279.899 143.685 278.94 143.93 277.965 144.283C276.005 144.995 273.671 146.263 271.599 147.388L272.341 148.725ZM265.822 151.266C266.264 151.405 266.762 151.316 267.168 151.203C267.609 151.081 268.113 150.88 268.646 150.638C269.712 150.152 271.005 149.45 272.341 148.725L271.599 147.388C270.246 148.122 269.006 148.795 268 149.253C267.497 149.482 267.079 149.645 266.752 149.735C266.39 149.835 266.273 149.807 266.291 149.813L265.822 151.266ZM268.517 144.881C267.346 146.262 266.285 147.512 265.656 148.46C265.352 148.918 265.081 149.403 264.999 149.849C264.955 150.083 264.949 150.39 265.103 150.686C265.268 151.001 265.546 151.179 265.822 151.266L266.291 149.813C266.304 149.817 266.408 149.859 266.475 149.988C266.532 150.098 266.507 150.168 266.516 150.122C266.538 150.003 266.651 149.74 266.945 149.297C267.513 148.442 268.501 147.273 269.699 145.86L268.517 144.881ZM275.515 134.806C274.196 138.168 271.06 141.88 268.517 144.881L269.699 145.86C272.189 142.923 275.522 139.005 276.953 135.357L275.515 134.806ZM271.914 131.126C273.071 129.717 274.056 128.932 274.801 128.596C275.526 128.269 275.872 128.415 276.055 128.593C276.314 128.846 276.567 129.456 276.529 130.579C276.493 131.668 276.185 133.1 275.515 134.806L276.953 135.357C277.665 133.544 278.027 131.939 278.071 130.63C278.114 129.356 277.858 128.209 277.138 127.507C276.341 126.731 275.236 126.724 274.161 127.209C273.106 127.684 271.941 128.674 270.716 130.165L271.914 131.126ZM268.491 135.442C269.709 133.884 270.882 132.382 271.914 131.126L270.716 130.165C269.671 131.438 268.485 132.956 267.27 134.51L268.491 135.442ZM268.486 135.448L268.486 135.448L267.275 134.504L267.275 134.505L268.486 135.448ZM257.481 144.476C257.561 144.9 257.8 145.425 258.4 145.588C258.898 145.723 259.379 145.518 259.705 145.335C260.405 144.94 261.259 144.135 262.161 143.167C263.998 141.194 266.318 138.223 268.491 135.443L267.27 134.511C265.081 137.312 262.807 140.221 261.026 142.134C260.12 143.107 259.41 143.746 258.941 144.01C258.683 144.155 258.678 144.082 258.809 144.118C259.042 144.181 259.031 144.374 258.998 144.198L257.481 144.476ZM258.257 138.676C258.008 139.814 257.759 140.943 257.6 141.923C257.446 142.875 257.354 143.797 257.481 144.476L258.998 144.198C258.924 143.807 258.968 143.123 259.123 142.165C259.274 141.234 259.512 140.149 259.765 139L258.257 138.676ZM258.169 131.318C258.467 131.239 258.645 131.248 258.741 131.271C258.818 131.288 258.886 131.333 258.932 131.396C259.079 131.585 259.208 132.018 259.208 132.804C259.207 134.333 258.734 136.505 258.257 138.676L259.765 139C260.227 136.893 260.749 134.536 260.75 132.805C260.75 131.962 260.633 131.082 260.154 130.467C259.894 130.127 259.523 129.888 259.105 129.79C258.682 129.688 258.23 129.724 257.77 129.845L258.169 131.318ZM250.047 151.511C250.583 146.706 251.109 142.013 252.3 138.301C253.494 134.583 255.277 132.085 258.169 131.318L257.77 129.845C254.102 130.818 252.075 133.961 250.83 137.84C249.583 141.726 249.045 146.586 248.514 151.344L250.047 151.511ZM250.052 151.427H248.509H250.052ZM249.17 158.514C249.519 156.249 249.784 153.87 250.047 151.511L248.514 151.344C248.25 153.709 247.989 156.056 247.645 158.284L249.17 158.514ZM246.83 157.035C247.073 157.626 247.288 158.149 247.448 158.479C247.49 158.564 247.533 158.647 247.577 158.722C247.614 158.785 247.679 158.888 247.769 158.98C247.812 159.024 247.906 159.112 248.05 159.173C248.161 159.22 248.281 159.241 248.402 159.235C248.522 159.23 248.64 159.197 248.746 159.14C248.97 159.019 249.067 158.833 249.104 158.748C249.145 158.653 249.162 158.567 249.17 158.514L247.645 158.284C247.647 158.272 247.656 158.217 247.687 158.147C247.751 157.999 247.864 157.878 248.007 157.802C248.105 157.749 248.215 157.718 248.326 157.713C248.438 157.707 248.55 157.727 248.653 157.77C248.779 157.823 248.853 157.896 248.874 157.916C248.919 157.963 248.932 157.992 248.909 157.954C248.884 157.909 248.86 157.864 248.838 157.817C248.704 157.542 248.512 157.076 248.259 156.461L246.83 157.035ZM246.813 156.989L248.276 156.507L246.813 156.989ZM242.01 150.816C242.241 150.479 242.427 150.343 242.542 150.29C242.637 150.248 242.723 150.242 242.843 150.281C243.162 150.387 243.616 150.786 244.157 151.568C245.199 153.078 246.155 155.394 246.83 157.035L248.259 156.461C247.603 154.866 246.585 152.381 245.43 150.709C244.871 149.9 244.172 149.113 243.332 148.836C242.873 148.684 242.38 148.687 241.9 148.905C241.442 149.112 241.059 149.486 240.734 149.96L242.01 150.816Z" fill="#E1E4E5"/>
<path fill-rule="evenodd" clip-rule="evenodd" d="M118.477 169.374C121.72 172.872 120.44 190.833 120.44 190.833C120.44 190.833 112.909 189.305 106.231 187.141C102.465 187.389 75.397 189.016 73.3888 184.531C72.2177 181.917 76.7897 182.478 78.4958 182.769C75.6967 182.215 64.4239 179.682 66.2085 175.153C67.5338 171.791 76.6172 173.458 76.6172 173.458C76.6172 173.458 73.8961 170.999 76.4443 168.371C78.9921 165.744 89.8398 176.268 89.8398 176.268C89.8398 176.268 85.4408 168.097 90.5143 170.455C91.2527 170.799 92.1503 171.436 93.1401 172.268C94.2324 172.559 95.1932 173.073 95.1932 173.073C95.1932 173.073 86.0078 165.205 89.1375 162.198C90.8189 160.585 99.6558 167.39 99.6558 167.39C99.6558 167.39 98.0278 163.374 101.236 163.279C104.444 163.183 109.358 169.346 109.358 169.346C109.358 169.346 115.234 165.876 118.477 169.374Z" fill="white"/>
<path d="M120.7 190.942L121.467 190.995L121.405 191.865L120.545 191.69L120.7 190.942ZM118.718 169.203L118.152 169.719L118.718 169.203ZM106.355 187.201L106.304 186.439L106.453 186.429L106.594 186.475L106.355 187.201ZM73.1979 184.558L73.9007 184.248V184.248L73.1979 184.558ZM78.3538 182.772L78.5046 182.024L78.2231 183.525L78.3538 182.772ZM65.9488 175.056L65.2325 174.779V174.779L65.9488 175.056ZM76.4572 173.34L76.9754 172.776L78.9625 174.578L76.3168 174.091L76.4572 173.34ZM76.2826 168.187L76.8374 168.715L76.2826 168.187ZM89.8065 176.187L90.4852 175.828L89.2683 176.732L89.8065 176.187ZM90.4875 170.298L90.8143 169.607H90.8147L90.4875 170.298ZM93.1385 172.134L92.9382 172.871L92.7721 172.827L92.6406 172.716L93.1385 172.134ZM95.2113 172.949L95.7146 172.372L94.846 173.621L95.2113 172.949ZM89.0975 161.933L88.562 161.385L88.5623 161.384L89.0975 161.933ZM99.7167 167.192L100.43 166.908L101.49 169.53L99.2445 167.795L99.7167 167.192ZM101.312 163.028L101.335 163.791L101.312 163.028ZM109.511 169.174L109.906 169.83L109.326 170.174L108.908 169.647L109.511 169.174ZM120.7 190.942L119.933 190.888V190.885L119.934 190.876L119.936 190.838L119.946 190.687C119.955 190.555 119.967 190.36 119.981 190.109C120.01 189.609 120.048 188.889 120.082 188.013C120.152 186.261 120.211 183.891 120.168 181.414C120.125 178.933 119.981 176.365 119.649 174.21C119.483 173.132 119.273 172.176 119.013 171.394C118.75 170.6 118.453 170.046 118.152 169.719L119.285 168.687C119.801 169.246 120.182 170.036 120.474 170.915C120.77 171.806 120.996 172.853 121.17 173.979C121.516 176.232 121.662 178.877 121.706 181.388C121.749 183.903 121.689 186.303 121.619 188.074C121.583 188.978 121.537 189.882 121.481 190.786L121.471 190.941L121.468 190.981L121.467 190.992V190.995L120.7 190.942ZM106.594 186.475C109.938 187.562 113.503 188.492 116.237 189.151C117.603 189.481 118.758 189.741 119.572 189.92C119.971 190.007 120.37 190.093 120.77 190.176L120.833 190.19C120.839 190.19 120.844 190.191 120.85 190.193L120.853 190.193L120.854 190.194L120.7 190.942L120.545 191.69H120.545L120.544 191.689L120.539 191.688L120.522 191.685C120.5 191.681 120.478 191.676 120.456 191.671L120.2 191.618C119.977 191.571 119.652 191.501 119.241 191.411C118.116 191.164 116.994 190.905 115.874 190.635C113.121 189.972 109.513 189.032 106.116 187.926L106.594 186.475ZM73.9007 184.248C74.0287 184.535 74.4363 184.908 75.3421 185.28C76.2138 185.638 77.3976 185.933 78.8256 186.169C81.6754 186.64 85.3553 186.852 89.1233 186.914C96.6512 187.038 104.408 186.564 106.304 186.439L106.406 187.962C104.499 188.089 96.6912 188.566 89.0979 188.441C85.3057 188.378 81.5358 188.166 78.573 187.676C77.0943 187.431 75.7809 187.113 74.755 186.691C73.7635 186.285 72.8737 185.716 72.4946 184.867L73.9007 184.248ZM78.2231 183.525C77.3649 183.377 75.88 183.182 74.7823 183.319C74.2083 183.39 73.9257 183.532 73.8265 183.639C73.7944 183.671 73.7765 183.715 73.7765 183.761C73.7711 183.837 73.7861 183.991 73.9007 184.248L72.4946 184.867C72.3139 184.462 72.2143 184.054 72.242 183.656C72.2662 183.262 72.4276 182.889 72.6984 182.601C73.1859 182.078 73.9434 181.884 74.5909 181.803C75.9362 181.636 77.6202 181.872 78.4846 182.02L78.2231 183.525ZM66.6654 175.334C66.3559 176.122 66.5639 176.839 67.2864 177.592C68.0373 178.375 69.2661 179.095 70.7229 179.724C73.6173 180.975 77.1023 181.745 78.5046 182.024L78.2027 183.521C76.7794 183.238 73.161 182.444 70.1089 181.125C68.5921 180.469 67.1372 179.651 66.1725 178.645C65.1794 177.61 64.6407 176.285 65.2325 174.779L66.6654 175.334ZM76.4572 173.34L76.3168 174.091H76.3164C76.2854 174.086 76.2544 174.08 76.2234 174.074C76.1592 174.064 76.0638 174.048 75.9412 174.029C75.6955 173.99 75.3414 173.939 74.9115 173.888C74.0495 173.785 72.8945 173.683 71.7057 173.685C70.5076 173.687 69.3234 173.793 68.3814 174.081C67.4256 174.374 66.8742 174.802 66.6651 175.334L65.2325 174.779C65.6923 173.609 66.7889 172.971 67.9289 172.622C69.0827 172.269 70.4419 172.16 71.7038 172.158C72.9749 172.156 74.196 172.264 75.0949 172.371C75.4574 172.414 75.8192 172.464 76.1799 172.52C76.3103 172.54 76.4133 172.558 76.4841 172.569L76.5664 172.584L76.5883 172.588C76.5903 172.588 76.5924 172.588 76.5944 172.589L76.5963 172.589H76.5967L76.4572 173.34ZM76.8374 168.715C76.2872 169.285 76.0577 169.804 75.9827 170.243C75.9062 170.688 75.9785 171.11 76.1242 171.491C76.2711 171.876 76.4872 172.203 76.6732 172.438C76.7636 172.553 76.8607 172.662 76.9639 172.765L76.977 172.777L76.9781 172.779L76.9774 172.778L76.9766 172.777L76.9762 172.777C76.9758 172.777 76.9754 172.776 76.4572 173.34C76.2854 173.529 76.1122 173.717 75.9377 173.903L75.9373 173.903L75.9358 173.901C75.9344 173.9 75.9331 173.899 75.932 173.898L75.9216 173.888C75.8756 173.844 75.8305 173.799 75.7862 173.754C75.6728 173.634 75.5649 173.51 75.4629 173.381C75.2141 173.065 74.9042 172.604 74.6862 172.033C74.4667 171.458 74.3344 170.758 74.4663 169.987C74.5997 169.21 74.9915 168.42 75.7278 167.658L76.8374 168.715ZM89.8065 176.187L89.2683 176.732H89.2679C89.2646 176.729 89.2646 176.729 89.2613 176.725L89.2387 176.704L89.1491 176.617C89.0699 176.541 88.9526 176.43 88.8023 176.288C88.5012 176.005 88.0679 175.603 87.5392 175.129C86.4811 174.179 85.0485 172.944 83.5409 171.794C82.0241 170.637 80.4701 169.597 79.1632 169.009C78.5072 168.714 77.9643 168.556 77.5503 168.528C77.1485 168.501 76.9516 168.597 76.8374 168.715L75.7278 167.658C76.2565 167.111 76.9647 166.958 77.6541 167.004C78.3312 167.05 79.0663 167.289 79.7983 167.618C81.2686 168.28 82.935 169.407 84.4776 170.583C86.0293 171.766 87.4954 173.03 88.5708 173.996C89.127 174.495 89.6757 175.003 90.2168 175.518L90.3114 175.609L90.336 175.633L90.3421 175.639L90.3441 175.641L90.3444 175.641C90.3448 175.641 90.3448 175.641 89.8065 176.187ZM90.1607 170.989C89.5616 170.71 89.1894 170.63 88.983 170.629C88.888 170.628 88.8519 170.644 88.8492 170.645C88.8476 170.646 88.8499 170.645 88.8534 170.642C88.8565 170.64 88.8569 170.639 88.8545 170.642C88.8372 170.667 88.7815 170.787 88.79 171.091C88.7976 171.377 88.8599 171.739 88.9699 172.152C89.1887 172.976 89.5635 173.892 89.8934 174.616C90.0666 174.996 90.2491 175.372 90.4409 175.743L90.4748 175.808L90.4828 175.823L90.4848 175.827C90.485 175.827 90.4851 175.827 90.4852 175.828L89.8065 176.187C89.1279 176.546 89.1279 176.545 89.1275 176.545V176.545L89.1264 176.543L89.1237 176.538C89.12 176.531 89.1166 176.525 89.1133 176.518L89.0749 176.445C88.8696 176.05 88.6753 175.65 88.492 175.245C88.149 174.493 87.7338 173.487 87.4827 172.541C87.3574 172.069 87.2647 171.582 87.2524 171.132C87.2405 170.699 87.2993 170.193 87.5861 169.778C87.9095 169.31 88.4205 169.098 88.9926 169.101C89.5236 169.105 90.133 169.289 90.8143 169.607L90.1607 170.989ZM92.6406 172.716C91.6559 171.886 90.812 171.293 90.1607 170.989L90.8147 169.607C91.6536 169.998 92.6221 170.697 93.6364 171.552L92.6406 172.716ZM95.2113 172.949L94.846 173.621L94.8464 173.622L94.8456 173.621L94.8399 173.618L94.8129 173.604C94.6368 173.515 94.4582 173.43 94.2773 173.351C93.9182 173.193 93.4392 173.005 92.9382 172.871L93.3384 171.397C93.9405 171.558 94.4977 171.778 94.8991 171.954C95.1095 172.046 95.3172 172.144 95.5219 172.249C95.5397 172.257 95.5572 172.267 95.5746 172.276L95.5758 172.277L95.5761 172.277H95.5765L95.2113 172.949ZM89.6335 162.481C89.1637 162.933 89.0602 163.621 89.4436 164.681C89.825 165.736 90.624 166.939 91.5686 168.105C92.5041 169.259 93.5411 170.327 94.3489 171.11C94.763 171.512 95.1861 171.904 95.6181 172.288L95.6911 172.352L95.7092 172.367L95.7134 172.371L95.7146 172.372L95.2113 172.949L94.7076 173.527L94.7072 173.526L94.7053 173.525L94.6995 173.519L94.678 173.501C94.5513 173.39 94.4256 173.278 94.3008 173.165C94.0482 172.936 93.6918 172.607 93.2746 172.203C92.4422 171.396 91.3583 170.281 90.3706 169.062C89.3921 167.854 88.4647 166.494 87.996 165.197C87.5292 163.906 87.4516 162.455 88.562 161.385L89.6335 162.481ZM99.7167 167.192L99.2445 167.795L99.2441 167.795L99.2434 167.794C99.2418 167.793 99.2403 167.792 99.2388 167.791L99.2207 167.777L99.148 167.721C98.7178 167.395 98.2834 167.074 97.845 166.759C96.9903 166.144 95.8372 165.344 94.6357 164.597C93.4265 163.845 92.2007 163.167 91.1934 162.777C90.6866 162.58 90.2791 162.475 89.9803 162.451C89.6689 162.426 89.6143 162.499 89.6331 162.481L88.5623 161.384C89.0057 160.958 89.6012 160.889 90.1022 160.929C90.6163 160.969 91.1842 161.134 91.7524 161.354C92.8955 161.797 94.2185 162.536 95.452 163.303C96.6931 164.075 97.8761 164.896 98.7474 165.522C99.1969 165.846 99.6424 166.175 100.084 166.509L100.161 166.569L100.182 166.584L100.187 166.588L100.188 166.589L100.188 166.59C100.189 166.59 100.189 166.59 99.7167 167.192ZM101.335 163.791C100.702 163.81 100.44 164.01 100.309 164.18C100.153 164.385 100.066 164.708 100.068 165.142C100.071 165.566 100.158 166.008 100.253 166.357C100.301 166.534 100.356 166.708 100.419 166.879L100.429 166.905L100.431 166.909C100.431 166.91 100.431 166.91 100.431 166.909V166.909L100.43 166.908L99.7167 167.192C99.0031 167.477 99.0027 167.477 99.0027 167.476L99.0023 167.476L99.0019 167.474L99 167.47C98.9985 167.466 98.9969 167.461 98.995 167.457L98.9789 167.415C98.8977 167.198 98.8273 166.977 98.7678 166.753C98.6555 166.337 98.5344 165.756 98.5305 165.151C98.5271 164.556 98.6367 163.843 99.0834 163.258C99.556 162.639 100.303 162.294 101.289 162.265L101.335 163.791ZM109.511 169.174L108.908 169.647L108.907 169.647C108.907 169.646 108.906 169.645 108.905 169.644L108.896 169.633L108.856 169.584C108.612 169.286 108.363 168.993 108.108 168.704C107.469 167.979 106.799 167.284 106.097 166.619C105.294 165.862 104.412 165.129 103.552 164.595C102.672 164.048 101.914 163.773 101.335 163.791L101.289 162.265C102.329 162.233 103.406 162.703 104.367 163.3C105.349 163.909 106.314 164.718 107.155 165.511C107.891 166.208 108.594 166.937 109.264 167.697C109.474 167.935 109.681 168.176 109.884 168.42C109.958 168.508 110.014 168.577 110.054 168.625L110.098 168.681C110.104 168.687 110.109 168.693 110.114 168.7L110.115 168.701V168.701C110.115 168.701 110.115 168.702 109.511 169.174ZM118.152 169.719C116.797 168.253 114.856 168.19 113.061 168.604C112.179 168.807 111.385 169.115 110.808 169.376C110.519 169.506 110.236 169.648 109.958 169.8L109.915 169.825C109.912 169.826 109.909 169.828 109.906 169.83L109.905 169.831L109.905 169.83L109.511 169.174C109.117 168.519 109.117 168.519 109.118 168.518L109.119 168.518L109.12 168.517L109.125 168.514L109.142 168.505C109.155 168.497 109.175 168.485 109.2 168.471C109.25 168.444 109.321 168.404 109.411 168.357C109.592 168.261 109.851 168.13 110.171 167.985C110.809 167.698 111.703 167.349 112.713 167.116C114.702 166.658 117.365 166.609 119.285 168.687L118.152 169.719Z" fill="#E1E4E5"/>
<path d="M186.714 111.919C186.879 113.168 187.321 114.674 188.036 115.185C188.848 115.765 189.099 116.381 189.099 116.381L189.923 116.132L190.909 115.835C190.909 115.835 190.911 115.737 190.904 115.572C190.897 115.356 190.879 115.14 190.851 114.926C190.851 114.926 190.664 114.531 190.927 114.146C191.19 113.762 191.311 113.104 191.126 112.644C190.941 112.185 190.903 111.147 190.728 111.139C190.306 111.115 190.596 112.595 190.362 112.804C190.152 112.994 189.973 112.872 189.94 112.846C189.938 112.844 189.936 112.843 189.934 112.841C188.91 112.092 188.153 109.135 187.456 109.354C187.197 109.435 186.642 111.387 186.714 111.919ZM228.336 142.651C228.336 142.651 227.462 144.132 227.853 144.985C228.243 145.84 229.598 146.979 229.948 147.426C230.296 147.872 231.478 149.051 231.954 148.292C232.43 147.535 231.59 145.523 231.007 144.765C230.425 144.004 230.37 142.7 230.37 142.7L228.336 142.651Z" fill="#FFB9B9"/>
<path d="M226.937 144.414C226.937 144.414 227.003 145.848 227.082 146.231C227.162 146.615 227.241 146.497 227.545 146.24C227.85 145.982 227.846 145.232 227.96 145.182C228.075 145.133 226.937 144.414 226.937 144.414Z" fill="#F8AE9D"/>
<path d="M212.416 111.405C212.416 111.405 202.289 122.241 199.137 123.939L191.194 114.632C191.194 114.632 189.703 114.736 188.77 115.984C188.77 115.984 191.851 129.11 197.474 130.928C203.097 132.746 214.559 119.965 214.559 119.965L212.416 111.405Z" fill="#05CE91"/>
<path d="M209.401 190.833H220.392C220.92 190.242 220.726 188.057 220.647 187.343C220.63 187.199 220.619 187.116 220.619 187.116C220.619 187.116 216.866 184.361 216.35 186.471C216.335 186.537 216.316 186.602 216.295 186.666C215.646 188.639 212.732 189.535 211.051 189.785C209.956 189.947 209.551 190.469 209.401 190.833Z" fill="#3A3A3A"/>
<path d="M213.373 190.833H202.974C203.117 190.473 203.499 189.958 204.535 189.798C206.126 189.551 208.882 188.665 209.496 186.715C209.516 186.652 209.534 186.587 209.549 186.522C210.037 184.438 213.587 187.16 213.587 187.16C213.587 187.16 213.598 187.242 213.613 187.384C213.689 188.09 213.873 190.249 213.373 190.833Z" fill="#3A3A3A"/>
<path d="M208.566 177.58L208.566 177.58C208.467 175.529 207.473 164.73 206.648 155.951C206.344 152.718 206.063 149.757 205.858 147.604C205.755 146.527 205.672 145.653 205.614 145.047L205.549 144.366L219.449 143.647L219.414 144.173C219.38 144.693 219.331 145.445 219.269 146.375C219.145 148.235 218.973 150.805 218.776 153.648C218.383 159.335 217.894 166.111 217.511 170.473L217.473 170.894C217.473 170.895 217.473 170.895 217.473 170.895C217.064 175.164 216.141 179.32 215.319 182.41C214.909 183.955 214.524 185.232 214.242 186.123C214.101 186.568 213.985 186.917 213.905 187.154C213.875 187.245 213.849 187.32 213.829 187.377C212.327 187.618 211.204 187.43 210.457 187.185C210.071 187.057 209.784 186.914 209.596 186.804C209.512 186.755 209.447 186.713 209.403 186.682L209.386 186.539C209.367 186.377 209.34 186.142 209.306 185.848C209.24 185.261 209.15 184.441 209.054 183.511C208.863 181.649 208.651 179.348 208.566 177.58Z" fill="#05CE91" stroke="#09BF88" stroke-width="0.5"/>
<path d="M208.662 145.157L222.299 143.661L222.308 144.189C222.316 144.706 222.328 145.454 222.342 146.378C222.371 148.227 222.408 150.783 222.444 153.61C222.515 159.265 222.581 166.004 222.555 170.346L222.552 170.766C222.552 170.766 222.552 170.766 222.552 170.767C222.493 175.018 221.919 179.186 221.359 182.293C221.079 183.847 220.802 185.133 220.596 186.031C220.493 186.48 220.408 186.832 220.348 187.071C220.326 187.16 220.307 187.234 220.293 187.291C218.835 187.612 217.716 187.491 216.961 187.289C216.57 187.185 216.275 187.059 216.08 186.961C215.992 186.917 215.924 186.878 215.877 186.85L215.848 186.706C215.817 186.547 215.771 186.315 215.714 186.026C215.602 185.449 215.446 184.642 215.277 183.726C214.938 181.892 214.543 179.625 214.317 177.879L214.317 177.879C214.054 175.852 212.202 165.212 210.68 156.563C210.119 153.378 209.603 150.461 209.227 148.34C209.039 147.279 208.886 146.418 208.78 145.821L208.662 145.157Z" fill="#05CE91" stroke="#09BF88" stroke-width="0.5"/>
<path d="M210.432 113.239C213.935 114.31 219.716 111.289 219.716 111.289C219.716 111.289 216.767 109.069 216.936 104.185L214.228 106.3L212.388 107.736C212.388 107.736 212.395 108.584 212.596 110.068C212.65 110.458 212.747 111.068 212.445 111.381C211.272 112.593 210.432 113.239 210.432 113.239Z" fill="#FFB9B9"/>
<path d="M210.558 107.168C210.558 107.168 216.49 108.09 217.047 104.628C217.604 101.166 218.744 98.9535 214.98 98.2191C211.217 97.4847 210.266 98.7011 209.78 99.8145C209.294 100.928 209.03 106.839 210.558 107.168Z" fill="#FFB9B9"/>
<path d="M206.326 145.035C206.31 144.595 206.297 143.978 206.288 143.217C206.268 141.616 206.268 139.403 206.303 136.931L206.303 136.931V136.917C206.303 136.717 206.304 136.553 206.316 136.413L206.32 136.37V136.326V136.262C206.338 134.35 206.406 132.329 206.492 130.318L206.326 145.035ZM206.326 145.035C206.609 145.054 206.923 145.084 207.248 145.118C207.431 145.136 207.621 145.157 207.818 145.177C208.268 145.225 208.754 145.277 209.274 145.324C210.769 145.46 212.438 145.551 213.94 145.396L213.946 145.396C216.499 145.149 218.78 144.39 221.292 143.26C221.428 143.198 221.641 143.088 221.8 142.971C221.783 142.596 221.75 142.103 221.708 141.491L221.708 141.491L221.705 141.446C221.522 138.775 221.207 134.165 221.518 128.845C221.572 127.879 221.601 126.922 221.605 125.979C221.618 122.459 221.276 119.186 220.598 116.556C219.969 114.115 219.088 112.38 218.072 111.446C217.957 111.487 217.814 111.544 217.643 111.617C217.099 111.85 216.411 112.188 215.72 112.53C214.398 113.185 213.285 113.321 212.071 113.141L210.997 113.919C209.624 115.207 208.21 116.881 207.59 119.385L206.326 145.035ZM206.492 130.318C206.683 125.854 207.028 121.657 207.589 119.386L206.492 130.318Z" fill="#64FCCE" stroke="#05CE91" stroke-width="2"/>
<path d="M228.502 143.317C227.404 143.469 226.232 143.312 226.232 143.312C226.232 143.312 223.583 132.972 223.221 132.02C222.858 131.069 214.32 119.555 214.32 119.555L218.689 110.046C218.689 110.046 227.64 127.499 228.512 129.928C229.952 133.942 230.032 142.758 230.032 142.758C230.032 142.758 229.365 143.198 228.502 143.317Z" fill="#05CE91"/>
<path d="M185.294 107.157L188.26 106.251C188.469 106.187 188.691 106.305 188.755 106.515L190.735 113C190.799 113.209 190.681 113.431 190.471 113.495L187.505 114.4C187.296 114.464 187.074 114.346 187.01 114.137L185.03 107.652C184.966 107.442 185.084 107.221 185.294 107.157Z" fill="#06CE91"/>
<path d="M131.005 98.479C131.005 115.267 100.574 152.667 100.574 152.667C100.574 152.667 70.1442 115.267 70.1442 98.479C70.1442 90.417 73.3502 82.6851 79.057 76.9844C84.7637 71.2837 92.5038 68.0811 100.574 68.0811C108.645 68.0811 116.385 71.2837 122.092 76.9844C127.799 82.6851 131.005 90.417 131.005 98.479Z" fill="#05CE91"/>
<path d="M100.574 174.329C104.847 174.329 108.311 170.634 108.311 166.077C108.311 161.519 104.847 157.824 100.574 157.824C96.3016 157.824 92.8379 161.519 92.8379 166.077C92.8379 170.634 96.3016 174.329 100.574 174.329Z" fill="#05CE91"/>
<path d="M118.626 98.5113C118.626 102.082 117.567 105.572 115.584 108.54C113.6 111.509 110.781 113.823 107.483 115.189C104.184 116.555 100.554 116.913 97.0527 116.216C93.5509 115.52 90.3344 113.8 87.8098 111.276C85.2853 108.751 83.566 105.535 82.8695 102.033C82.1729 98.5313 82.5304 94.9017 83.8967 91.6031C85.263 88.3046 87.5767 85.4853 90.5453 83.5017C93.5139 81.5182 97.0041 80.4595 100.574 80.4595C102.944 80.4584 105.29 80.924 107.48 81.8298C109.67 82.7355 111.659 84.0637 113.336 85.7384C115.012 87.4131 116.342 89.4016 117.25 91.5904C118.157 93.7791 118.625 96.1252 118.626 98.4947V98.5113Z" fill="white"/>
<path d="M100.574 106.248C104.277 106.248 107.279 103.246 107.279 99.5428C107.279 95.8397 104.277 92.8378 100.574 92.8378C96.8713 92.8378 93.8694 95.8397 93.8694 99.5428C93.8694 103.246 96.8713 106.248 100.574 106.248Z" fill="#05CE91"/>
<path d="M110.374 114.723C107.445 116.599 104.045 117.595 100.574 117.595C97.1026 117.594 93.7033 116.597 90.7747 114.721C91.3837 112.576 92.6697 110.69 94.438 109.348C96.2063 108.005 98.3607 107.279 100.575 107.279C102.79 107.28 104.944 108.006 106.712 109.349C108.48 110.692 109.765 112.579 110.374 114.723Z" fill="#05CE91"/>
<path d="M216.798 103.322C216.714 104.054 217.627 103.956 217.942 103.293C218.824 101.433 218.929 98.3225 218.316 97.0636C217.577 95.5455 216.113 95.4074 213.846 95.2674C212.818 95.2046 211.005 94.2444 209.228 95.7111C207.899 96.8074 208.421 98.2791 208.769 98.9533C208.825 99.0622 208.628 99.0679 208.549 98.9744C208.466 98.8754 208.375 99.0526 208.405 99.1795C208.507 99.6274 208.746 100.235 209.297 100.482C210.216 100.895 211.02 100.193 212.999 100.285C214.979 100.379 214.983 101.714 215.257 102.031C215.529 102.347 215.563 101.805 216.228 101.602C216.893 101.399 216.894 102.489 216.798 103.322Z" fill="#3A3A3A"/>
</svg>
